<svg width="32" height="32" viewBox="0 0 32 32" fill="none" xmlns="http://www.w3.org/2000/svg">
<path d="M15.3773 15.7269C14.3719 14.7041 12.725 14.6868 11.7023 15.6836L11.5116 15.8743C10.4888 16.8797 10.4715 18.5265 11.4683 19.5493L11.8063 19.8873C12.3177 20.4074 12.9937 20.6674 13.6611 20.6674C14.3285 20.6674 14.9699 20.4247 15.4813 19.9307L15.672 19.74C16.6948 18.7346 16.7121 17.0877 15.7154 16.065L15.3773 15.7183V15.7269ZM14.4586 18.5092L14.2679 18.6999C13.9298 19.0379 13.3751 19.0293 13.0457 18.6826L12.7077 18.3445C12.3697 18.0065 12.3783 17.4518 12.725 17.1224L12.9157 16.9317C13.0804 16.767 13.3058 16.689 13.5225 16.689C13.7392 16.689 13.9732 16.7757 14.1379 16.949L14.4759 17.2957C14.8139 17.6338 14.8053 18.1885 14.4586 18.5179V18.5092Z" fill="#4D5586"/>
<path d="M16.6075 10.4313C16.2695 10.0932 15.7234 10.0932 15.3854 10.4313C15.0473 10.7693 15.0473 11.3154 15.3854 11.6534L20.4732 16.7412C20.6466 16.9146 20.8633 16.9926 21.0886 16.9926C21.314 16.9926 21.5307 16.9059 21.704 16.7412C22.042 16.4032 22.042 15.8571 21.704 15.5191L16.6162 10.4313H16.6075Z" fill="#4D5586"/>
<path d="M28.9763 20.5379C28.8896 20.1912 28.6209 19.9225 28.2482 19.8185L23.2817 18.4577L23.8624 17.877C24.3564 17.3829 24.6251 16.7328 24.6251 16.0394C24.6251 15.346 24.3564 14.696 23.8624 14.2019L16.313 6.65248C13.548 3.88753 6.44928 3.06411 4.25639 5.25701C3.22495 6.28844 2.79157 8.47267 3.09493 11.0989C3.3983 13.6992 4.35173 16.0221 5.6432 17.3136L13.2013 24.8717C13.704 25.3744 14.3714 25.6344 15.0388 25.6344C15.7062 25.6344 16.3736 25.3831 16.8763 24.8717L17.4657 24.291L18.8179 29.2488C18.9132 29.6128 19.1819 29.8902 19.5286 29.9855C19.6153 30.0115 19.702 30.0202 19.7886 30.0202C20.0573 30.0202 20.3174 29.9162 20.5167 29.7082L28.7076 21.526C28.9676 21.2573 29.0716 20.8933 28.9849 20.5552L28.9763 20.5379ZM5.47851 6.47913C5.97256 5.98508 7.13401 5.73372 8.52082 5.73372C9.31824 5.73372 10.1937 5.8204 11.0517 6.00242L8.46015 8.59401C8.12212 8.93205 8.12212 9.47811 8.46015 9.81614C8.6335 9.98949 8.85019 10.0675 9.07555 10.0675C9.3009 10.0675 9.51759 9.98082 9.69094 9.81614L12.9586 6.54847C13.3227 6.69582 13.6607 6.86917 13.9814 7.05119L6.0679 14.9647C5.46118 13.8899 5.01046 12.4511 4.82844 10.8909C4.55975 8.57668 4.98446 6.98185 5.48718 6.47046L5.47851 6.47913ZM15.6542 23.6409C15.3162 23.9789 14.7615 23.9789 14.4321 23.6409L7.13402 16.3428L15.3422 8.13463L22.6403 15.4327C22.805 15.5974 22.8916 15.8141 22.8916 16.0481C22.8916 16.2821 22.805 16.4988 22.6403 16.6635L15.6542 23.6496V23.6409ZM18.9219 23.0342L22.0422 19.9138L23.013 20.1825L19.1819 24.0136L18.9132 23.0342H18.9219ZM20.17 27.5846L19.7193 25.9291L24.9458 20.7026L26.6013 21.1533L20.17 27.5846Z" fill="#4D5586"/>
<path d="M4.73394 26.5273C4.25723 26.5273 3.86719 26.9174 3.86719 27.3941C3.86719 27.8708 4.25723 28.2609 4.73394 28.2609C5.21066 28.2609 5.6007 27.8708 5.6007 27.3941C5.6007 26.9174 5.21066 26.5273 4.73394 26.5273Z" fill="#4D5586"/>
<path d="M26.4019 12.6676C26.8786 12.6676 27.2687 12.2776 27.2687 11.8008C27.2687 11.3241 26.8786 10.9341 26.4019 10.9341C25.9252 10.9341 25.5352 11.3241 25.5352 11.8008C25.5352 12.2776 25.9252 12.6676 26.4019 12.6676Z" fill="#4D5586"/>
<path d="M21.2017 5.73351C21.6804 5.73351 22.0685 5.34545 22.0685 4.86676C22.0685 4.38806 21.6804 4 21.2017 4C20.723 4 20.335 4.38806 20.335 4.86676C20.335 5.34545 20.723 5.73351 21.2017 5.73351Z" fill="#4D5586"/>
</svg>
