<svg width="32" height="32" viewBox="0 0 32 32" fill="none" xmlns="http://www.w3.org/2000/svg">
<path d="M23 7H9C7.89543 7 7 7.89543 7 9V23C7 24.1046 7.89543 25 9 25H23C24.1046 25 25 24.1046 25 23V9C25 7.89543 24.1046 7 23 7Z" stroke="#4D5586" stroke-width="2" stroke-miterlimit="10"/>
<path d="M7 23L12.7257 17L17.6371 22.1377L20.9114 18.7066L25 23" stroke="#4D5586" stroke-width="2" stroke-miterlimit="10"/>
<path d="M17.5 14C18.3284 14 19 13.3284 19 12.5C19 11.6716 18.3284 11 17.5 11C16.6716 11 16 11.6716 16 12.5C16 13.3284 16.6716 14 17.5 14Z" stroke="#4D5586" stroke-width="2" stroke-miterlimit="10"/>
</svg>
