<svg width="32" height="32" viewBox="0 0 32 32" fill="none" xmlns="http://www.w3.org/2000/svg">
<path d="M3.95977 9.44678C4.52227 9.44678 4.97227 9.0249 4.97227 8.50928C4.97227 7.99365 4.52227 7.57178 3.95977 7.57178C3.39727 7.57178 2.94727 7.99365 2.94727 8.50928C2.94727 9.0249 3.39727 9.44678 3.95977 9.44678Z" fill="#4D5586"/>
<path d="M7.99003 4.75928C8.55253 4.75928 9.00254 4.3374 9.00254 3.82178C9.00254 3.30615 8.55253 2.88428 7.99003 2.88428C7.42753 2.88428 6.97754 3.30615 6.97754 3.82178C6.97754 4.3374 7.42753 4.75928 7.99003 4.75928Z" fill="#4D5586"/>
<path d="M29.1971 27.25C28.6346 27.25 28.1846 27.6719 28.1846 28.1875C28.1846 28.7031 28.6346 29.125 29.1971 29.125C29.7596 29.125 30.2096 28.7031 30.2096 28.1875C30.2096 27.6719 29.7596 27.25 29.1971 27.25Z" fill="#4D5586"/>
<path d="M22.2309 16.9375H10.3527C8.74961 16.9375 7.05273 17.7625 7.05273 19.2906V24.4656C7.05273 25.8719 8.68399 27.25 10.3527 27.25H22.2309C23.9371 27.25 25.0902 25.8062 25.0902 24.4656V19.2906C25.0902 18.1188 24.209 16.9375 22.2309 16.9375ZM23.2152 24.4656C23.2152 24.775 22.9152 25.375 22.2309 25.375H10.3527C9.58399 25.375 8.93711 24.6906 8.92773 24.4656V19.3C8.97461 19.15 9.52774 18.8125 10.3527 18.8125H22.2309C22.3902 18.8125 23.2152 18.8313 23.2152 19.2906V24.4656Z" fill="#4D5586"/>
<path d="M31.1465 18.8594V17.9219C31.1465 17.3781 30.6965 16.9375 30.134 16.9375L27.884 16.9844C26.8434 11.9125 22.4184 8.02188 17.009 7.60938V6.46563C18.1809 6.09063 19.0246 5.05 19.0246 3.8125C19.0246 2.26563 17.6934 1 16.0715 1C14.4496 1 13.1184 2.26563 13.1184 3.8125C13.1184 5.05 13.9715 6.09063 15.134 6.46563V7.60938C9.74336 8.0125 5.33711 11.875 4.27773 16.9469L2.44961 16.9844C2.17774 16.9281 1.73711 16.8531 1.36211 17.1625L1.00586 17.4719V24.1188C1.00586 24.8969 1.95273 25.375 2.37461 25.375H4.60586C4.83086 26.125 5.14961 26.8281 5.60898 27.4656C7.33398 29.875 10.6621 31 16.0902 31C21.5184 31 24.8465 29.875 26.5715 27.4656C27.0309 26.8281 27.3402 26.1156 27.5746 25.3656C27.5934 25.3656 27.6121 25.3656 27.6309 25.3656H30.7434L31.0152 24.925C31.259 24.5406 31.1465 24.1656 31.0621 23.95V18.85H31.1746L31.1465 18.8594ZM16.0715 2.875C16.6715 2.875 17.1496 3.29687 17.1496 3.8125C17.1496 4.13125 16.9527 4.40312 16.6621 4.57187C16.5027 4.43125 16.2965 4.3375 16.0621 4.3375C15.8277 4.3375 15.6309 4.43125 15.4621 4.57187C15.1809 4.40312 14.9746 4.13125 14.9746 3.8125C14.9746 3.29687 15.4621 2.875 16.0527 2.875H16.0715ZM3.92148 23.5H2.87148V18.8594H3.92148V23.5ZM25.034 26.3781C23.6934 28.2531 20.8434 29.125 16.0809 29.125C11.3184 29.125 8.46836 28.2531 7.12773 26.3781C5.91836 24.6812 5.91836 22.2062 5.91836 19.2812C5.91836 16.3563 7.14648 13.9469 9.09648 12.1563V13.1875C9.09648 13.7031 9.51836 14.125 10.034 14.125C10.5496 14.125 10.9715 13.7031 10.9715 13.1875V10.7875C12.4809 9.93438 14.2246 9.4375 16.0902 9.4375C17.9559 9.4375 19.709 9.93438 21.209 10.7875V13.1875C21.209 13.7031 21.6309 14.125 22.1465 14.125C22.6621 14.125 23.084 13.7031 23.084 13.1875V12.1563C25.034 13.9469 26.2621 16.4781 26.2621 19.2812V19.3281C26.2621 22.1969 26.2621 24.6719 25.0527 26.3687L25.034 26.3781ZM29.1684 23.5H28.1184V18.8594H29.1684V23.5Z" fill="#4D5586"/>
<path d="M14.8719 20.7437C15.2469 20.3874 15.2656 19.7968 14.9094 19.4218C14.5531 19.0468 13.9625 19.028 13.5875 19.3843L12.0688 20.8187C11.6938 21.1749 11.675 21.7655 12.0313 22.1405C12.2188 22.3374 12.4625 22.4312 12.7156 22.4312C12.95 22.4312 13.175 22.3468 13.3625 22.178L14.8813 20.7437H14.8719Z" fill="#4D5586"/>
<path d="M19.1561 19.2909C18.7998 18.9159 18.2092 18.8972 17.8342 19.2534L13.5873 23.2753C13.2123 23.6316 13.1936 24.2222 13.5498 24.5972C13.7373 24.7941 13.9811 24.8878 14.2342 24.8878C14.4686 24.8878 14.6936 24.8034 14.8811 24.6347L19.1279 20.6128C19.5029 20.2566 19.5217 19.6659 19.1654 19.2909H19.1561Z" fill="#4D5586"/>
<path d="M19.1559 21.9722L17.7777 23.2753C17.4027 23.6316 17.384 24.2222 17.7402 24.5972C17.9277 24.7941 18.1715 24.8878 18.4246 24.8878C18.659 24.8878 18.884 24.8034 19.0715 24.6347L20.4496 23.3316C20.8246 22.9753 20.8434 22.3847 20.4871 22.0097C20.1309 21.6347 19.5403 21.6159 19.1653 21.9722H19.1559Z" fill="#4D5586"/>
</svg>
