<svg width="32" height="32" viewBox="0 0 32 32" fill="none" xmlns="http://www.w3.org/2000/svg">
<path d="M23 2H9C5.14125 2 2 5.14125 2 9V23C2 26.8587 5.14125 30 9 30H23C26.8587 30 30 26.8587 30 23V9C30 5.14125 26.8587 2 23 2ZM28.25 23C28.25 25.8962 25.8962 28.25 23 28.25H9C6.10375 28.25 3.75 25.8962 3.75 23V9C3.75 6.10375 6.10375 3.75 9 3.75H23C25.8962 3.75 28.25 6.10375 28.25 9V23Z" fill="#4D5586"/>
<path d="M23.3494 15.1249H16.8744V8.6499C16.8744 8.16865 16.4807 7.7749 15.9994 7.7749C15.5182 7.7749 15.1244 8.16865 15.1244 8.6499V15.1249H8.64941C8.16816 15.1249 7.77441 15.5187 7.77441 15.9999C7.77441 16.4812 8.16816 16.8749 8.64941 16.8749H15.1244V23.3499C15.1244 23.8312 15.5182 24.2249 15.9994 24.2249C16.4807 24.2249 16.8744 23.8312 16.8744 23.3499V16.8749H23.3494C23.8307 16.8749 24.2244 16.4812 24.2244 15.9999C24.2244 15.5187 23.8307 15.1249 23.3494 15.1249Z" fill="#4D5586"/>
</svg>
