<svg width="32" height="32" viewBox="0 0 32 32" fill="none" xmlns="http://www.w3.org/2000/svg">
<path d="M12.7414 4.4931C13.3162 4.4931 13.7866 4.02279 13.7866 3.44797C13.7866 2.87314 13.3162 2.40283 12.7414 2.40283C12.1666 2.40283 11.6963 2.87314 11.6963 3.44797C11.6963 4.02279 12.1666 4.4931 12.7414 4.4931Z" fill="#4D5586"/>
<path d="M2.40549 27.8833C1.83066 27.8833 1.36035 28.3536 1.36035 28.9284C1.36035 29.5033 1.83066 29.9736 2.40549 29.9736C2.98031 29.9736 3.45062 29.5033 3.45062 28.9284C3.45062 28.3536 2.98031 27.8833 2.40549 27.8833Z" fill="#4D5586"/>
<path d="M29.9553 22.0303C29.3805 22.0303 28.9102 22.5006 28.9102 23.0754C28.9102 23.6502 29.3805 24.1205 29.9553 24.1205C30.5301 24.1205 31.0004 23.6502 31.0004 23.0754C31.0004 22.5006 30.5301 22.0303 29.9553 22.0303Z" fill="#4D5586"/>
<path d="M30.1354 12.3382L27.9729 6.79008C27.6966 6.08281 27.16 5.52485 26.4575 5.21836C25.763 4.91188 24.9817 4.89616 24.2714 5.17121C23.5611 5.44626 23.0007 5.98064 22.6929 6.6722C22.3851 7.37161 22.3693 8.14175 22.6456 8.84902L22.6929 8.97476C21.9353 8.63684 21.0908 8.61326 20.3094 8.90403L7.95009 13.517C7.16086 13.8156 6.53737 14.3972 6.18221 15.1595C5.9928 15.5838 5.90598 16.0317 5.90598 16.4875C5.56662 16.409 5.19568 16.4247 4.84052 16.5583L4.37488 16.7312C3.41201 17.0927 2.92269 18.1693 3.27784 19.128C3.56197 19.8746 4.27228 20.3382 5.02994 20.3382C5.25092 20.3382 5.46402 20.299 5.685 20.2204L6.15064 20.0475C6.54526 19.8982 6.86095 19.631 7.07404 19.2773C7.65807 19.8353 8.44731 20.1575 9.26021 20.1575C9.63115 20.1575 10.0021 20.0946 10.3651 19.961L11.9278 19.3795L10.9334 22.5936L8.93663 22.7037C8.50255 22.7272 8.17108 23.0966 8.19475 23.5288C8.21843 23.9453 8.56569 24.2675 8.98398 24.2675C8.99977 24.2675 9.01555 24.2675 9.03134 24.2675L10.4441 24.1889L8.9682 28.9669C8.84192 29.3835 9.0708 29.8235 9.48909 29.9493C9.56801 29.9728 9.64693 29.9807 9.71796 29.9807C10.0573 29.9807 10.3651 29.7607 10.4756 29.4227L12.1251 24.0868L19.0388 23.7017L21.9353 29.6192C22.0694 29.9021 22.3535 30.0593 22.6456 30.0593C22.7639 30.0593 22.8823 30.0357 22.9928 29.9807C23.3874 29.7921 23.5453 29.3206 23.3559 28.9277L20.7514 23.6074L21.9589 23.5445C22.393 23.521 22.7245 23.1516 22.7008 22.7194C22.6771 22.2872 22.3141 21.9492 21.8721 21.9807L20.0016 22.0828L17.6261 17.242L22.7324 15.3323C23.5611 15.018 24.1846 14.3972 24.516 13.6427L24.8081 14.3972C25.25 15.5209 26.3313 16.2125 27.4757 16.2125C27.815 16.2125 28.1702 16.1496 28.5095 16.016C29.9775 15.4502 30.7115 13.7999 30.1433 12.3382H30.1354ZM5.76392 18.4208C5.74814 18.46 5.70078 18.5386 5.59818 18.5701L5.13254 18.743C4.98258 18.798 4.81684 18.7194 4.7616 18.5701C4.70635 18.4208 4.78527 18.2557 4.93523 18.2007L5.40088 18.0278C5.40088 18.0278 5.47191 18.0121 5.50348 18.0121C5.62186 18.0121 5.73235 18.0828 5.7797 18.2007C5.81917 18.295 5.7876 18.3815 5.7797 18.4208H5.76392ZM9.82057 18.4836C9.00766 18.7901 8.09215 18.3736 7.79224 17.5642L7.58704 17.0141C7.43709 16.6211 7.45288 16.1968 7.62651 15.8117C7.80014 15.4266 8.11583 15.1359 8.51044 14.9944L10.7676 14.1536L12.0225 17.6663L9.82846 18.4836H9.82057ZM16.1818 17.8707L18.2969 22.185L12.6302 22.4994L13.6404 19.2302C13.6878 19.0652 13.672 18.9001 13.6168 18.7508L16.1581 17.7999C16.1581 17.7999 16.1581 17.8549 16.1818 17.8785V17.8707ZM22.1799 13.8706L13.4905 17.1162L12.2356 13.6035L20.8619 10.3814C21.0434 10.3107 21.2328 10.2793 21.4144 10.2793C21.6354 10.2793 21.8563 10.3264 22.0694 10.4207C22.4562 10.5936 22.7482 10.908 22.8902 11.3009L23.0954 11.851C23.4032 12.6604 22.9849 13.572 22.172 13.8785L22.1799 13.8706ZM27.9334 14.5622C27.2783 14.8137 26.5365 14.4915 26.276 13.8392L24.1135 8.29106C23.9873 7.97672 23.9951 7.63094 24.1372 7.3166C24.2714 7.00226 24.5239 6.7665 24.8475 6.64076C24.9975 6.58575 25.1553 6.55432 25.3132 6.55432C25.4868 6.55432 25.6604 6.59361 25.8262 6.66434C26.1419 6.79793 26.3786 7.04941 26.5049 7.37161L28.6674 12.9198C28.92 13.572 28.5964 14.3107 27.9413 14.5701L27.9334 14.5622Z" fill="#4D5586"/>
</svg>
