<svg width="100%" height="100%" viewBox="0 0 110 110" fill="none" xmlns="http://www.w3.org/2000/svg">
<g clip-path="url(#clip0_178_1277)">
<path d="M55.0035 110.007C85.3811 110.007 110.007 85.3811 110.007 55.0035C110.007 24.6259 85.3811 0 55.0035 0C24.6259 0 0 24.6259 0 55.0035C0 85.3811 24.6259 110.007 55.0035 110.007Z" fill="url(#paint0_linear_178_1277)"/>
<path d="M55.0045 104.088C82.1131 104.088 104.089 82.1121 104.089 55.0035C104.089 27.8948 82.1131 5.91895 55.0045 5.91895C27.8958 5.91895 5.91992 27.8948 5.91992 55.0035C5.91992 82.1121 27.8958 104.088 55.0045 104.088Z" fill="url(#paint1_linear_178_1277)"/>
<path d="M46.3901 63.6443L71.7892 38.1866C72.5785 37.3955 73.583 37 74.8027 37C76.0224 37 77.0269 37.3955 77.8161 38.1866C78.6054 38.9776 79 39.9844 79 41.207C79 42.4295 78.6054 43.4363 77.8161 44.2274L49.4036 72.7055C48.5426 73.5685 47.5381 74 46.3901 74C45.2422 74 44.2377 73.5685 43.3767 72.7055L32.1839 61.4869C31.3946 60.6958 31 59.689 31 58.4665C31 57.2439 31.3946 56.2371 32.1839 55.4461C32.9731 54.655 33.9776 54.2595 35.1973 54.2595C36.417 54.2595 37.4215 54.655 38.2108 55.4461L46.3901 63.6443Z" fill="url(#paint2_linear_178_1277)"/>
</g>
<defs>
<linearGradient id="paint0_linear_178_1277" x1="54.9965" y1="0" x2="54.9965" y2="218.989" gradientUnits="userSpaceOnUse">
<stop stop-color="#5FB1D4"/>
<stop offset="0.13" stop-color="#689FD8"/>
<stop offset="0.39" stop-color="#8171E3"/>
<stop offset="0.76" stop-color="#A928F5"/>
<stop offset="0.95" stop-color="#C000FF"/>
</linearGradient>
<linearGradient id="paint1_linear_178_1277" x1="54.9974" y1="5.91895" x2="54.9974" y2="201.345" gradientUnits="userSpaceOnUse">
<stop stop-color="white"/>
<stop offset="0.87" stop-color="#A7F5FF"/>
</linearGradient>
<linearGradient id="paint2_linear_178_1277" x1="55" y1="37" x2="55" y2="74" gradientUnits="userSpaceOnUse">
<stop stop-color="#8901F9"/>
<stop offset="1" stop-color="#7800EC"/>
</linearGradient>
<clipPath id="clip0_178_1277">
<rect width="110" height="110" fill="white"/>
</clipPath>
</defs>
</svg>
