<svg width="32" height="32" viewBox="0 0 32 32" fill="none" xmlns="http://www.w3.org/2000/svg">
<path d="M23.4 25.3931C23.4 28.3277 9 28.3277 9 25.3931C9 22.1917 12.2224 20.0254 16.2 20.0254C20.1776 20.0254 23.4 22.1917 23.4 25.3931Z" stroke="#4D5586" stroke-width="2" stroke-miterlimit="10"/>
<path d="M16.6398 3.94189H15.7598C15.2075 3.94189 14.7598 4.38961 14.7598 4.94189V19.0254C14.7598 19.5777 15.2075 20.0254 15.7598 20.0254H16.6398C17.1921 20.0254 17.6398 19.5777 17.6398 19.0254V4.94189C17.6398 4.38961 17.192 3.94189 16.6398 3.94189Z" stroke="#4D5586" stroke-width="2" stroke-miterlimit="10"/>
<path d="M7.60967 10.0981C7.75243 9.77393 7.98927 9.77393 8.13203 10.0981L8.51813 10.9648C8.66088 11.289 9.06969 11.5201 9.42659 11.4815L10.3772 11.3788C10.7309 11.3403 10.8509 11.5425 10.64 11.8282L10.0755 12.5921C9.86459 12.8778 9.86459 13.3432 10.0755 13.6289L10.64 14.3928C10.8509 14.6785 10.7341 14.8807 10.3772 14.8422L9.42659 14.7395C9.07294 14.701 8.66413 14.9353 8.51813 15.2563L8.13203 16.1229C7.98927 16.4471 7.75243 16.4471 7.60967 16.1229L7.22357 15.2563C7.08081 14.9321 6.67201 14.701 6.31836 14.7395L5.36772 14.8422C5.01407 14.8807 4.89402 14.6785 5.10492 14.3928L5.66946 13.6289C5.88035 13.3432 5.88035 12.8778 5.66946 12.5921L5.10492 11.8282C4.89402 11.5425 5.01083 11.3403 5.36772 11.3788L6.31836 11.4815C6.67201 11.5201 7.08081 11.2857 7.22357 10.9648L7.60967 10.0981Z" fill="#4D5586"/>
<path d="M27.3804 11.1375C24.2146 9.51852 21.0489 12.7564 17.6396 11.1375V5.35553C21.0489 6.97447 24.2146 3.73659 27.3804 5.35553V11.1375Z" stroke="#4D5586" stroke-width="2" stroke-miterlimit="10"/>
</svg>
