<svg width="120" height="120" viewBox="0 0 120 120" fill="none" xmlns="http://www.w3.org/2000/svg">
<g clip-path="url(#clip0_365_3292)">
<path d="M63.0231 33.929C63.0231 35.5475 61.6853 36.858 60.033 36.858C58.3808 36.858 57.043 35.5475 57.043 33.929C57.043 32.3105 58.3808 31 60.033 31C61.6853 31 63.0231 32.3105 63.0231 33.929Z" fill="#6B00E8"/>
<path d="M60.0332 36.1914V42.9118" stroke="#6B00E8" stroke-width="4" stroke-miterlimit="10"/>
<path d="M34.7172 76.9174C34.7172 77.1302 35.0202 77.6287 34.9001 77.6287H29.8404C29.7204 77.6287 29 77.1302 29 76.9174V63.0454C29 62.8325 29.7261 63.0734 29.8404 63.0734H34.9001C35.0202 63.0734 34.7172 62.8325 34.7172 63.0454V76.9174Z" fill="#4D00CB"/>
<path d="M85.7824 76.9174C85.7824 77.1302 85.4794 77.6287 85.5994 77.6287H90.6591C90.7792 77.6287 91.4995 77.1302 91.4995 76.9174V63.0454C91.4995 62.8325 90.7735 63.0734 90.6591 63.0734H85.5994C85.4794 63.0734 85.7824 62.8325 85.7824 63.0454V76.9174Z" fill="url(#paint0_linear_365_3292)"/>
<path d="M72.9817 80.6416C74.8112 80.6416 75.8174 78.9278 75.8174 77.7462V66.4895C75.8174 64.6805 73.6449 64.5405 72.9817 64.5405H48.3636C46.3969 64.5405 44.6074 65.4702 44.6074 66.4895V77.7462C44.6074 78.9446 46.5513 80.6416 48.3636 80.6416H72.9874H72.9817ZM68.448 73.3275C68.8939 72.8907 69.62 72.8907 70.0659 73.3275C70.5119 73.7643 70.5119 74.4756 70.0659 74.9124L66.6699 78.239C66.447 78.4574 66.1554 78.5694 65.8638 78.5694C65.5723 78.5694 65.2807 78.4574 65.0577 78.239C64.6118 77.8022 64.6118 77.0909 65.0577 76.6541L68.4537 73.3275H68.448ZM52.5657 71.9666C52.3427 72.185 52.0512 72.297 51.7596 72.297C51.468 72.297 51.1764 72.185 50.9535 71.9666C50.5075 71.5298 50.5075 70.8185 50.9535 70.3817L54.6982 66.7191C55.1441 66.2822 55.8702 66.2822 56.3162 66.7191C56.7621 67.1559 56.7621 67.8671 56.3162 68.304L52.5714 71.9666H52.5657ZM56.3105 78.239C56.0875 78.4574 55.7959 78.5694 55.5043 78.5694C55.2128 78.5694 54.9212 78.4574 54.6982 78.239C54.2523 77.8022 54.2523 77.0909 54.6982 76.6541L65.1778 66.3886C65.6237 65.9518 66.3498 65.9518 66.7957 66.3886C67.2417 66.8255 67.2417 67.5367 66.7957 67.9735L56.3162 78.239H56.3105Z" fill="url(#paint1_linear_365_3292)"/>
<path d="M84.1305 65.7951C83.5989 34.8587 36.8439 34.8587 36.3008 65.7951C36.3008 78.7935 36.3008 89.3334 60.2157 89.3334C84.1305 89.3334 84.1305 78.7935 84.1305 65.7951ZM71.0783 47.3867C71.0783 46.7706 71.5928 46.2666 72.2217 46.2666C72.8506 46.2666 73.3651 46.7706 73.3651 47.3867V52.987C73.3651 53.6031 72.8506 54.1071 72.2217 54.1071C71.5928 54.1071 71.0783 53.6031 71.0783 52.987V47.3867ZM46.4945 47.3867C46.4945 46.7706 47.009 46.2666 47.6379 46.2666C48.2668 46.2666 48.7813 46.7706 48.7813 47.3867V52.987C48.7813 53.6031 48.2668 54.1071 47.6379 54.1071C47.009 54.1071 46.4945 53.6031 46.4945 52.987V47.3867ZM48.364 82.8762C45.3682 82.8762 42.321 80.2832 42.321 77.7406V66.4839C42.321 63.8629 45.3911 62.2948 48.364 62.2948H72.9878C76.0522 62.2948 78.1104 63.9749 78.1104 66.4839V77.7406C78.1104 80.2216 76.0522 82.8762 72.9878 82.8762H48.364Z" fill="url(#paint2_linear_365_3292)"/>
</g>
<defs>
<linearGradient id="paint0_linear_365_3292" x1="91.4995" y1="70.2922" x2="85.5708" y2="70.2922" gradientUnits="userSpaceOnUse">
<stop stop-color="#9100FF"/>
<stop offset="1" stop-color="#9100FF"/>
</linearGradient>
<linearGradient id="paint1_linear_365_3292" x1="44.6074" y1="72.5938" x2="75.8231" y2="72.5938" gradientUnits="userSpaceOnUse">
<stop stop-color="#4D00CB"/>
<stop offset="1" stop-color="#AA00FF"/>
</linearGradient>
<linearGradient id="paint2_linear_365_3292" x1="36.3008" y1="65.9631" x2="84.1306" y2="65.9631" gradientUnits="userSpaceOnUse">
<stop stop-color="#4D00CB"/>
<stop offset="1" stop-color="#AA00FF"/>
</linearGradient>
<clipPath id="clip0_365_3292">
<rect width="62.5" height="58.3333" fill="white" transform="translate(29 31)"/>
</clipPath>
</defs>
</svg>
