<svg width="32" height="21" viewBox="0 0 32 21" fill="none" xmlns="http://www.w3.org/2000/svg">
<path d="M16.5953 2.62247C14.0426 -0.877096 8.73396 -0.873736 6.1872 2.63003C5.33289 3.80507 4.91828 5.23307 5.01336 6.673C5.10843 8.11293 5.70736 9.47661 6.70907 10.5339L16.3708 20.7319C16.4509 20.8164 16.548 20.8838 16.6559 20.9299C16.7638 20.9761 16.8802 20.9999 16.9979 21C17.1156 21.0001 17.2321 20.9764 17.34 20.9304C17.448 20.8844 17.5451 20.8171 17.6253 20.7327L27.2811 10.57C28.2933 9.50444 28.8966 8.12735 28.9879 6.67408C29.0792 5.2208 28.6528 3.78156 27.7815 2.60231C25.2022 -0.888016 19.8842 -0.853575 17.352 2.67036L16.9947 3.16849L16.5953 2.62247Z" fill="#FF0062"/>
<path d="M27.0007 10.5C30.0226 12.1348 30.9467 13.3821 30.4058 14.8685C29.5248 17.289 22.3611 16.9038 14.4053 14.0081C6.44944 11.1124 0.714143 6.80277 1.59513 4.38227C1.93131 3.45862 3.88685 3.30647 6.00073 3.5" stroke="#00FFC2"/>
<path d="M26.7253 9.73828C26.7194 9.79157 26.6355 9.82146 26.6076 9.86919C26.58 9.91652 26.5595 9.97144 26.5356 10.0193C26.5009 10.0887 26.4409 10.1525 26.3927 10.2223C26.358 10.2723 26.4872 10.1996 26.5092 10.1875C26.6209 10.1254 26.7062 10.04 26.8286 9.99289C26.8596 9.98097 27.1033 9.86391 27.0172 9.93284C26.8749 10.0467 26.7531 10.1451 26.5956 10.2463C26.3953 10.3751 26.1881 10.5549 26.0552 10.7543" stroke="#FF0062" stroke-linecap="round"/>
<path d="M27.1145 9.91016C27.1009 10.0189 26.935 10.1002 26.8815 10.1912C26.8452 10.2529 26.788 10.2494 26.7362 10.2897C26.6552 10.3527 26.4482 10.4212 26.4011 10.5155" stroke="#FF0062" stroke-linecap="round"/>
<path d="M26.6604 10.5586C26.6433 10.5778 26.6314 10.6022 26.6172 10.6234" stroke="#FF0062" stroke-linecap="round"/>
<path d="M6.85848 3.16602C6.77099 3.26444 6.77113 3.44552 6.67353 3.54313C6.61057 3.60609 6.49283 3.70442 6.44774 3.78333C6.41478 3.841 6.35412 3.86356 6.32284 3.92264C6.30163 3.96269 6.25887 4.01543 6.22676 4.04755C6.18711 4.08719 6.16666 4.14421 6.12827 4.18686C6.08203 4.23824 6.0382 4.28654 6.01538 4.355" stroke="#D87299" stroke-linecap="round"/>
<path d="M6.01538 4.35491C6.01538 4.22197 6.13822 3.98012 6.25318 3.90574C6.32018 3.86239 6.32978 3.79473 6.37328 3.7388C6.46063 3.62648 6.52956 3.40604 6.66392 3.33887" stroke="#FF0062" stroke-linecap="round"/>
<path d="M6.68544 2.9707C6.66762 3.14897 6.49906 3.40197 6.38279 3.53277C6.29897 3.62707 6.24342 3.72505 6.18823 3.83542" stroke="#D87299" stroke-linecap="round"/>
<path d="M5.96777 4.35897C5.96777 3.77526 6.26485 3.37388 6.50003 3M6.50003 3C6.62614 2.79952 7.34399 2.12401 7.5 2L6.50003 3Z" stroke="#FF0062" stroke-linecap="round"/>
<path d="M6 5.35897C6 4.77526 6.29707 4.37388 6.53226 4M6.53226 4C6.65837 3.79952 7.37622 3.12401 7.53223 3L6.53226 4Z" stroke="#FF0062" stroke-linecap="round"/>
</svg>
