<svg width="32" height="32" viewBox="0 0 32 32" fill="none" xmlns="http://www.w3.org/2000/svg">
<path d="M30 15.8863C30 15.341 29.7274 12.5042 24.3853 10.6179C24.3853 10.6179 24.3705 10.6179 24.3632 10.6179C23.0442 8.52524 21.0547 6.92629 18.6305 6.29261C16.2653 5.67366 13.8116 6.04208 11.7337 7.34629C10.5105 8.11261 9.48631 9.17366 8.70526 10.4263C8.65368 10.4263 8.60947 10.4263 8.5579 10.4263C7.84316 10.5958 7.51895 10.7063 6.91474 10.92C2.84737 12.3494 2 14.4126 2 15.8863C2 17.36 2.85474 19.4231 6.91474 20.8526C7.38631 21.0221 7.89474 21.1621 8.41789 21.3021C9.70737 23.7263 11.8663 25.6052 14.541 26.3126C15.2853 26.5116 16.0442 26.6073 16.7958 26.6073C18.4242 26.6073 20.0158 26.1505 21.4453 25.2589C23.0958 24.2273 24.3926 22.6652 25.1884 20.8158C29.1526 19.3863 30 17.3526 30 15.8863ZM12.5147 8.59155C13.7011 7.84734 15.0347 7.47155 16.3832 7.47155C17.0095 7.47155 17.6358 7.55261 18.2547 7.71471C22.5947 8.85682 25.3579 13.6463 24.4074 18.3989C24.3263 18.8263 24.2011 19.2316 24.0611 19.6294C21.8284 20.3294 18.9916 20.72 15.9926 20.72C13.6347 20.72 11.3726 20.4768 9.42 20.0347C8.63158 18.2737 8.35158 16.2326 8.76421 14.1989C9.23579 11.8263 10.6063 9.77787 12.5147 8.59155ZM7.40842 19.46C4.83684 18.5537 3.47368 17.3158 3.47368 15.8863C3.47368 14.4568 4.83684 13.2116 7.40842 12.3126C7.57789 12.2537 7.71053 12.2094 7.84316 12.1652C7.62211 12.7326 7.44527 13.3147 7.32737 13.9189C6.94421 15.8568 7.09895 17.7947 7.68105 19.5558C7.59263 19.5263 7.49684 19.5042 7.41579 19.4673L7.40842 19.46ZM20.6642 24.0063C18.9326 25.0894 16.8916 25.3989 14.9242 24.8831C13.0747 24.3968 11.52 23.2473 10.4147 21.7295C12.1463 22.0316 14.0474 22.1937 16.0074 22.1937C18.6084 22.1937 21.1063 21.9137 23.2358 21.3905C22.5726 22.4516 21.7105 23.3579 20.6716 24.0063H20.6642ZM25.7853 18.9663C25.8074 18.8705 25.8368 18.7821 25.8589 18.6863C26.2789 16.5937 26.0653 14.4937 25.3653 12.6221C27.8263 13.8231 28.5263 15.2231 28.5263 15.8863C28.5263 17.08 27.5758 18.1263 25.7853 18.9737V18.9663Z" fill="#4D5586"/>
<path d="M27.6058 9.44602C28.0847 9.44602 28.4753 8.99654 28.4753 8.45128C28.4753 7.90602 28.0847 7.45654 27.6058 7.45654C27.1269 7.45654 26.7363 7.90602 26.7363 8.45128C26.7363 8.99654 27.1269 9.44602 27.6058 9.44602Z" fill="#4D5586"/>
<path d="M5.23471 22.7759C4.75576 22.7759 4.36523 23.2254 4.36523 23.7706C4.36523 24.3159 4.75576 24.7654 5.23471 24.7654C5.71366 24.7654 6.10418 24.3159 6.10418 23.7706C6.10418 23.2254 5.71366 22.7759 5.23471 22.7759Z" fill="#4D5586"/>
</svg>
