<svg width="24" height="21" viewBox="0 0 24 21" fill="none" xmlns="http://www.w3.org/2000/svg">
<path d="M12.6041 2.19264C13.1822 1.54107 13.8851 1.01197 14.6711 0.6366C15.4572 0.261227 16.3105 0.0471911 17.1806 0.00713714C18.0508 -0.0329168 18.9201 0.101823 19.7373 0.403398C20.5545 0.704973 21.303 1.16727 21.9385 1.76297C22.5741 2.35867 23.0838 3.0757 23.4375 3.8717C23.7913 4.6677 23.982 5.52653 23.9982 6.39745C24.0145 7.26837 23.8561 8.13372 23.5323 8.94238C23.2085 9.75104 22.726 10.4866 22.1131 11.1056L12.5331 20.7776C12.4634 20.8481 12.3804 20.904 12.2889 20.9422C12.1974 20.9803 12.0992 21 12.0001 21C11.901 21 11.8028 20.9803 11.7114 20.9422C11.6199 20.904 11.5369 20.8481 11.4671 20.7776L1.88712 11.1056C0.725108 9.93247 0.0516695 8.362 0.00285185 6.71148C-0.0459658 5.06096 0.533477 3.45343 1.62412 2.21364C4.21212 -0.72936 8.79412 -0.73936 11.3961 2.19264L12.0001 2.87264L12.6041 2.19264ZM21.2501 3.20364C20.7802 2.66947 20.2021 2.2413 19.5541 1.94749C18.9062 1.65369 18.2032 1.50096 17.4917 1.49945C16.7803 1.49794 16.0766 1.64767 15.4274 1.93871C14.7782 2.22976 14.1983 2.65548 13.7261 3.18764L12.5601 4.50064C12.4898 4.57995 12.4034 4.64343 12.3067 4.68691C12.21 4.73039 12.1051 4.75287 11.9991 4.75287C11.8931 4.75287 11.7883 4.73039 11.6916 4.68691C11.5949 4.64343 11.5085 4.57995 11.4381 4.50064L10.2731 3.18764C9.82897 2.68229 9.28777 2.27137 8.68168 1.9793C8.07558 1.68723 7.41696 1.51998 6.74495 1.48748C6.07294 1.45498 5.40126 1.5579 4.76981 1.79011C4.13836 2.02232 3.56003 2.3791 3.06919 2.83924C2.57834 3.29937 2.185 3.85348 1.91253 4.46863C1.64007 5.08379 1.49404 5.74744 1.48312 6.42014C1.4722 7.09285 1.59661 7.76088 1.84897 8.38456C2.10132 9.00823 2.47647 9.57481 2.95212 10.0506L12.0001 19.1836L21.0471 10.0506C21.942 9.14734 22.4606 7.93808 22.4983 6.66716C22.536 5.39623 22.0899 4.15837 21.2501 3.20364Z" fill="white"/>
</svg>
