<svg xmlns="http://www.w3.org/2000/svg" height="24" viewBox="0 96 960 960" width="24" fill="white"><path d="m261.5 870.5 113-45.5q-15.5-45.5-25.75-92t-13.25-93.5l-60 39q-7 5-10.5 11.5t-3.5 14.5v166Zm134.5-49h168Q582.5 766 594.5 708t12-117q0-93-26.5-165.25T480 267.5q-73.5 86-99.5 158.25T354.5 591q0 59 11.5 117t30 113.5Zm84-235q-22 0-36.25-14.25T429.5 536q0-22 14.25-36.75T480 484.5q22 0 36.75 14.75T531.5 536q0 22-14.75 36.25T480 586.5Zm219.5 284v-165q0-8-3.75-15t-10.25-12l-60-39q-4 47-16.75 104.25T586.5 825.5l113 45ZM480 235.5Q558.5 315 593.5 401t35 186.5q0 6.5.25 13.75T628 615l68 47q11.5 7.5 18.5 19.25t7 24.25v197l-147-59h-189l-146 59v-198q0-12.5 6-24.25T263 661l69-47q0-5.5.25-12.75t.25-13.75Q332.5 487 367 401t113-165.5Z"/></svg>