<svg xmlns="http://www.w3.org/2000/svg" height="24" viewBox="0 96 960 960" width="24" fill="white"><path d="M239.5 902.5V707q0-15 7-28.5T266 657l55-37.5q6 67.5 16.5 117.5t34 112.5l-132 53Zm146.5-69q-20.5-59.5-32-122T342.5 588q0-100 31.75-182T480 252q74 72 106.25 154t32.25 182q0 61.5-12 123.5t-32.5 122H386Zm94-247q22 0 36.75-14.25T531.5 536q0-22-14.75-36.75T480 484.5q-22 0-36.25 14.75T429.5 536q0 22 14.25 36.25T480 586.5Zm240.5 316-132-52q22.5-62.5 33-113T638 620l55 38q12.5 8 20 21.5t7.5 28.5v194.5Z"/></svg>