<?xml version="1.0" encoding="utf-8"?>
<!-- Generator: Adobe Illustrator 28.2.0, SVG Export Plug-In . SVG Version: 6.00 Build 0)  -->
<svg version="1.1" id="OBJECTS" xmlns="http://www.w3.org/2000/svg" xmlns:xlink="http://www.w3.org/1999/xlink" x="0px" y="0px"
	 viewBox="0 0 299.94 56.89" style="enable-background:new 0 0 299.94 56.89;" xml:space="preserve">
<style type="text/css">
	.st0{fill:#FFFFFF;}
	.st1{fill:#FF3E63;}
	.st2{fill:#FFFFFF;}
</style>
<g>
	<polygon class="st0" points="266.11,46.99 280.28,46.99 280.28,41.9 270.16,41.9 	"/>
	<polygon class="st0" points="12.48,52.99 27.44,52.99 27.44,54.78 14.37,54.78 	"/>
	<polygon class="st0" points="271.13,22.34 286.09,22.34 286.09,25.94 272.46,25.94 	"/>
	<g>
		<polygon class="st1" points="38.58,13.12 5.72,13.12 5.72,14.18 38.58,14.18 38.58,13.12 		"/>
	</g>
	<g>
		<polygon class="st0" points="31.07,8.33 16.1,8.33 16.1,4.74 29.17,4.74 		"/>
		<rect x="13.24" y="4.74" class="st0" width="1.49" height="3.59"/>
	</g>
	<polygon class="st0" points="14.45,41.56 21.29,41.56 21.29,37.97 11.71,37.97 	"/>
	<g>
		<polygon class="st2" points="30.63,43.08 6.76,43.08 6.76,43.71 30.63,43.71 30.63,43.08 		"/>
	</g>
	<g>
		<polygon class="st2" points="111.7,4.37 83.24,4.37 83.24,5.63 111.7,5.63 111.7,4.37 		"/>
	</g>
	<g>
		<polygon class="st2" points="106.32,32.84 77.87,32.84 77.87,34.11 106.32,34.11 106.32,32.84 		"/>
	</g>
	<g>
		<polygon class="st2" points="166.61,8.59 138.15,8.59 138.15,9.86 166.61,9.86 166.61,8.59 		"/>
	</g>
	<g>
		<polygon class="st2" points="292.23,51.18 260.71,51.18 260.71,55.67 292.23,55.67 292.23,51.18 		"/>
	</g>
	<g>
		<polygon class="st2" points="191.69,3.12 171.13,3.12 171.13,5 191.69,5 191.69,3.12 		"/>
	</g>
	<g>
		<polygon class="st2" points="241.17,23.12 238.32,23.12 238.32,25 241.17,25 241.17,23.12 		"/>
	</g>
	<g>
		<polygon class="st2" points="218.03,50.52 205.49,50.52 205.49,53.58 218.03,53.58 218.03,50.52 		"/>
	</g>
	<g>
		<polygon class="st2" points="190.94,6.54 166.52,6.54 166.52,7.05 190.94,7.05 190.94,6.54 		"/>
	</g>
	<g>
		<g>
			<polygon class="st2" points="275.74,4.82 246.93,4.82 246.93,6.85 275.74,6.85 275.74,4.82 			"/>
		</g>
		<g>
			<polygon class="st2" points="285.29,7.5 256.83,7.5 256.83,8.77 285.29,8.77 285.29,7.5 			"/>
		</g>
	</g>
	<rect x="138.15" y="50.52" class="st2" width="14.23" height="1.53"/>
	<rect x="171.13" y="44.45" class="st2" width="10.28" height="2.55"/>
	<rect x="205.49" y="18.93" class="st2" width="13.81" height="1.05"/>
	<rect x="62.44" y="7.05" class="st2" width="11.91" height="1.28"/>
	<g>
		<polygon class="st1" points="299.94,48.4 201.99,48.4 201.99,49.11 299.94,49.11 299.94,48.4 		"/>
	</g>
	<rect y="9.5" class="st2" width="97.94" height="0.71"/>
	<g>
		<g>
			<g>
				<path class="st1" d="M53.09,43.6v11.99H18.84V1.09H52.7v11.99H31.3v9.03h19.46v11.83H31.3v9.65H53.09z"/>
				<path class="st1" d="M83.14,37.68h-5.92v17.91H64.77V1.09h21.8c10.35,0,18.68,8.33,18.68,18.68c0,6.7-4.05,12.77-10.04,15.8
					l11.6,20.01H93.42L83.14,37.68z M77.22,26.78h9.34c3.43,0,6.23-3.04,6.23-7.01s-2.8-7.01-6.23-7.01h-9.34V26.78z"/>
				<path class="st1" d="M135.68,37.68h-5.92v17.91h-12.46V1.09h21.8c10.35,0,18.68,8.33,18.68,18.68c0,6.7-4.05,12.77-10.04,15.8
					l11.6,20.01h-13.39L135.68,37.68z M129.77,26.78h9.34c3.43,0,6.23-3.04,6.23-7.01s-2.8-7.01-6.23-7.01h-9.34V26.78z"/>
				<path class="st1" d="M166.74,28.34C166.74,12.3,179.43,0,195.08,0c15.65,0,28.34,12.3,28.34,28.34s-12.69,28.34-28.34,28.34
					C179.43,56.68,166.74,44.37,166.74,28.34z M210.96,28.34c0-9.73-7.01-16.19-15.88-16.19s-15.88,6.46-15.88,16.19
					s7.01,16.19,15.88,16.19S210.96,38.07,210.96,28.34z"/>
				<path class="st1" d="M253.46,37.68h-5.92v17.91h-12.46V1.09h21.8c10.35,0,18.68,8.33,18.68,18.68c0,6.7-4.05,12.77-10.04,15.8
					l11.6,20.01h-13.39L253.46,37.68z M247.54,26.78h9.34c3.43,0,6.23-3.04,6.23-7.01s-2.8-7.01-6.23-7.01h-9.34V26.78z"/>
			</g>
		</g>
	</g>
	<g>
		<g>
			<g>
				<path class="st2" d="M57.73,43.6v11.99H23.48V1.09h33.87v11.99H35.93v9.03H55.4v11.83H35.93v9.65H57.73z"/>
				<path class="st2" d="M87.78,37.68h-5.92v17.91H69.4V1.09h21.8c10.35,0,18.68,8.33,18.68,18.68c0,6.7-4.05,12.77-10.04,15.8
					l11.6,20.01H98.05L87.78,37.68z M81.86,26.78h9.34c3.43,0,6.23-3.04,6.23-7.01s-2.8-7.01-6.23-7.01h-9.34V26.78z"/>
				<path class="st2" d="M140.32,37.68h-5.92v17.91h-12.46V1.09h21.8c10.35,0,18.68,8.33,18.68,18.68c0,6.7-4.05,12.77-10.04,15.8
					l11.6,20.01H150.6L140.32,37.68z M134.4,26.78h9.34c3.43,0,6.23-3.04,6.23-7.01s-2.8-7.01-6.23-7.01h-9.34V26.78z"/>
				<path class="st2" d="M171.38,28.34C171.38,12.3,184.07,0,199.71,0c15.65,0,28.34,12.3,28.34,28.34s-12.69,28.34-28.34,28.34
					C184.07,56.68,171.38,44.37,171.38,28.34z M215.6,28.34c0-9.73-7.01-16.19-15.88-16.19s-15.88,6.46-15.88,16.19
					s7.01,16.19,15.88,16.19S215.6,38.07,215.6,28.34z"/>
				<path class="st2" d="M258.1,37.68h-5.92v17.91h-12.46V1.09h21.8c10.35,0,18.68,8.33,18.68,18.68c0,6.7-4.05,12.77-10.04,15.8
					l11.6,20.01h-13.39L258.1,37.68z M252.18,26.78h9.34c3.43,0,6.23-3.04,6.23-7.01s-2.8-7.01-6.23-7.01h-9.34V26.78z"/>
			</g>
		</g>
	</g>
	<g>
		<g>
			<g>
				<path class="st1" d="M53.09,43.6v11.99H18.84V1.09H52.7v11.99H31.3v9.03h19.46v11.83H31.3v9.65H53.09z"/>
				<path class="st1" d="M83.14,37.68h-5.92v17.91H64.77V1.09h21.8c10.35,0,18.68,8.33,18.68,18.68c0,6.7-4.05,12.77-10.04,15.8
					l11.6,20.01H93.42L83.14,37.68z M77.22,26.78h9.34c3.43,0,6.23-3.04,6.23-7.01s-2.8-7.01-6.23-7.01h-9.34V26.78z"/>
				<path class="st1" d="M135.68,37.68h-5.92v17.91h-12.46V1.09h21.8c10.35,0,18.68,8.33,18.68,18.68c0,6.7-4.05,12.77-10.04,15.8
					l11.6,20.01h-13.39L135.68,37.68z M129.77,26.78h9.34c3.43,0,6.23-3.04,6.23-7.01s-2.8-7.01-6.23-7.01h-9.34V26.78z"/>
				<path class="st1" d="M166.74,28.34C166.74,12.3,179.43,0,195.08,0c15.65,0,28.34,12.3,28.34,28.34s-12.69,28.34-28.34,28.34
					C179.43,56.68,166.74,44.37,166.74,28.34z M210.96,28.34c0-9.73-7.01-16.19-15.88-16.19s-15.88,6.46-15.88,16.19
					s7.01,16.19,15.88,16.19S210.96,38.07,210.96,28.34z"/>
				<path class="st1" d="M253.46,37.68h-5.92v17.91h-12.46V1.09h21.8c10.35,0,18.68,8.33,18.68,18.68c0,6.7-4.05,12.77-10.04,15.8
					l11.6,20.01h-13.39L253.46,37.68z M247.54,26.78h9.34c3.43,0,6.23-3.04,6.23-7.01s-2.8-7.01-6.23-7.01h-9.34V26.78z"/>
			</g>
		</g>
	</g>
	<g>
		<g>
			<g>
				<path class="st2" d="M57.73,43.6v11.99H23.48V1.09h33.87v11.99H35.93v9.03H55.4v11.83H35.93v9.65H57.73z"/>
				<path class="st2" d="M87.78,37.68h-5.92v17.91H69.4V1.09h21.8c10.35,0,18.68,8.33,18.68,18.68c0,6.7-4.05,12.77-10.04,15.8
					l11.6,20.01H98.05L87.78,37.68z M81.86,26.78h9.34c3.43,0,6.23-3.04,6.23-7.01s-2.8-7.01-6.23-7.01h-9.34V26.78z"/>
				<path class="st2" d="M140.32,37.68h-5.92v17.91h-12.46V1.09h21.8c10.35,0,18.68,8.33,18.68,18.68c0,6.7-4.05,12.77-10.04,15.8
					l11.6,20.01H150.6L140.32,37.68z M134.4,26.78h9.34c3.43,0,6.23-3.04,6.23-7.01s-2.8-7.01-6.23-7.01h-9.34V26.78z"/>
				<path class="st2" d="M171.38,28.34C171.38,12.3,184.07,0,199.71,0c15.65,0,28.34,12.3,28.34,28.34s-12.69,28.34-28.34,28.34
					C184.07,56.68,171.38,44.37,171.38,28.34z M215.6,28.34c0-9.73-7.01-16.19-15.88-16.19s-15.88,6.46-15.88,16.19
					s7.01,16.19,15.88,16.19S215.6,38.07,215.6,28.34z"/>
				<path class="st2" d="M258.1,37.68h-5.92v17.91h-12.46V1.09h21.8c10.35,0,18.68,8.33,18.68,18.68c0,6.7-4.05,12.77-10.04,15.8
					l11.6,20.01h-13.39L258.1,37.68z M252.18,26.78h9.34c3.43,0,6.23-3.04,6.23-7.01s-2.8-7.01-6.23-7.01h-9.34V26.78z"/>
			</g>
		</g>
	</g>
</g>
</svg>
