<svg width="100%" height="100%" viewBox="0 0 410 149" fill="none" xmlns="http://www.w3.org/2000/svg">
<path d="M115.67 14.99H66.66L32.19 64.3H68.09L83 40.89V91.85H50.53L58.07 80.02H21.2L11.49 93.91V122.27H80.53V130.76H115.67V122.27H132.52V91.85H115.67V14.99Z" fill="#87E3CE"/>
<path d="M115.67 140.76H80.53V148.98H115.67V140.76Z" fill="#87E3CE"/>
<path d="M207.53 115.49C203.55 115.49 200.1 114.7 197.15 113.13C194.2 111.56 191.94 109.6 190.37 107.27C188.79 104.94 187.53 101.86 186.57 98.02C185.61 94.19 184.99 90.49 184.72 86.92C184.44 83.36 184.31 79.11 184.31 74.18C184.31 69.25 184.44 65.14 184.71 61.61H150.29C149.96 65.62 149.79 69.8 149.79 74.18C149.79 85.14 150.82 94.97 152.87 103.67C154.92 112.37 158.14 120.14 162.53 126.99C166.91 133.84 172.91 139.11 180.51 142.81C188.11 146.51 197.12 148.36 207.53 148.36C217.94 148.36 226.95 146.51 234.55 142.81C242.15 139.11 248.14 133.84 252.53 126.99C255.07 123.02 257.21 118.73 258.97 114.14H215.64C213.23 115.04 210.53 115.48 207.53 115.48V115.49Z" fill="#87E3CE"/>
<path d="M190.37 41.1C191.94 38.77 194.2 36.82 197.15 35.24C200.1 33.67 203.55 32.88 207.53 32.88C211.51 32.88 214.96 33.67 217.91 35.24C220.85 36.82 223.11 38.77 224.69 41.1C226.27 43.43 227.53 46.51 228.49 50.35C229.45 54.19 230.07 57.89 230.34 61.45C230.61 65.01 230.75 69.26 230.75 74.19C230.75 79.12 230.61 83.37 230.34 86.93C230.06 90.49 229.45 94.19 228.49 98.03C228.3 98.79 228.09 99.52 227.88 100.22H262.94C264.49 92.4 265.28 83.73 265.28 74.2C265.28 63.24 264.25 53.41 262.19 44.71C260.14 36.01 256.92 28.24 252.53 21.39C248.14 14.54 242.15 9.27 234.55 5.57C226.94 1.87 217.94 0.0199966 207.53 0.0199966C197.12 0.0199966 188.11 1.87 180.51 5.57C172.91 9.27 166.91 14.54 162.53 21.39C158.14 28.24 154.93 36.02 152.87 44.71C152.8 44.99 152.75 45.27 152.69 45.55H188.1C188.77 43.85 189.53 42.37 190.38 41.11L190.37 41.1Z" fill="#87E3CE"/>
<path d="M58.38 64.3H22.48L11.49 80.02H48.36L58.38 64.3Z" fill="#87E3CE"/>
<path d="M122.82 130.76H87.68V140.76H122.82V130.76Z" fill="#87E3CE"/>
<path d="M127.47 1.03H88.22L78.46 14.99H127.47V1.03Z" fill="#87E3CE"/>
<path d="M392.95 14.99H343.94L309.47 64.3H345.37L360.28 40.89V91.85H327.81L335.35 80.02H298.48L288.77 93.91V122.27H357.81V130.76H392.95V122.27H409.8V91.85H392.95V14.99Z" fill="#87E3CE"/>
<path d="M392.95 140.76H357.81V148.98H392.95V140.76Z" fill="#87E3CE"/>
<path d="M335.66 64.3H299.76L288.77 80.02H325.64L335.66 64.3Z" fill="#87E3CE"/>
<path d="M400.1 130.76H364.96V140.76H400.1V130.76Z" fill="#87E3CE"/>
<path d="M404.74 1.03H365.49L355.73 14.99H404.74V1.03Z" fill="#87E3CE"/>
<path d="M177.08 61.44C177.35 57.88 177.97 54.18 178.93 50.34C179.37 48.58 179.88 46.98 180.45 45.53H145.04C143.91 50.52 143.11 55.88 142.64 61.61H177.06C177.06 61.55 177.06 61.49 177.07 61.44H177.08Z" fill="#87E3CE"/>
<path d="M269.63 100.21H234.57C233.7 103.04 232.64 105.4 231.38 107.27C229.8 109.6 227.54 111.55 224.6 113.13C223.87 113.52 223.12 113.86 222.33 114.15H265.66C266.93 110.82 268.02 107.34 268.88 103.68C269.15 102.55 269.4 101.39 269.63 100.22V100.21Z" fill="#87E3CE"/>
<path d="M104.18 14.99H55.18L20.7 64.3H56.6L71.51 40.89V91.85H39.04L46.58 80.02H9.71L0 93.91V122.27H69.05V130.76H104.18V122.27H121.03V91.85H104.18V14.99Z" fill="#C0283F"/>
<path d="M104.19 140.76H69.05V148.98H104.19V140.76Z" fill="#C0283F"/>
<path d="M196.04 115.49C192.06 115.49 188.61 114.7 185.66 113.13C182.71 111.56 180.45 109.6 178.88 107.27C177.3 104.94 176.04 101.86 175.08 98.02C174.12 94.19 173.5 90.49 173.23 86.92C172.95 83.36 172.82 79.11 172.82 74.18C172.82 69.25 172.95 65.14 173.22 61.61H138.8C138.47 65.62 138.3 69.8 138.3 74.18C138.3 85.14 139.33 94.97 141.38 103.67C143.43 112.37 146.65 120.14 151.04 126.99C155.42 133.84 161.42 139.11 169.02 142.81C176.62 146.51 185.63 148.36 196.04 148.36C206.45 148.36 215.46 146.51 223.06 142.81C230.66 139.11 236.65 133.84 241.04 126.99C243.58 123.02 245.72 118.73 247.48 114.14H204.15C201.74 115.04 199.04 115.48 196.04 115.48V115.49Z" fill="#C0283F"/>
<path d="M178.88 41.1C180.45 38.77 182.71 36.82 185.66 35.24C188.61 33.67 192.06 32.88 196.04 32.88C200.02 32.88 203.47 33.67 206.42 35.24C209.36 36.82 211.62 38.77 213.2 41.1C214.78 43.43 216.04 46.51 217 50.35C217.96 54.19 218.58 57.89 218.85 61.45C219.12 65.01 219.26 69.26 219.26 74.19C219.26 79.12 219.12 83.37 218.85 86.93C218.57 90.49 217.96 94.19 217 98.03C216.81 98.79 216.6 99.52 216.39 100.22H251.45C253 92.4 253.79 83.73 253.79 74.2C253.79 63.24 252.76 53.41 250.7 44.71C248.65 36.01 245.43 28.24 241.04 21.39C236.65 14.54 230.66 9.27 223.06 5.57C215.45 1.87 206.45 0.0199966 196.04 0.0199966C185.63 0.0199966 176.62 1.87 169.02 5.57C161.42 9.27 155.42 14.54 151.04 21.39C146.65 28.24 143.44 36.02 141.38 44.71C141.31 44.99 141.26 45.27 141.2 45.55H176.61C177.28 43.85 178.04 42.37 178.89 41.11L178.88 41.1Z" fill="#C0283F"/>
<path d="M46.89 64.3H10.99L0 80.02H36.87L46.89 64.3Z" fill="#C0283F"/>
<path d="M111.33 130.76H76.19V140.76H111.33V130.76Z" fill="#C0283F"/>
<path d="M115.98 1.03H76.73L66.97 14.99H115.98V1.03Z" fill="#C0283F"/>
<path d="M381.46 14.99H332.45L297.98 64.3H333.88L348.79 40.89V91.85H316.32L323.86 80.02H286.99L277.28 93.91V122.27H346.32V130.76H381.46V122.27H398.31V91.85H381.46V14.99Z" fill="#C0283F"/>
<path d="M381.46 140.76H346.32V148.98H381.46V140.76Z" fill="#C0283F"/>
<path d="M324.17 64.3H288.27L277.28 80.02H314.15L324.17 64.3Z" fill="#C0283F"/>
<path d="M388.61 130.76H353.47V140.76H388.61V130.76Z" fill="#C0283F"/>
<path d="M393.25 1.03H354L344.25 14.99H393.25V1.03Z" fill="#C0283F"/>
<path d="M165.59 61.44C165.86 57.88 166.48 54.18 167.44 50.34C167.88 48.58 168.39 46.98 168.96 45.53H133.55C132.42 50.52 131.62 55.88 131.15 61.61H165.57C165.57 61.55 165.57 61.49 165.58 61.44H165.59Z" fill="#C0283F"/>
<path d="M258.14 100.21H223.08C222.21 103.04 221.15 105.4 219.89 107.27C218.31 109.6 216.05 111.55 213.11 113.13C212.38 113.52 211.63 113.86 210.84 114.15H254.17C255.44 110.82 256.53 107.34 257.39 103.68C257.66 102.55 257.91 101.39 258.14 100.22V100.21Z" fill="#C0283F"/>
<path d="M109.24 14.99H60.23L25.76 64.3H61.66L76.57 40.89V91.85H44.1L51.64 80.02H14.77L5.06 93.91V122.27H74.1V130.76H109.24V122.27H126.09V91.85H109.24V14.99Z" fill="white"/>
<path d="M109.24 140.76H74.1V148.98H109.24V140.76Z" fill="white"/>
<path d="M201.09 115.49C197.11 115.49 193.66 114.7 190.71 113.13C187.76 111.56 185.5 109.6 183.93 107.27C182.35 104.94 181.09 101.86 180.13 98.02C179.17 94.19 178.55 90.49 178.28 86.92C178 83.36 177.87 79.11 177.87 74.18C177.87 69.25 178 65.14 178.27 61.61H143.85C143.52 65.62 143.35 69.8 143.35 74.18C143.35 85.14 144.38 94.97 146.43 103.67C148.48 112.37 151.7 120.14 156.09 126.99C160.47 133.84 166.47 139.11 174.07 142.81C181.67 146.51 190.68 148.36 201.09 148.36C211.5 148.36 220.51 146.51 228.11 142.81C235.71 139.11 241.7 133.84 246.09 126.99C248.63 123.02 250.77 118.73 252.53 114.14H209.2C206.79 115.04 204.09 115.48 201.09 115.48V115.49Z" fill="white"/>
<path d="M183.94 41.1C185.51 38.77 187.77 36.82 190.72 35.24C193.67 33.67 197.12 32.88 201.1 32.88C205.08 32.88 208.53 33.67 211.48 35.24C214.42 36.82 216.68 38.77 218.26 41.1C219.84 43.43 221.1 46.51 222.06 50.35C223.02 54.19 223.64 57.89 223.91 61.45C224.18 65.01 224.32 69.26 224.32 74.19C224.32 79.12 224.18 83.37 223.91 86.93C223.63 90.49 223.02 94.19 222.06 98.03C221.87 98.79 221.66 99.52 221.45 100.22H256.51C258.06 92.4 258.85 83.73 258.85 74.2C258.85 63.24 257.82 53.41 255.76 44.71C253.71 36.01 250.49 28.24 246.1 21.39C241.71 14.54 235.72 9.27 228.12 5.57C220.51 1.87 211.51 0.0199966 201.1 0.0199966C190.69 0.0199966 181.68 1.87 174.08 5.57C166.48 9.27 160.48 14.54 156.1 21.39C151.71 28.24 148.5 36.02 146.44 44.71C146.37 44.99 146.32 45.27 146.26 45.55H181.67C182.34 43.85 183.1 42.37 183.95 41.11L183.94 41.1Z" fill="white"/>
<path d="M51.95 64.3H16.05L5.06 80.02H41.93L51.95 64.3Z" fill="white"/>
<path d="M116.39 130.76H81.25V140.76H116.39V130.76Z" fill="white"/>
<path d="M121.03 1.03H81.78L72.02 14.99H121.03V1.03Z" fill="white"/>
<path d="M386.52 14.99H337.51L303.04 64.3H338.94L353.85 40.89V91.85H321.38L328.92 80.02H292.05L282.34 93.91V122.27H351.38V130.76H386.52V122.27H403.37V91.85H386.52V14.99Z" fill="white"/>
<path d="M386.52 140.76H351.38V148.98H386.52V140.76Z" fill="white"/>
<path d="M329.23 64.3H293.33L282.34 80.02H319.21L329.23 64.3Z" fill="white"/>
<path d="M393.67 130.76H358.53V140.76H393.67V130.76Z" fill="white"/>
<path d="M398.31 1.03H359.06L349.3 14.99H398.31V1.03Z" fill="white"/>
<path d="M170.65 61.44C170.92 57.88 171.54 54.18 172.5 50.34C172.94 48.58 173.45 46.98 174.02 45.53H138.61C137.48 50.52 136.68 55.88 136.21 61.61H170.63C170.63 61.55 170.63 61.49 170.64 61.44H170.65Z" fill="white"/>
<path d="M263.2 100.21H228.14C227.27 103.04 226.21 105.4 224.95 107.27C223.37 109.6 221.11 111.55 218.17 113.13C217.44 113.52 216.69 113.86 215.9 114.15H259.23C260.5 110.82 261.59 107.34 262.45 103.68C262.72 102.55 262.97 101.39 263.2 100.22V100.21Z" fill="white"/>
</svg>
