<?xml version="1.0" encoding="utf-8"?>
<!-- Generator: Adobe Illustrator 28.2.0, SVG Export Plug-In . SVG Version: 6.00 Build 0)  -->
<svg version="1.1" id="OBJECTS" xmlns="http://www.w3.org/2000/svg" xmlns:xlink="http://www.w3.org/1999/xlink" x="0px" y="0px"
	 viewBox="0 0 298.85 106.65" style="enable-background:new 0 0 298.85 106.65;" xml:space="preserve">
<style type="text/css">
	.st0{fill:#FFFFFF;}
	.st1{fill:#FF3E63;}
	.st2{fill:#FFFFFF;}
</style>
<g>
	<polygon class="st0" points="33.91,47.8 19.73,47.8 19.73,42.7 33.16,42.7 	"/>
	<g>
		<polygon class="st1" points="47.17,55.35 13.45,55.35 13.45,58.72 47.17,58.72 47.17,55.35 		"/>
	</g>
	<g>
		<polygon class="st2" points="57.61,52.93 24.75,52.93 24.75,53.98 57.61,53.98 57.61,52.93 		"/>
	</g>
	<g>
		<polygon class="st1" points="298.85,55.32 265.99,55.32 265.99,56.38 298.85,56.38 298.85,55.32 		"/>
	</g>
	<g>
		<polygon class="st2" points="288.83,58.59 259.6,58.59 259.6,61.12 288.83,61.12 288.83,58.59 		"/>
	</g>
	<g>
		<rect x="220.65" y="13.3" class="st0" width="24.19" height="2.37"/>
	</g>
	<g>
		<polygon class="st1" points="234.78,16.3 214.01,16.3 214.01,17.67 234.78,17.67 234.78,16.3 		"/>
	</g>
	<g>
		<polygon class="st2" points="68.23,24.71 27.44,24.71 27.44,30.08 68.23,30.08 68.23,24.71 		"/>
	</g>
	<g>
		<g>
			<polygon class="st1" points="35.74,89.46 22.07,89.46 22.07,90.49 35.74,90.49 35.74,89.46 			"/>
		</g>
		<g>
			<polygon class="st1" points="42.4,89.46 37.53,89.46 37.53,90.49 42.4,90.49 42.4,89.46 			"/>
		</g>
	</g>
	<g>
		<rect x="208.44" y="32.4" class="st0" width="19.29" height="3.72"/>
	</g>
	<g>
		<polygon class="st2" points="57.57,21.51 33.14,21.51 33.14,22.02 57.57,22.02 57.57,21.51 		"/>
	</g>
	<g>
		<polygon class="st1" points="234.78,37.99 206.53,37.99 206.53,39.33 234.78,39.33 234.78,37.99 		"/>
	</g>
	<g>
		<rect x="228.68" y="30.35" class="st0" width="9.25" height="1.58"/>
	</g>
	<g>
		<polygon class="st2" points="94.92,4.15 54.13,4.15 54.13,9.52 94.92,9.52 94.92,4.15 		"/>
	</g>
	<g>
		<polygon class="st1" points="96.62,3.12 82.95,3.12 82.95,4.15 96.62,4.15 96.62,3.12 		"/>
	</g>
	<g>
		<polygon class="st2" points="194.78,6.24 154,6.24 154,11.61 194.78,11.61 194.78,6.24 		"/>
	</g>
	<g>
		<polygon class="st1" points="196.48,5.21 182.81,5.21 182.81,6.24 196.48,6.24 196.48,5.21 		"/>
	</g>
	<g>
		<rect x="247.54" y="6.55" class="st0" width="19.29" height="3.71"/>
	</g>
	<g>
		<polygon class="st2" points="72.26,12.78 47.83,12.78 47.83,13.3 72.26,13.3 72.26,12.78 		"/>
	</g>
	<g>
		<polygon class="st1" points="262.5,89.82 234.26,89.82 234.26,91.16 262.5,91.16 262.5,89.82 		"/>
	</g>
	<g>
		<rect x="267.77" y="4.5" class="st0" width="9.25" height="1.58"/>
	</g>
	<rect x="110.11" y="30.08" class="st2" width="14.86" height="4.18"/>
	<rect x="136.98" y="39.33" class="st2" width="14.86" height="1.5"/>
	<rect x="135.4" y="72.77" class="st2" width="18.6" height="1.26"/>
	<rect x="165.75" y="96.16" class="st2" width="30.73" height="5.37"/>
	<rect x="129.71" y="0.99" class="st2" width="9.49" height="4.22"/>
	<rect x="65.53" y="27.39" class="st2" width="10.12" height="0"/>
	<rect x="52.25" y="56.38" class="st2" width="9.8" height="3.48"/>
	<rect x="89.78" y="96.16" class="st2" width="16.32" height="5.37"/>
	<rect x="201.8" y="74.03" class="st2" width="6.64" height="2.85"/>
	<rect x="118.96" y="96.16" class="st2" width="27.82" height="1.58"/>
	<rect y="75.45" class="st2" width="97.94" height="0.71"/>
	<g>
		<rect x="154" y="104.03" class="st2" width="97.94" height="0.71"/>
	</g>
	<g>
		<g>
			<g>
				<path class="st1" d="M106.13,88.01H95.9v16.37H72.22V88.01H25.73V66.37l32.6-64.33h25.15l-32.6,64.33h21.34V44.44H95.9v21.93
					h10.23V88.01z"/>
				<path class="st1" d="M111.54,53.21C111.54,21.64,126.74,0,153.2,0s41.67,21.64,41.67,53.21s-15.2,53.21-41.67,53.21
					S111.54,84.79,111.54,53.21z M171.48,53.21c0-19.74-5.99-30.41-18.27-30.41c-12.28,0-18.27,10.67-18.27,30.41
					s5.99,30.41,18.27,30.41C165.48,83.62,171.48,72.95,171.48,53.21z"/>
				<path class="st1" d="M282.14,88.01h-10.23v16.37h-23.68V88.01h-46.49V66.37l32.6-64.33h25.15l-32.6,64.33h21.34V44.44h23.68
					v21.93h10.23V88.01z"/>
			</g>
		</g>
	</g>
	<g>
		<g>
			<g>
				<path class="st2" d="M110.77,88.01h-10.23v16.37H76.85V88.01H30.36V66.37l32.6-64.33h25.15l-32.6,64.33h21.34V44.44h23.68v21.93
					h10.23V88.01z"/>
				<path class="st2" d="M116.17,53.21c0-31.58,15.2-53.21,41.67-53.21c26.46,0,41.67,21.64,41.67,53.21s-15.2,53.21-41.67,53.21
					C131.38,106.43,116.17,84.79,116.17,53.21z M176.11,53.21c0-19.74-5.99-30.41-18.27-30.41c-12.28,0-18.27,10.67-18.27,30.41
					s5.99,30.41,18.27,30.41C170.12,83.62,176.11,72.95,176.11,53.21z"/>
				<path class="st2" d="M286.78,88.01h-10.23v16.37h-23.68V88.01h-46.49V66.37l32.6-64.33h25.15l-32.6,64.33h21.34V44.44h23.68
					v21.93h10.23V88.01z"/>
			</g>
		</g>
	</g>
	<g>
		<g>
			<g>
				<path class="st1" d="M106.13,88.01H95.9v16.37H72.22V88.01H25.73V66.37l32.6-64.33h25.15l-32.6,64.33h21.34V44.44H95.9v21.93
					h10.23V88.01z"/>
				<path class="st1" d="M111.54,53.21C111.54,21.64,126.74,0,153.2,0s41.67,21.64,41.67,53.21s-15.2,53.21-41.67,53.21
					S111.54,84.79,111.54,53.21z M171.48,53.21c0-19.74-5.99-30.41-18.27-30.41c-12.28,0-18.27,10.67-18.27,30.41
					s5.99,30.41,18.27,30.41C165.48,83.62,171.48,72.95,171.48,53.21z"/>
				<path class="st1" d="M282.14,88.01h-10.23v16.37h-23.68V88.01h-46.49V66.37l32.6-64.33h25.15l-32.6,64.33h21.34V44.44h23.68
					v21.93h10.23V88.01z"/>
			</g>
		</g>
	</g>
	<g>
		<g>
			<g>
				<path class="st2" d="M110.77,88.01h-10.23v16.37H76.85V88.01H30.36V66.37l32.6-64.33h25.15l-32.6,64.33h21.34V44.44h23.68v21.93
					h10.23V88.01z"/>
				<path class="st2" d="M116.17,53.21c0-31.58,15.2-53.21,41.67-53.21c26.46,0,41.67,21.64,41.67,53.21s-15.2,53.21-41.67,53.21
					C131.38,106.43,116.17,84.79,116.17,53.21z M176.11,53.21c0-19.74-5.99-30.41-18.27-30.41c-12.28,0-18.27,10.67-18.27,30.41
					s5.99,30.41,18.27,30.41C170.12,83.62,176.11,72.95,176.11,53.21z"/>
				<path class="st2" d="M286.78,88.01h-10.23v16.37h-23.68V88.01h-46.49V66.37l32.6-64.33h25.15l-32.6,64.33h21.34V44.44h23.68
					v21.93h10.23V88.01z"/>
			</g>
		</g>
	</g>
</g>
</svg>
