<svg width="120" height="120" viewBox="0 0 120 120" fill="none" xmlns="http://www.w3.org/2000/svg">
<g clip-path="url(#clip0_178_1290)">
<path d="M60.0039 120.008C93.1431 120.008 120.008 93.1431 120.008 60.0039C120.008 26.8646 93.1431 0 60.0039 0C26.8646 0 0 26.8646 0 60.0039C0 93.1431 26.8646 120.008 60.0039 120.008Z" fill="url(#paint0_linear_178_1290)"/>
<path d="M60.0038 113.551C89.5769 113.551 113.551 89.5769 113.551 60.0038C113.551 30.4307 89.5769 6.45703 60.0038 6.45703C30.4307 6.45703 6.45703 30.4307 6.45703 60.0038C6.45703 89.5769 30.4307 113.551 60.0038 113.551Z" fill="url(#paint1_linear_178_1290)"/>
<path d="M34.4998 91.2273C32.6248 91.2273 31.0191 90.5591 29.6828 89.2227C28.3464 87.8864 27.6794 86.2818 27.6816 84.4091V36.6818C27.6816 34.8068 28.3498 33.2012 29.6862 31.8648C31.0226 30.5284 32.6271 29.8614 34.4998 29.8637H65.1817V36.6818H34.4998V84.4091H82.2271V53.7273H89.0453V84.4091C89.0453 86.2841 88.3771 87.8898 87.0407 89.2262C85.7044 90.5625 84.0998 91.2296 82.2271 91.2273H34.4998ZM75.4089 50.3182V43.5H68.5907V36.6818H75.4089V29.8637H82.2271V36.6818H89.0453V43.5H82.2271V50.3182H75.4089ZM37.9089 77.5909H78.818L66.0339 60.5455L55.8067 74.1818L48.1362 63.9546L37.9089 77.5909Z" fill="#9100FF"/>
</g>
<defs>
<linearGradient id="paint0_linear_178_1290" x1="59.9961" y1="0" x2="59.9961" y2="238.897" gradientUnits="userSpaceOnUse">
<stop stop-color="#5FB1D4"/>
<stop offset="0.13" stop-color="#689FD8"/>
<stop offset="0.39" stop-color="#8171E3"/>
<stop offset="0.76" stop-color="#A928F5"/>
<stop offset="0.95" stop-color="#C000FF"/>
</linearGradient>
<linearGradient id="paint1_linear_178_1290" x1="59.9961" y1="6.45703" x2="59.9961" y2="219.649" gradientUnits="userSpaceOnUse">
<stop stop-color="white"/>
<stop offset="0.87" stop-color="#A7F5FF"/>
</linearGradient>
<clipPath id="clip0_178_1290">
<rect width="120" height="120" fill="white"/>
</clipPath>
</defs>
</svg>