<svg width="44" height="62" viewBox="0 0 44 62" fill="none" xmlns="http://www.w3.org/2000/svg">
<path d="M6.70967 19.8599C6.49967 19.7099 6.18967 19.8199 6.02967 20.0199C5.94967 20.1299 5.88967 20.2499 5.84967 20.3799C5.26967 19.6199 4.12967 19.6699 3.60967 19.7799C3.29967 19.8399 2.97967 19.9499 2.75967 20.1699C2.47967 20.4399 2.37967 20.8599 2.45967 21.2299C2.54967 21.6099 2.23967 21.9699 2.57967 22.1499C2.68967 22.2099 2.83967 22.2299 3.00967 22.2199C2.95967 22.3299 2.91967 22.4499 2.89967 22.5699C2.77967 23.1499 2.96967 23.7799 3.37967 24.1999L6.13967 22.9899C6.77967 22.2799 7.07967 21.2799 6.93967 20.3399C6.90967 20.1599 6.85967 19.9699 6.70967 19.8599Z" fill="white"/>
<path d="M3.99916 25.8398C3.43916 25.7198 3.07916 25.1198 3.10916 24.5498C3.14916 23.9798 3.51916 23.4798 3.97916 23.1498C4.52916 22.7598 5.43916 22.4598 6.11916 22.5398C6.78916 22.6198 8.02916 23.5598 6.95916 24.4698" fill="#4A50C6"/>
<path d="M10.8292 34.9002C8.82917 34.4302 7.42917 33.0902 6.10917 31.5202C4.77917 29.9502 3.85917 27.0902 3.73917 25.0402C3.63917 24.7802 4.07917 24.1802 4.29917 24.0102C5.00917 23.4502 6.24917 23.1502 6.71917 23.5002C8.64917 26.0402 11.6192 27.7702 14.7792 28.1902" fill="white"/>
<path d="M14.8105 28.4199C12.8605 26.1799 9.1005 29.7999 8.3305 32.1799C7.3805 35.1299 8.9505 35.0499 9.1305 34.5299C9.2705 34.1199 10.7605 33.9699 11.1205 33.7199" fill="#4A50C6"/>
<path d="M13.3806 28.4902C6.81055 33.0202 7.02055 40.2902 8.90055 42.5802C10.7906 44.8702 13.2306 47.0402 15.7606 47.6702C18.3006 48.3002 22.1506 48.1202 24.6006 47.2102L27.7106 44.6202C30.6706 42.2702 30.9306 34.5002 28.6306 30.5102" fill="white"/>
<path d="M14.8389 32.3004C14.4789 32.3404 13.6289 32.9404 13.3889 33.1704C12.9889 33.5504 19.4689 39.0904 19.9089 38.9004C20.3489 38.7204 21.7389 34.2204 21.5589 33.9904C21.3789 33.7604 15.5189 32.2204 14.8389 32.3004Z" fill="#3541AA"/>
<path d="M20.2394 34.7204C19.6794 35.1104 17.8794 39.7504 18.4294 39.6504C19.1694 39.5104 19.5294 39.1104 19.9094 38.8904C20.3294 38.6504 21.8294 33.8704 21.5594 33.9804C21.2894 34.0804 20.8094 34.3404 20.2494 34.7204H20.2394Z" fill="#3541AA"/>
<path d="M13.3897 33.1704C12.8297 33.5604 12.3797 37.2604 12.5897 37.7704C12.7997 38.2804 18.1497 39.8104 18.5997 39.6304C19.0397 39.4504 20.4297 34.9504 20.2497 34.7204C20.0697 34.4904 13.9597 32.7804 13.3997 33.1704H13.3897Z" fill="#4A50C6"/>
<path d="M18.2987 36.4302C18.1487 36.4002 17.8588 36.4002 17.7688 36.3002C17.6888 36.2102 17.6587 36.0402 17.6287 35.9102C17.7787 35.8102 17.9387 35.7202 18.0887 35.6202C18.1387 35.5902 18.1587 35.5302 18.1287 35.4802C17.9387 35.1102 17.6987 34.7602 17.3187 34.5602C17.2787 34.5402 17.2188 34.5402 17.1888 34.5702C17.1188 34.6602 16.7787 35.0902 16.7787 35.0902L16.3687 34.9802C16.3687 34.9802 16.3487 34.8202 16.3387 34.7502C16.3187 34.6302 16.3087 34.5002 16.2887 34.3802C16.2887 34.3202 16.2187 34.2902 16.1587 34.3002C15.8187 34.3502 15.4987 34.4502 15.1887 34.6002C15.1387 34.6302 15.1187 34.6902 15.1487 34.7402C15.2187 34.8702 15.3087 35.0302 15.3387 35.1802C15.2987 35.2302 15.2388 35.2802 15.1788 35.3302C15.1288 35.3702 15.0787 35.4302 15.0287 35.4702C14.8487 35.3902 14.6887 35.2502 14.5087 35.1702C14.4687 35.1502 14.4088 35.1702 14.3888 35.2102C14.1588 35.5402 14.0287 35.9102 13.9688 36.3102C13.9688 36.3502 13.9987 36.4102 14.0387 36.4102C14.1687 36.4402 14.3987 36.4402 14.5087 36.5102C14.6087 36.5702 14.6487 36.7502 14.6987 36.9102C14.5387 36.9802 14.3787 37.0602 14.2287 37.1402C14.1787 37.1702 14.1587 37.2302 14.1887 37.2802C14.3287 37.5602 14.4887 37.7702 14.7188 37.9802C14.7587 38.0202 14.8287 38.0302 14.8687 37.9802C15.1387 37.7102 15.1287 37.6702 15.4987 37.7802C15.5387 37.7902 15.6388 37.8502 15.6388 37.8302C15.6788 37.9402 15.6187 38.2102 15.6187 38.2902C15.6187 38.3502 15.6588 38.3902 15.7188 38.4002C16.0788 38.4302 16.4088 38.4002 16.7688 38.3102C16.8088 38.3002 16.8488 38.2602 16.8488 38.2102C16.8488 38.1102 16.7987 37.8002 16.8287 37.7102C16.8487 37.6502 17.1488 37.5202 17.1888 37.4802C17.3088 37.5302 17.5387 37.7602 17.5787 37.7902C17.6187 37.8302 17.6787 37.8402 17.7287 37.7902C18.1087 37.4302 18.2887 36.9902 18.3287 36.4702C18.3287 36.4302 18.2987 36.3702 18.2587 36.3702L18.2987 36.4302ZM16.8088 36.8402C16.5188 37.1302 16.0188 37.2302 15.6788 36.9702C15.3288 36.6902 15.3487 36.1502 15.6987 35.8802C15.9587 35.6902 16.3187 35.6002 16.6087 35.7702C16.9687 35.9902 17.0388 36.5002 16.8088 36.8402Z" fill="#F9C73A"/>
<path d="M12.2702 14.5599C10.7702 13.7499 9.14017 15.2399 8.74017 15.9499C8.34017 16.6599 8.24017 17.4699 8.15017 18.2599C8.07017 19.0099 7.98017 19.7699 8.09017 20.5099C8.19017 21.2499 8.50017 21.9899 9.10017 22.4799C9.70017 22.9799 10.6202 23.1899 11.3902 22.8899" fill="#F1DCC4"/>
<path d="M12.2702 14.5599C10.7702 13.7499 9.14017 15.2399 8.74017 15.9499C8.34017 16.6599 8.24017 17.4699 8.15017 18.2599C8.07017 19.0099 7.98017 19.7699 8.09017 20.5099C8.19017 21.2499 8.50017 21.9899 9.10017 22.4799C9.70017 22.9799 10.6202 23.1899 11.3902 22.8899" fill="#4A50C6"/>
<path d="M13.5303 26.9603C12.8003 26.5103 11.3603 26.9803 12.3903 28.5903C12.8903 29.3603 14.6303 31.1103 17.5803 31.6703C23.0603 32.7103 25.4903 32.3303 28.8103 30.9203C30.2103 30.3203 30.4303 29.8003 30.3603 29.2903C30.2903 28.7803 29.4003 28.4503 28.8903 28.5503" fill="#3541AA"/>
<path d="M31.2994 7.42993C28.4194 5.38993 25.1494 4.03993 19.2994 5.79993C13.4494 7.55993 10.4294 10.9099 9.50935 15.5199C8.58935 20.1299 10.3594 25.2899 14.0794 28.1199C17.5894 30.7899 22.3594 31.1999 26.5794 30.1499C28.9694 29.5499 31.2894 28.4999 33.0594 26.7599C35.5694 24.3099 36.7694 20.5699 36.3194 17.0299C35.8694 13.4899 34.1794 9.46993 31.2994 7.42993Z" fill="white"/>
<path d="M29.8698 19.06C29.4998 17.5 28.7498 15.92 27.4298 15.15C26.0898 14.37 24.4998 14.58 22.9998 14.67C20.3398 14.84 17.0898 14.47 15.0398 13.93C9.18979 12.38 11.0698 22.49 12.2298 24.36C13.7698 26.86 16.7998 28.08 18.8298 28.54C20.8598 29 26.6898 29.12 28.7798 26.06C30.0098 24.27 30.3998 21.25 29.8798 19.05L29.8698 19.06Z" fill="#4A50C6"/>
<g style="mix-blend-mode:screen">
<path d="M26.2591 14.7C25.2091 14.47 24.0791 14.6 22.9991 14.67C20.3391 14.84 17.0891 14.47 15.0391 13.93C10.5591 12.74 10.6191 18.4 11.4091 21.95C11.8591 22.36 12.3491 22.72 12.8791 23.01C14.9391 24.13 17.4091 24.31 19.7291 23.95C21.4991 23.68 23.2591 23.08 24.6491 21.96C26.0391 20.84 27.0291 19.13 26.9991 17.34C26.9891 16.42 26.7091 15.52 26.2591 14.72V14.7Z" fill="#4A50C6"/>
</g>
<path d="M19.5792 27.8201C17.5492 27.3601 14.5292 26.1301 12.9792 23.6401C12.1392 22.2701 10.9092 16.5301 12.5792 14.1201C9.84919 15.7701 11.2792 22.8301 12.2292 24.3701C13.7692 26.8701 16.7992 28.0901 18.8292 28.5501C20.7792 29.0001 26.2692 29.1201 28.5392 26.3901C25.9792 28.3701 21.3492 28.2301 19.5792 27.8301V27.8201Z" fill="#4A50C6"/>
<path d="M34.1897 16.8102C33.0297 16.7702 32.1297 17.0302 31.6797 17.4302C31.2297 17.8302 31.2297 22.6302 31.3997 23.5302C31.4797 23.9302 31.6497 24.0802 31.9497 24.3602C32.2697 24.6602 32.6697 24.9802 33.1097 24.9502C34.6197 24.8702 35.7397 24.4902 36.6297 23.2702C37.2297 22.4602 37.4897 21.0902 37.3797 20.0902C37.2697 19.0902 36.0797 16.8802 34.1997 16.8102H34.1897Z" fill="#4A50C6"/>
<g style="mix-blend-mode:screen">
<path d="M33.1688 18.5501C32.6788 17.7201 31.8788 17.9501 31.8288 18.1801C31.7888 18.4101 31.6588 22.0501 31.7888 23.3401C31.8188 23.6901 32.3988 24.1001 32.6788 24.2201C32.9488 24.3301 33.3188 23.9201 33.4688 23.6501C34.2988 22.2101 33.9588 19.8801 33.1688 18.5501Z" fill="#4A50C6"/>
</g>
<g style="mix-blend-mode:screen">
<path d="M35.1101 23.3903C35.7001 22.5003 35.8001 20.8203 35.2601 19.1803C34.9001 18.0903 33.6701 18.0303 33.9901 18.6903C34.7301 20.1803 34.6401 22.4103 34.1501 23.5503C33.8601 24.2103 34.6501 24.0903 35.1101 23.4003V23.3903Z" fill="#4A50C6"/>
</g>
<g style="mix-blend-mode:screen">
<path d="M36.5597 22.9103C36.9797 22.1003 36.9897 20.5503 36.5097 19.0103C36.1897 17.9903 35.2397 17.8803 35.5197 18.5003C36.1497 19.9203 36.1697 21.9803 35.8297 23.0203C35.6297 23.6203 36.2397 23.5403 36.5597 22.9203V22.9103Z" fill="#4A50C6"/>
</g>
<path d="M32.0294 32.9703C31.7594 31.4803 30.6294 29.5503 28.5094 30.3103C27.2294 30.7703 26.3494 31.8003 26.0094 33.6203C25.7694 34.8703 25.9894 36.3603 26.5894 37.4803C27.1894 38.6003 28.4994 39.4203 29.7294 39.1103C30.7094 38.8703 31.4294 37.9803 31.7494 37.0303C32.0694 36.0703 32.0694 35.0403 32.0594 34.0303" fill="#4A50C6"/>
<path d="M39.29 33.9201C38.25 35.7601 36.94 36.8701 34.96 37.6201C32.99 38.3801 30.88 39.1501 29.1 38.1901C28.02 37.4601 27.51 35.4701 27.61 34.5101C27.84 32.3001 29.26 31.0201 30.2 31.2801C31.98 31.7601 35.46 32.3001 38.12 31.1401" fill="white"/>
<path d="M39.3302 31.5304C38.5502 30.6304 37.8202 30.7004 37.4102 30.9604C37.0002 31.2104 36.8202 31.6404 36.8102 31.8604C36.7402 32.9404 37.1602 33.9804 38.1702 34.6604C38.4402 34.8404 38.9802 34.9604 39.3302 34.8704C39.7302 34.7604 40.0302 34.3104 40.0902 33.9704C40.2102 33.2104 39.9802 32.2704 39.3402 31.5304H39.3302ZM39.4502 33.4404C39.4202 33.6504 39.2602 33.8704 39.0402 33.9404C38.8502 34.0004 38.6502 33.8904 38.5002 33.7704C37.9302 33.3204 37.6002 32.6304 37.6302 31.9304C37.6302 31.7904 37.6602 31.6404 37.7302 31.5204C37.8102 31.4004 38.4902 31.0704 39.0002 31.8604C39.3302 32.3704 39.5102 32.9604 39.4502 33.4504V33.4404Z" fill="#4A50C6"/>
<path d="M43.1486 31.5503C42.7986 31.9203 42.0486 31.9703 41.8286 32.1703C41.5386 32.4303 41.5686 32.6703 41.4686 32.9603C41.4386 33.0403 41.3986 33.1303 41.3286 33.2303C41.1686 33.4603 40.9786 33.6403 40.7686 33.7803C40.6186 33.8803 40.4486 33.9703 40.2686 34.0303C40.1886 34.0603 40.0986 34.0903 40.0086 34.1103C39.8686 34.1403 39.7386 34.1703 39.6186 34.1803C39.2586 34.2103 38.9586 34.1103 38.5086 33.7703C38.1886 33.5303 37.9186 33.0703 37.8086 32.7003C37.6286 32.0803 37.5486 31.4103 37.5986 31.1403C37.7286 30.4603 37.7386 30.2703 38.0386 29.6403C38.0886 29.5403 38.7686 28.6403 38.8686 28.5803C39.2386 28.3603 39.4986 28.8603 39.4486 29.2303C39.3786 29.7403 39.0886 30.0603 39.1186 30.3703C39.4186 30.0703 39.6986 29.8203 39.9786 29.6303C40.1986 29.4903 40.4186 29.3803 40.6486 29.3203C40.8086 29.2803 40.9686 29.2603 41.1286 29.2503C41.3286 29.2503 41.5386 29.2803 41.7686 29.3403C41.9586 29.3903 42.1486 29.4703 42.3586 29.5803C43.2786 30.0303 43.5086 31.1903 43.1586 31.5503H43.1486Z" fill="white"/>
<g style="mix-blend-mode:screen" opacity="0.19">
<path d="M35.5115 0.220097C35.2115 0.030097 34.8815 -0.089903 34.3015 0.110097C33.7215 0.310097 33.4315 0.660097 33.3615 1.1301C33.2915 1.6001 33.4915 2.1101 33.8715 2.3701C34.2315 2.6201 34.7115 2.6401 35.1315 2.5201C35.3715 2.4501 35.6015 2.3301 35.7715 2.1501C36.0115 1.8901 36.1215 1.5101 36.0615 1.1601C36.0015 0.810097 35.8115 0.410097 35.5215 0.220097H35.5115Z" fill="url(#paint0_radial_255_3042)"/>
</g>
<path d="M34.5111 1.17995C34.5111 1.17995 34.0411 12.65 33.3411 17.24C33.3411 17.24 33.2511 17.79 34.0311 17.83C34.6611 17.87 34.7811 17.6 34.7811 17.6C34.7811 17.6 34.8911 1.67995 34.9311 1.22995C34.9711 0.779953 34.5111 1.17995 34.5111 1.17995Z" fill="#4A50C6"/>
<path d="M35.2107 0.61032C35.0207 0.49032 34.8107 0.41032 34.4407 0.54032C34.0707 0.67032 33.8907 0.89032 33.8407 1.19032C33.7907 1.49032 33.9207 1.81032 34.1707 1.98032C34.4007 2.14032 34.7107 2.15032 34.9807 2.08032C35.1307 2.04032 35.2807 1.96032 35.3907 1.85032C35.5407 1.69032 35.6107 1.44032 35.5707 1.22032C35.5307 0.99032 35.4107 0.74032 35.2207 0.62032L35.2107 0.61032Z" fill="white"/>
<path d="M34.5409 0.790339C34.4809 0.750339 34.4109 0.730339 34.3009 0.770339C34.1809 0.810339 34.1309 0.880339 34.1109 0.970339C34.1009 1.06034 34.1409 1.17034 34.2109 1.22034C34.2809 1.27034 34.3809 1.27034 34.4609 1.25034C34.5109 1.24034 34.5509 1.21034 34.5909 1.18034C34.6409 1.13034 34.6609 1.05034 34.6509 0.980339C34.6409 0.910339 34.6009 0.830339 34.5409 0.790339Z" fill="white"/>
<path d="M34.0616 1.16024C34.0616 1.16024 34.1016 1.16024 34.1116 1.16024C34.0716 1.16024 34.0416 1.16024 34.0016 1.19024C33.9616 1.22024 33.9416 1.24024 33.9216 1.27024C33.9216 1.28024 33.9016 1.29024 33.9016 1.31024C33.8716 1.37024 33.8616 1.43024 33.8516 1.50024C33.8516 1.60024 33.8816 1.71024 33.9316 1.80024C33.9916 1.90024 34.0716 1.96024 34.1616 2.03024C34.1916 2.05024 34.2216 2.07024 34.2516 2.09024C34.3216 2.13024 34.3916 2.14024 34.4716 2.15024C34.5516 2.16024 34.6516 2.10024 34.6916 2.03024V2.01024C34.6916 2.01024 34.6516 2.06024 34.6316 2.08024C34.6816 2.05024 34.7216 2.01024 34.7316 1.95024C34.7416 1.90024 34.7316 1.86024 34.7116 1.82024L34.7316 1.86024C34.7116 1.80024 34.6816 1.77024 34.6316 1.73024L34.7216 1.85024C34.7116 1.77024 34.6616 1.71024 34.5916 1.67024C34.5816 1.67024 34.5616 1.65024 34.5516 1.64024C34.5216 1.62024 34.4916 1.60024 34.4716 1.58024L34.5216 1.62024C34.5216 1.62024 34.4616 1.57024 34.4316 1.54024C34.4016 1.52024 34.3716 1.49024 34.3516 1.46024L34.3916 1.51024C34.3916 1.51024 34.3416 1.44024 34.3216 1.39024L34.3416 1.45024C34.3416 1.45024 34.3116 1.37024 34.3116 1.33024V1.39024C34.3116 1.39024 34.3116 1.37024 34.3116 1.36024C34.3116 1.30024 34.2916 1.25024 34.2516 1.21024L34.2816 1.25024C34.2816 1.25024 34.2316 1.18024 34.1916 1.17024C34.1516 1.16024 34.1116 1.15024 34.0616 1.17024V1.16024Z" fill="white"/>
<path style="mix-blend-mode:screen" d="M34.5207 3.15006C34.5207 3.07006 34.6407 3.08006 34.6407 3.15006C34.6207 4.08006 34.5907 5.01006 34.5407 5.94006C34.4607 7.45006 34.4807 8.98006 34.3307 10.4801C34.3307 10.5401 34.2407 10.5301 34.2307 10.4801C34.2107 8.97006 34.3507 7.45006 34.3907 5.94006C34.4107 5.01006 34.4607 4.08006 34.5107 3.16006L34.5207 3.15006ZM34.2207 10.8001C34.1807 11.0401 34.1907 11.2801 34.1907 11.5201C34.1907 11.7301 34.1307 12.0001 34.1907 12.2001C34.2007 12.2401 34.2707 12.2501 34.2807 12.2001C34.3507 11.9901 34.3107 11.7101 34.3207 11.5001C34.3407 11.2601 34.3607 11.0301 34.3407 10.7901C34.3407 10.7201 34.2307 10.7301 34.2207 10.7901V10.8001Z" fill="url(#paint1_linear_255_3042)"/>
<path d="M19.3502 57.7904C19.1902 58.4804 19.0402 59.6004 19.4902 60.3504C19.9002 61.0304 20.1402 61.1304 20.8502 61.0204C21.5502 60.9004 23.0502 59.3604 22.6102 57.6304" fill="#4A50C6"/>
<g style="mix-blend-mode:multiply" opacity="0.55">
<path d="M19.5002 58.1604C19.6402 58.5304 20.6302 58.9304 21.1002 58.8304C21.2302 58.8004 21.4602 59.1904 21.2902 59.6704C21.2202 59.8604 21.1902 60.1104 21.0702 60.2704C20.6302 60.9104 20.1602 60.9704 20.0802 60.9804C20.0802 60.9804 20.0802 60.9904 20.0902 61.0004C20.2802 61.0804 20.5102 61.0804 20.8502 61.0204C21.5502 60.9004 23.0502 59.3604 22.6102 57.6304L19.9302 58.0604L19.4902 58.1604H19.5002Z" fill="url(#paint2_linear_255_3042)"/>
</g>
<path d="M27.6794 42.7102C25.3594 40.6602 21.8794 40.9302 19.2994 41.9902C17.8694 42.5702 16.1294 44.2602 17.2894 46.6202C17.9094 47.8902 18.9794 48.2602 19.9994 48.4902C22.5994 49.0602 25.4194 48.9202 27.8194 47.5502C29.1494 46.7902 29.2294 44.1002 27.6794 42.7202V42.7102Z" fill="#4A50C6"/>
<path d="M19.099 43.9201C17.809 44.8201 17.599 47.1101 17.679 48.8001C17.719 49.5901 17.589 51.2701 17.769 52.0301C18.289 54.2001 18.549 55.2401 19.309 57.2101L20.849 58.0501L22.429 57.9301C24.049 55.7001 22.769 53.1101 24.669 51.1501C26.049 49.7301 28.049 48.3101 27.429 45.8601C26.679 42.8901 22.329 41.6601 19.089 43.9201H19.099Z" fill="white"/>
<path d="M23.0103 56.91C22.5503 57.26 21.5903 57.49 20.9103 57.48C20.2303 57.47 19.4703 57.08 19.0603 56.52C18.7103 56.52 18.4403 56.9 18.5503 57.24C18.6603 57.58 18.8703 57.93 19.1803 58.1C20.2103 58.64 21.4503 58.75 22.5503 58.4C22.8703 58.3 23.0303 58.12 23.2403 57.84C23.4503 57.56 23.2403 57.16 23.0103 56.91Z" fill="white"/>
<g opacity="0.45">
<path d="M21.5404 50.89C20.9804 49.3199 19.0704 49.65 18.7104 49.91C17.4004 50.88 17.6304 53.28 19.0304 53.95C19.9804 54.4 21.1804 53.99 21.5604 53.07C21.8204 52.44 21.7504 51.51 21.5304 50.9L21.5404 50.89Z" fill="#3540A8"/>
</g>
<path d="M21.2396 50.64C20.6796 49.0699 18.7696 49.4 18.4096 49.66C17.0996 50.63 17.3296 53.03 18.7296 53.7C19.6796 54.15 20.8796 53.74 21.2596 52.82C21.5196 52.19 21.4496 51.26 21.2296 50.65L21.2396 50.64Z" fill="#4A50C6"/>
<path d="M2.29008 49.75C1.81008 50.25 1.04008 50.92 1.00008 51.78C0.97008 52.57 1.10008 52.78 1.71008 53.04C2.32008 53.3 4.28008 52.75 4.83008 51.06" fill="#4A50C6"/>
<g style="mix-blend-mode:multiply" opacity="0.55">
<path d="M2.11063 50.1801C2.27063 50.5901 2.63062 51.1601 3.04062 51.3101C3.15062 51.3501 3.13063 51.8001 2.75063 52.1201C2.60063 52.2401 2.44062 52.4401 2.27062 52.5201C1.60062 52.8401 1.20062 52.6501 1.14062 52.6201C1.14062 52.6201 1.14062 52.6301 1.14062 52.6401C1.25062 52.8101 1.43063 52.9201 1.72063 53.0401C2.33063 53.3001 4.29062 52.7501 4.84062 51.0601L2.54062 50.0601L2.10063 50.1801H2.11063Z" fill="url(#paint3_linear_255_3042)"/>
</g>
<path d="M8.40095 37.3901C10.731 38.1101 12.231 39.7201 13.111 41.7801C13.591 42.9201 13.661 44.8501 11.741 45.4601C10.711 45.7901 9.92095 45.3701 9.22095 44.9001C7.46095 43.7001 6.21095 41.7401 5.61095 39.6001C5.28095 38.4201 6.93095 36.9301 8.40095 37.3801V37.3901Z" fill="#4A50C6"/>
<path d="M11.7701 41.8202C11.0101 40.1402 8.54014 37.7402 6.49014 38.5302C5.11014 39.0602 2.91014 41.4202 2.09014 43.2702C1.36014 44.9102 1.89014 48.0402 2.46014 50.5202C2.53014 50.8302 2.89014 50.6002 2.96014 50.8802L4.96014 50.9402C5.81014 49.9302 6.71014 47.5602 6.95014 47.2602C7.27014 46.8702 10.6301 46.2902 11.6701 44.5302C12.1401 43.9102 12.0801 42.5202 11.7601 41.8302L11.7701 41.8202Z" fill="white"/>
<g opacity="0.45">
<path d="M5.19062 44.34C5.27062 42.84 3.56062 42.45 3.17062 42.54C1.74062 42.9 1.10062 44.98 2.04062 46.02C2.68062 46.73 3.82062 46.8 4.46062 46.16C4.90062 45.72 5.16062 44.92 5.19062 44.34Z" fill="#3540A8"/>
</g>
<path d="M5.0207 44.0202C5.1007 42.5202 3.3907 42.1302 3.0007 42.2202C1.5707 42.5802 0.930698 44.6602 1.8707 45.7002C2.5107 46.4102 3.6507 46.4802 4.2907 45.8402C4.7307 45.4002 4.9907 44.6002 5.0207 44.0202Z" fill="#4A50C6"/>
<path d="M5.40927 50.3601C4.95927 50.5701 4.11927 50.5801 3.54927 50.4401C2.97927 50.2901 2.41927 49.8101 2.17927 49.2501C1.88927 49.1801 1.58927 49.4601 1.61927 49.7701C1.64927 50.0801 1.75927 50.4301 1.98927 50.6401C2.74927 51.3101 3.76927 51.6401 4.74927 51.5601C5.03927 51.5401 5.20927 51.4101 5.42927 51.2201C5.64927 51.0201 5.55927 50.6301 5.40927 50.3701V50.3601Z" fill="white"/>
<defs>
<radialGradient id="paint0_radial_255_3042" cx="0" cy="0" r="1" gradientUnits="userSpaceOnUse" gradientTransform="translate(34.7037 1.30778) rotate(-9.96) scale(1.32)">
<stop offset="0.24" stop-color="#F1DCC4"/>
<stop offset="1" stop-color="#D67094"/>
</radialGradient>
<linearGradient id="paint1_linear_255_3042" x1="33.2253" y1="7.94948" x2="35.6052" y2="7.41098" gradientUnits="userSpaceOnUse">
<stop stop-color="#A72464"/>
<stop offset="1" stop-color="#5B318C"/>
</linearGradient>
<linearGradient id="paint2_linear_255_3042" x1="17.8213" y1="58.6175" x2="21.403" y2="59.3348" gradientUnits="userSpaceOnUse">
<stop offset="0.24" stop-color="#F1DCC4"/>
<stop offset="1" stop-color="#D97F9A"/>
</linearGradient>
<linearGradient id="paint3_linear_255_3042" x1="0.681058" y1="49.6428" x2="3.02612" y2="51.8939" gradientUnits="userSpaceOnUse">
<stop offset="0.24" stop-color="#F1DCC4"/>
<stop offset="1" stop-color="#D97F9A"/>
</linearGradient>
</defs>
</svg>
