<svg width="60" height="65" viewBox="0 0 60 65" fill="none" xmlns="http://www.w3.org/2000/svg">
<path d="M29.695 61.7022C45.7233 61.7022 58.8535 48.3639 59.0219 31.9104C59.1904 15.4569 46.3335 2.11865 30.3051 2.11865C14.2768 2.11865 1.14662 15.4569 0.97813 31.9104C0.809643 48.3639 13.6666 61.7022 29.695 61.7022Z" fill="#72DDD0"/>
<path d="M51.7866 12.2437C50.5412 12.2437 49.5322 12.7906 49.2231 14.3754C48.2141 19.5178 45.5007 21.1213 43.5827 18.4052C41.6646 15.6891 39.1103 11.893 37.9467 15.9602C36.7832 20.0274 38.5331 16.0911 40.1466 17.6105C41.7601 19.1298 44.1917 22.5098 38.9149 23.6224C33.638 24.735 24.7296 21.8693 28.9293 26.6564C33.1289 31.4388 39.3194 31.9437 35.2379 37.6331C31.1564 43.3178 37.3513 46.09 39.133 39.2319C40.9147 32.3738 36.9832 27.4745 41.2556 29.2323C45.528 30.9901 49.2368 37.6097 47.5051 32.1401C45.7734 26.6704 46.0279 21.5795 49.1095 24.6509C52.1911 27.7223 46.7279 38.3904 56.0908 40.6484C56.6407 40.7793 57.1543 40.8588 57.6407 40.8962C60.7813 30.7049 58.3042 19.8871 51.7911 12.2437H51.7866Z" fill="#8DB232"/>
<path d="M3.07753 20.8504C2.28668 22.8887 1.73673 24.9644 1.40039 27.0447C3.32751 27.8581 5.81368 28.6108 7.19085 30.8594C10.2542 35.8569 5.82732 42.7571 9.89518 49.8676C13.963 56.9735 16.3129 48.6522 14.1858 42.7945C12.0541 36.9368 22.8623 35.4829 22.4215 31.7944C21.9851 28.1012 17.8491 32.2245 16.2765 28.2836C14.7039 24.3426 9.4134 28.7137 10.1315 23.7442C10.8497 18.7748 16.3038 18.6299 21.2761 16.5963C26.2484 14.5627 28.3801 15.8904 25.9848 11.8466C23.5896 7.80276 20.6489 8.85929 21.5943 5.85332C21.8806 4.94171 21.7579 4.1236 21.4443 3.42236C13.3676 5.99824 6.45454 12.1551 3.07753 20.8504Z" fill="#8DB232"/>
<path d="M27.0338 28.1291C26.902 28.475 26.2202 28.5171 25.5157 28.2273C24.8112 27.9374 24.3476 27.4232 24.4794 27.0819C24.6112 26.736 25.293 26.6939 25.9975 26.9837C26.702 27.2736 27.1656 27.7878 27.0338 28.1291Z" fill="#8DB232"/>
<path d="M28.7574 30.0693C28.662 30.3124 28.3938 30.4293 28.1575 30.3311C27.9211 30.2329 27.8075 29.9571 27.9029 29.714C27.9984 29.4709 28.2665 29.3541 28.5029 29.4522C28.7392 29.5504 28.8529 29.8262 28.7574 30.0693Z" fill="#8DB232"/>
<path d="M43.2184 43.6593C42.8866 44.5101 42.1276 44.9963 41.5185 44.7439C40.9095 44.4914 40.6822 43.6032 41.014 42.7524C41.3458 41.9015 42.1048 41.4153 42.7139 41.6678C43.3229 41.9202 43.5502 42.8085 43.2184 43.6593Z" fill="#8DB232"/>
<path d="M45.9688 42.0045C45.8688 42.2569 45.5915 42.3785 45.3461 42.2803C45.1007 42.1775 44.9825 41.8923 45.0779 41.6399C45.1779 41.3874 45.4552 41.2659 45.7006 41.364C45.9461 41.4669 46.0642 41.7521 45.9688 42.0045Z" fill="#8DB232"/>
<path d="M36.0703 16.0818C35.9294 16.4464 35.6748 16.6849 35.5021 16.6147C35.3294 16.5446 35.3067 16.1893 35.4476 15.8294C35.5885 15.4647 35.843 15.2263 36.0157 15.2964C36.1884 15.3665 36.2112 15.7218 36.0703 16.0818Z" fill="#8DB232"/>
<path d="M26.2701 8.61617C26.1201 8.99951 25.411 9.06963 24.6838 8.77044C23.9566 8.47124 23.4885 7.91961 23.6339 7.53626C23.7839 7.15292 24.4929 7.0828 25.2201 7.38199C25.9474 7.68118 26.4155 8.23282 26.2701 8.61617Z" fill="#8DB232"/>
<path d="M24.7443 5.52574C24.6716 5.70806 24.3761 5.75481 24.0807 5.63794C23.7853 5.51639 23.6035 5.26862 23.6762 5.09097C23.7489 4.91333 24.0443 4.8619 24.3398 4.97877C24.6352 5.10032 24.817 5.34809 24.7443 5.52574Z" fill="#8DB232"/>
<path d="M17.5862 47.3626C18.2369 47.1585 18.6035 46.4505 18.4051 45.7813C18.2066 45.112 17.5183 44.7349 16.8676 44.939C16.2169 45.1431 15.8503 45.8511 16.0488 46.5204C16.2472 47.1897 16.9355 47.5667 17.5862 47.3626Z" fill="#8DB232"/>
<path d="M18.0307 50.5735C17.9171 50.868 17.5944 51.0083 17.308 50.8914C17.0217 50.7745 16.8854 50.4426 16.999 50.1481C17.1126 49.8536 17.4353 49.7133 17.7217 49.8302C18.008 49.9471 18.1443 50.279 18.0307 50.5735Z" fill="#8DB232"/>
<g style="mix-blend-mode:multiply">
<path d="M32.4701 46.0526C18.1303 40.1622 11.149 23.426 16.8758 8.67669C17.2303 7.76976 17.6212 6.89087 18.0485 6.04004C11.858 9.03666 6.70844 14.352 3.97229 21.4018C-1.75454 36.1512 5.22673 52.8827 19.5665 58.7777C33.0246 64.3082 48.1779 58.3196 54.7274 45.3748C47.9643 48.6425 39.9558 49.1334 32.4701 46.0573V46.0526Z" fill="#ACEFDF"/>
</g>
<path opacity="0.49" d="M51.2049 35.8988C49.6369 35.5062 48.8097 33.3089 49.3596 30.9902C49.9096 28.6714 51.6231 27.1147 53.1911 27.5074C54.7592 27.9001 55.5864 30.0973 55.0364 32.416C54.4865 34.7348 52.773 36.2915 51.2049 35.8988Z" fill="white"/>
<path opacity="0.49" d="M46.9136 28.1998C50.6956 25.5591 50.7728 18.89 47.086 13.3038C43.3993 7.71773 37.3447 5.32995 33.5627 7.97061C29.7807 10.6113 29.7035 17.2804 33.3903 22.8665C37.0771 28.4527 43.1317 30.8404 46.9136 28.1998Z" fill="white"/>
<path d="M12.0527 5.45114C12.0527 5.45114 20.7066 -0.387826 31.1331 0.266662C31.1331 0.266662 22.5701 -1.78095 12.0527 5.45114Z" fill="white"/>
<path d="M37.1328 62.3918C37.1328 62.3918 46.2821 60.3068 52.4543 53.8647C52.4543 53.8647 46.9093 60.7509 37.1328 62.3918Z" fill="white"/>
<path d="M32.3691 65.0004C32.3691 65.0004 40.314 64.5282 48.8042 59.124C48.8042 59.124 41.6639 64.7433 32.3691 65.0004Z" fill="white"/>
<g style="mix-blend-mode:multiply">
<path d="M25.9332 57.1137C25.5241 58.1656 23.8061 58.4507 22.0971 57.7448C20.3882 57.0436 19.3292 55.6177 19.7382 54.5659C20.1473 53.514 21.8653 53.2289 23.5743 53.9348C25.2832 54.636 26.3423 56.0619 25.9332 57.1137Z" fill="#ACEFDF"/>
</g>
<g style="mix-blend-mode:multiply">
<path d="M30.1742 55.3513C30.0196 55.744 29.3379 55.8328 28.6516 55.5523C27.9653 55.2718 27.5289 54.7202 27.6835 54.3275C27.838 53.9348 28.5198 53.8459 29.2061 54.1264C29.8924 54.4069 30.3287 54.9586 30.1742 55.3513Z" fill="#ACEFDF"/>
</g>
<g style="mix-blend-mode:multiply">
<path d="M6.01844 29.5038C5.58211 30.6211 4.7049 31.313 4.05495 31.0465C3.405 30.7801 3.23229 29.6581 3.66862 28.5361C4.10495 27.4141 4.98215 26.7269 5.6321 26.9934C6.28205 27.2598 6.45477 28.3818 6.01844 29.5038Z" fill="#ACEFDF"/>
</g>
<g style="mix-blend-mode:multiply">
<path d="M5.26318 24.4221C5.1041 24.8335 4.76776 25.0766 4.51324 24.9738C4.25871 24.8709 4.18145 24.4502 4.34052 24.0435C4.4996 23.6321 4.83594 23.389 5.09047 23.4918C5.34499 23.5947 5.42226 24.0154 5.26318 24.4221Z" fill="#ACEFDF"/>
</g>
<g style="mix-blend-mode:multiply">
<path d="M54.8312 24.174C54.6176 24.721 54.1449 25.0389 53.7722 24.8846C53.3995 24.7303 53.2677 24.1647 53.4813 23.6177C53.6949 23.0707 54.1676 22.7528 54.5403 22.9071C54.913 23.0614 55.0448 23.627 54.8312 24.174Z" fill="#ACEFDF"/>
</g>
<g style="mix-blend-mode:multiply">
<path d="M36.4108 38.8676C36.1063 39.653 35.1245 39.9895 34.22 39.6202C33.3156 39.2462 32.8293 38.3113 33.1338 37.5212C33.4383 36.7358 34.42 36.3992 35.3245 36.7685C36.229 37.1425 36.7153 38.0775 36.4108 38.8676Z" fill="#ACEFDF"/>
</g>
<g style="mix-blend-mode:multiply">
<path d="M26.0569 18.6856C25.8614 17.9517 24.6888 17.6431 23.4434 17.9937C22.1981 18.3444 21.3481 19.2279 21.5436 19.9619C21.739 20.6958 22.9117 21.0044 24.157 20.6538C25.4024 20.2985 26.2523 19.4196 26.0569 18.6856Z" fill="#ACEFDF"/>
</g>
</svg>
