<svg width="120" height="123" viewBox="0 0 120 123" fill="none" xmlns="http://www.w3.org/2000/svg">
<g clip-path="url(#clip0_168_568)">
<path d="M99.7989 81.7014C110.864 59.3542 102.053 32.099 80.1198 20.8254C58.1863 9.55165 31.4358 18.5285 20.3708 40.8757C9.30587 63.2229 18.1165 90.478 40.05 101.752C61.9834 113.025 88.7339 104.049 99.7989 81.7014Z" fill="url(#paint0_radial_168_568)"/>
<path style="mix-blend-mode:screen" opacity="0.7" d="M70.515 63.6468C80.4422 48.3192 79.672 29.9653 68.7947 22.6522C57.9175 15.3391 41.0522 21.8362 31.1251 37.1639C21.1979 52.4915 21.9681 70.8454 32.8454 78.1585C43.7226 85.4715 60.5879 78.9744 70.515 63.6468Z" fill="url(#paint1_radial_168_568)"/>
<path style="mix-blend-mode:multiply" opacity="0.33" d="M102.464 47.509C109.929 71.347 97.0144 96.8497 73.609 104.465C58.1127 109.504 41.9036 105.439 30.5703 95.1938C39.5831 98.5942 49.7344 99.0901 59.5989 95.8757C83.0042 88.2603 95.9106 62.7575 88.4362 38.9106C85.9158 30.8613 81.3963 24.0429 75.6167 18.8184C87.9582 23.5204 98.1442 33.7304 102.464 47.509Z" fill="url(#paint2_radial_168_568)"/>
<path style="mix-blend-mode:multiply" opacity="0.33" d="M102.464 47.5096C109.93 71.3476 97.0146 96.8504 73.6093 104.466C60.6855 108.672 47.2576 106.538 36.5762 99.7637C46.0756 103.926 57.0526 104.776 67.6906 101.313C91.0959 93.698 104.02 68.1952 96.5453 44.3572C93.1992 33.6779 86.3245 25.1327 77.642 19.6514C89.0622 24.6722 98.3791 34.4926 102.455 47.5096H102.464Z" fill="url(#paint3_radial_168_568)"/>
<mask id="mask0_168_568" style="mask-type:luminance" maskUnits="userSpaceOnUse" x="15" y="16" width="90" height="91">
<path d="M103.579 51.1869C97.5737 26.9843 73.232 11.8863 49.21 17.4647C25.1881 23.0431 10.5826 47.1855 16.5877 71.3881C22.5928 95.5908 46.9346 110.689 70.9565 105.11C94.9785 99.5319 109.584 75.3896 103.579 51.1869Z" fill="white"/>
</mask>
<g mask="url(#mask0_168_568)">
<g style="mix-blend-mode:screen" opacity="0.35">
<path d="M7.95765 38.9105C15.2496 41.5051 22.8283 43.3204 30.4417 44.6398C38.0552 45.9592 45.8686 46.8181 53.6385 47.1369C61.4084 47.4557 69.1175 47.2786 76.8266 46.6145C84.5356 45.9503 92.2273 44.7637 99.7974 43.099C107.367 41.4342 114.842 39.3356 122.09 36.5993C123.012 36.254 123.872 35.8378 124.724 35.3507C125.289 35.0231 124.889 34.2084 124.298 34.3236C122.403 34.7043 120.604 35.3862 118.77 35.9795C116.936 36.5728 115.103 37.166 113.251 37.7151C109.592 38.8131 105.899 39.796 102.179 40.655C94.6783 42.3906 87.0822 43.6303 79.4339 44.4095C71.8031 45.1888 64.1288 45.4899 56.4718 45.3128C48.8149 45.1357 41.1753 44.4981 33.6053 43.3558C26.0353 42.2135 18.4305 40.6018 10.9822 38.6183C10.0696 38.3792 9.14835 38.149 8.23577 37.9099C7.59263 37.7416 7.34927 38.6891 7.96635 38.9105H7.95765Z" fill="url(#paint4_radial_168_568)"/>
</g>
<g style="mix-blend-mode:screen" opacity="0.35">
<path d="M5.80922 72.5951C13.1011 75.1896 20.6798 77.0049 28.2933 78.3243C35.9068 79.6438 43.7201 80.5027 51.4901 80.8215C59.26 81.1403 66.9691 80.9632 74.6781 80.299C82.3872 79.6349 90.0789 78.4483 97.6489 76.7836C105.219 75.1188 112.693 73.0201 119.942 70.2839C120.863 69.9385 121.724 69.5223 122.575 69.0353C123.14 68.7077 122.74 67.893 122.149 68.0081C120.255 68.3889 118.456 69.0707 116.622 69.664C114.788 70.2573 112.954 70.8506 111.103 71.3996C107.444 72.4977 103.75 73.4806 100.03 74.3395C92.5298 76.0751 84.9337 77.3149 77.2855 78.0941C69.6372 78.8734 61.9803 79.1744 54.3234 78.9973C46.6665 78.8202 39.0269 78.1827 31.4569 77.0403C23.8869 75.898 16.2821 74.2864 8.83375 72.3029C7.92117 72.0638 6.99991 71.8335 6.08734 71.5944C5.44419 71.4262 5.20083 72.3737 5.81791 72.5951H5.80922Z" fill="url(#paint5_radial_168_568)"/>
</g>
<g style="mix-blend-mode:multiply" opacity="0.74">
<path d="M-1.32531 64.9446C5.84492 68.0527 13.554 69.9477 21.2109 71.338C28.9808 72.7548 36.8724 73.72 44.764 74.0653C52.5253 74.4018 60.3126 74.2424 68.0564 73.5783C75.948 72.9053 83.7874 71.639 91.5226 69.8946C99.0839 68.1855 106.663 66.1046 113.85 63.1293C114.389 62.9079 114.954 62.6599 115.441 62.3412C115.901 62.0401 116.275 61.6416 116.666 61.252C117.579 60.3399 116.84 58.8965 115.675 58.8257C114.598 58.7548 113.598 58.8611 112.564 59.1799C111.66 59.4544 110.756 59.7377 109.852 60.0034C108.001 60.5524 106.167 61.1369 104.325 61.6859C100.631 62.7751 96.8937 63.7491 93.1392 64.5992C89.3759 65.4493 85.5952 66.1843 81.7885 66.7864C80.8498 66.937 79.9199 67.0786 78.9812 67.2115C78.7379 67.2469 78.4945 67.2823 78.2512 67.3177C77.7558 67.3886 78.5727 67.2735 78.0773 67.3443C77.5559 67.4151 77.0344 67.486 76.5129 67.548C74.6009 67.7871 72.6888 68.0084 70.7767 68.2032C63.1546 69.0002 55.4716 69.319 47.8146 69.1507C43.9731 69.0622 40.1229 68.8762 36.2814 68.584C34.3607 68.4335 32.4486 68.2564 30.5366 68.0527C29.5632 67.9464 28.5897 67.8313 27.6163 67.7074C27.1644 67.6542 26.7124 67.5922 26.2605 67.5303C26.1562 67.5125 26.0519 67.5037 25.9476 67.486C25.9215 67.486 25.5739 67.4328 25.8346 67.4683C26.0954 67.5037 25.7477 67.4594 25.7217 67.4506C25.5478 67.424 25.374 67.3974 25.2002 67.3797C17.5606 66.2905 9.99061 64.7675 2.46405 63.0496C1.54278 62.837 0.604134 62.6954 -0.334514 62.5183C-0.96897 62.3943 -1.61212 62.6422 -1.86416 63.2798C-2.08144 63.8288 -1.93369 64.6701 -1.334 64.9268H-1.32531V64.9446Z" fill="url(#paint6_radial_168_568)"/>
</g>
<g style="mix-blend-mode:screen" opacity="0.35">
<path d="M5.60947 50.5104C12.7797 53.6009 20.4888 55.5136 28.1457 56.8861C35.8026 58.2587 43.7985 59.2062 51.6901 59.5515C59.5817 59.8969 67.2386 59.7198 74.9825 59.0645C82.7263 58.4092 90.7048 57.1429 98.4226 55.4073C106.14 53.6717 113.571 51.6527 120.759 48.6863C121.289 48.4649 121.854 48.2258 122.349 47.907C122.81 47.6148 123.184 47.2075 123.575 46.8267C124.479 45.9412 123.749 44.5066 122.601 44.4358C121.524 44.3738 120.533 44.4801 119.499 44.7989C118.595 45.0822 117.7 45.3656 116.787 45.6401C114.945 46.198 113.111 46.7824 111.259 47.3314C107.566 48.4295 103.837 49.4124 100.074 50.2625C96.3106 51.1126 92.53 51.8564 88.7232 52.4674C87.7933 52.6179 86.8546 52.7596 85.916 52.9013C85.464 52.9633 85.0121 53.0341 84.5602 53.0961C85.0382 53.0341 84.4124 53.1138 84.256 53.1404C83.9778 53.1758 83.6997 53.2112 83.4216 53.2467C81.5095 53.4946 79.5975 53.7071 77.6854 53.9108C70.0633 54.7078 62.3803 55.0265 54.7233 54.8583C50.8731 54.7697 47.0316 54.5838 43.1901 54.2739C41.2694 54.1233 39.3573 53.9374 37.4453 53.7248C36.4719 53.6186 35.4984 53.4946 34.525 53.3706C34.3164 53.3441 34.1079 53.3175 33.8993 53.2909C33.795 53.2732 33.6907 53.2644 33.5864 53.2467C33.5255 53.2467 33.091 53.1758 33.3604 53.2201C33.5516 53.2467 33.0215 53.1758 32.9259 53.1581C32.6477 53.1227 32.3696 53.0784 32.0915 53.043C24.4606 51.9272 16.8819 50.413 9.36406 48.6863C8.4428 48.4737 7.50415 48.3232 6.5655 48.1461C5.93974 48.031 5.31397 48.2701 5.06193 48.8988C4.85334 49.4301 4.9924 50.2625 5.5834 50.5193L5.60947 50.5104Z" fill="url(#paint7_radial_168_568)"/>
</g>
<g style="mix-blend-mode:multiply" opacity="0.74">
<path d="M4.6376 81.9286C11.8947 84.6117 19.4908 86.4181 27.0956 87.7553C34.7786 89.1013 42.5572 89.9868 50.3532 90.3144C58.0797 90.6332 65.8322 90.4649 73.5413 89.8008C81.2851 89.1367 88.9942 87.9324 96.5903 86.2499C104.143 84.5763 111.635 82.4776 118.866 79.6971C119.804 79.334 120.665 78.9002 121.517 78.36C122.229 77.9084 121.734 76.9432 120.978 77.0583C119.066 77.3505 117.267 78.0412 115.424 78.6256C113.59 79.2101 111.748 79.8034 109.905 80.3524C106.246 81.4504 102.552 82.4245 98.8326 83.2746C91.3582 84.9925 83.7882 86.2056 76.1573 86.9937C68.5265 87.7818 60.8522 88.0829 53.1952 87.897C45.5731 87.7199 37.9422 87.1089 30.3983 85.9931C22.7761 84.8596 15.2148 83.2657 7.74905 81.3353C6.83647 81.0962 5.90652 80.8926 4.99394 80.6623C4.17697 80.4587 3.87278 81.6452 4.6463 81.9375L4.6376 81.9286Z" fill="url(#paint8_radial_168_568)"/>
</g>
<g style="mix-blend-mode:multiply" opacity="0.74">
<path d="M3.69034 25.5477C10.9475 28.2308 18.5436 30.0373 26.1484 31.3744C33.8314 32.7204 41.61 33.6059 49.406 33.9336C57.1324 34.2523 64.8849 34.0841 72.594 33.42C80.3379 32.7558 88.0469 31.5515 95.643 29.869C103.196 28.1954 110.687 26.0968 117.919 23.3163C118.857 22.9532 119.718 22.5193 120.569 21.9791C121.282 21.5275 120.787 20.5623 120.03 20.6774C118.118 20.9696 116.319 21.6603 114.477 22.2448C112.643 22.8292 110.8 23.4225 108.958 23.9715C105.299 25.0696 101.605 26.0436 97.8854 26.8937C90.4109 28.6116 82.8409 29.8248 75.2101 30.6129C67.5792 31.401 59.9049 31.7021 52.248 31.5161C44.6258 31.339 36.9949 30.728 29.451 29.6122C21.8288 28.4788 14.2675 26.8849 6.80178 24.9545C5.88921 24.7154 4.95925 24.5117 4.04668 24.2815C3.22971 24.0778 2.92552 25.2644 3.69903 25.5566L3.69034 25.5477Z" fill="url(#paint9_radial_168_568)"/>
</g>
</g>
<path style="mix-blend-mode:multiply" opacity="0.74" d="M53.673 81.1761C50.9179 79.901 47.9542 79.3077 44.9905 80.1755C42.8438 80.8042 40.9578 82.6372 39.0284 83.7707C38.3852 84.1514 37.7334 84.5234 37.0381 84.7802C36.2298 85.0724 35.3781 85.2052 34.5263 85.3292C33.5877 85.4709 32.6403 85.6037 31.7017 85.7454C31.4236 85.7896 31.1281 85.8339 30.9108 86.0022C30.4589 86.3564 30.4849 87.1002 30.8239 87.5695C31.1628 88.0388 31.7191 88.2779 32.2579 88.4728C34.9696 89.438 38.0636 89.5088 40.6449 90.8194C42.4353 91.7314 43.7824 93.3873 45.5989 94.2463C47.6066 95.1938 49.9706 95.0255 52.0999 94.4234C54.2379 93.8213 56.2282 92.8029 58.3228 92.0502C59.6351 91.5809 60.9997 91.209 62.3729 90.961C63.6418 90.7397 64.8672 91.0496 66.1275 90.6334C66.2839 90.5803 66.4577 90.5094 66.5533 90.3678C66.7272 90.1021 66.5533 89.7302 66.2752 89.5796C66.0058 89.4291 65.6842 89.4203 65.3713 89.3937C63.7461 89.2254 62.6249 87.7821 61.5038 86.7371C59.1571 84.5499 56.5845 82.531 53.673 81.185V81.1761Z" fill="url(#paint10_radial_168_568)"/>
<path d="M51.2291 84.1426C49.8038 83.4785 48.2654 83.1774 46.7271 83.6202C45.6146 83.9478 44.6412 84.8953 43.633 85.4798C43.3028 85.6746 42.9638 85.8694 42.5988 86.0022C42.1816 86.1528 41.7383 86.2236 41.2951 86.2856C40.8084 86.3564 40.3217 86.4273 39.835 86.4981C39.6872 86.5158 39.5395 86.5424 39.4265 86.6309C39.1918 86.8169 39.2005 87.2065 39.383 87.4456C39.5569 87.6847 39.8437 87.8175 40.1305 87.9149C41.5384 88.4108 43.1376 88.4551 44.4761 89.1369C45.406 89.6063 46.1013 90.4741 47.0487 90.9168C48.0916 91.4039 49.317 91.3242 50.4208 91.0054C51.5246 90.6954 52.5589 90.1641 53.6453 89.7745C54.3232 89.5266 55.0272 89.3406 55.7398 89.2078C56.4004 89.0927 57.0348 89.2521 57.6867 89.0395C57.7736 89.013 57.8605 88.9775 57.9039 88.9067C57.9909 88.7739 57.9039 88.5791 57.7562 88.4994C57.6084 88.4197 57.452 88.4197 57.2869 88.402C56.4438 88.3134 55.8615 87.5696 55.2792 87.0294C54.0624 85.896 52.7327 84.8511 51.2204 84.1515L51.2291 84.1426Z" fill="url(#paint11_radial_168_568)"/>
</g>
<defs>
<radialGradient id="paint0_radial_168_568" cx="0" cy="0" r="1" gradientUnits="userSpaceOnUse" gradientTransform="translate(46.0558 35.3726) rotate(-18.0125) scale(62.9216 63.8837)">
<stop stop-color="#C09566"/>
<stop offset="1" stop-color="#AE7B53"/>
</radialGradient>
<radialGradient id="paint1_radial_168_568" cx="0" cy="0" r="1" gradientUnits="userSpaceOnUse" gradientTransform="translate(42.8839 31.2105) scale(43.2473 44.0631)">
<stop stop-color="#C6A57F"/>
<stop offset="0.95" stop-color="#BC926D" stop-opacity="0"/>
</radialGradient>
<radialGradient id="paint2_radial_168_568" cx="0" cy="0" r="1" gradientUnits="userSpaceOnUse" gradientTransform="translate(64.4959 64.9308) rotate(-18.0125) scale(40.6331 41.2543)">
<stop stop-color="#A98C6B"/>
<stop offset="0.95" stop-color="#B48A65"/>
</radialGradient>
<radialGradient id="paint3_radial_168_568" cx="0" cy="0" r="1" gradientUnits="userSpaceOnUse" gradientTransform="translate(66.7857 64.9306) rotate(-18.0125) scale(39.1791 39.7781)">
<stop stop-color="#C09B6F"/>
<stop offset="0.95" stop-color="#AF8661"/>
</radialGradient>
<radialGradient id="paint4_radial_168_568" cx="0" cy="0" r="1" gradientUnits="userSpaceOnUse" gradientTransform="translate(66.2929 40.6107) scale(41.5786 42.3629)">
<stop stop-color="#CEBF8B"/>
<stop offset="0.95" stop-color="#AA8F67"/>
</radialGradient>
<radialGradient id="paint5_radial_168_568" cx="0" cy="0" r="1" gradientUnits="userSpaceOnUse" gradientTransform="translate(64.1444 74.2953) scale(41.5786 42.3629)">
<stop stop-color="#CEBF8B"/>
<stop offset="0.95" stop-color="#AA8F67"/>
</radialGradient>
<radialGradient id="paint6_radial_168_568" cx="0" cy="0" r="1" gradientUnits="userSpaceOnUse" gradientTransform="translate(57.5574 66.0514) scale(41.9958 42.788)">
<stop stop-color="#D0BBA3"/>
<stop offset="0.95" stop-color="#AA8564"/>
</radialGradient>
<radialGradient id="paint7_radial_168_568" cx="0" cy="0" r="1" gradientUnits="userSpaceOnUse" gradientTransform="translate(64.4835 51.635) scale(41.9784 42.7703)">
<stop stop-color="#CEAC85"/>
<stop offset="0.95" stop-color="#AE8B6D"/>
</radialGradient>
<radialGradient id="paint8_radial_168_568" cx="0" cy="0" r="1" gradientUnits="userSpaceOnUse" gradientTransform="translate(63.0163 83.5048) scale(41.6481 42.4338)">
<stop stop-color="#B8A47F"/>
<stop offset="0.95" stop-color="#DCB362"/>
</radialGradient>
<radialGradient id="paint9_radial_168_568" cx="0" cy="0" r="1" gradientUnits="userSpaceOnUse" gradientTransform="translate(62.069 27.124) scale(41.6481 42.4338)">
<stop stop-color="#B8A47F"/>
<stop offset="0.95" stop-color="#DCB362"/>
</radialGradient>
<radialGradient id="paint10_radial_168_568" cx="0" cy="0" r="1" gradientUnits="userSpaceOnUse" gradientTransform="translate(48.5887 87.3393) scale(13.7842 14.0442)">
<stop stop-color="#D6AF83"/>
<stop offset="0.95" stop-color="#BF9F83"/>
</radialGradient>
<radialGradient id="paint11_radial_168_568" cx="0" cy="0" r="1" gradientUnits="userSpaceOnUse" gradientTransform="translate(48.587 87.3393) scale(7.14415 7.27892)">
<stop stop-color="#E0B258"/>
<stop offset="1" stop-color="#B8854A"/>
</radialGradient>
<clipPath id="clip0_168_568">
<rect width="119.498" height="121.752" fill="white" transform="translate(0.335938 0.412109)"/>
</clipPath>
</defs>
</svg>
