<svg width="100%" height="100%" viewBox="0 0 194 47" fill="none" xmlns="http://www.w3.org/2000/svg">
<path d="M3.02078 46.6C2.34078 46.6 1.80078 46.4 1.40078 46C1.00078 45.56 0.800781 44.96 0.800781 44.2V11.2C0.800781 8.95996 1.46078 7.19996 2.78078 5.91996C4.14078 4.63996 6.02078 3.99996 8.42078 3.99996H18.6208C30.0208 3.99996 35.7208 8.77996 35.7208 18.34C35.7208 22.74 34.2608 26.14 31.3408 28.54C28.4608 30.9 24.3008 32.08 18.8608 32.08H5.30078V44.2C5.30078 44.96 5.10078 45.56 4.70078 46C4.30078 46.4 3.74078 46.6 3.02078 46.6ZM18.8608 28.3C22.7408 28.3 25.7408 27.54 27.8608 26.02C30.0208 24.5 31.1008 21.94 31.1008 18.34C31.1008 14.58 30.0608 11.88 27.9808 10.24C25.9008 8.55997 22.8808 7.71996 18.9208 7.71996H8.48078C7.52078 7.71996 6.74078 8.03996 6.14078 8.67996C5.58078 9.31996 5.30078 10.16 5.30078 11.2V28.3H18.8608Z" fill="white"/>
<path d="M46.6286 46.6C45.9486 46.6 45.4086 46.4 45.0086 46C44.6486 45.56 44.4686 44.96 44.4686 44.2V2.85996C44.4686 2.09996 44.6486 1.51996 45.0086 1.11996C45.4086 0.679962 45.9486 0.459961 46.6286 0.459961C47.3086 0.459961 47.8486 0.679962 48.2486 1.11996C48.6486 1.51996 48.8486 2.09996 48.8486 2.85996V44.2C48.8486 44.92 48.6486 45.5 48.2486 45.94C47.8886 46.38 47.3486 46.6 46.6286 46.6Z" fill="white"/>
<path d="M69.4816 46.6C65.5616 46.6 62.4816 45.74 60.2416 44.02C58.0416 42.3 56.9416 39.92 56.9416 36.88C56.9416 33.88 58.1016 31.5 60.4216 29.74C62.7816 27.98 65.9816 27.1 70.0216 27.1C72.3816 27.1 74.4616 27.42 76.2616 28.06C78.1016 28.7 79.5216 29.56 80.5216 30.64V26.8C80.5216 24.52 79.7616 22.78 78.2416 21.58C76.7616 20.38 74.5816 19.78 71.7016 19.78C67.9816 19.78 64.7616 20.66 62.0416 22.42C61.3616 22.82 60.8016 23.02 60.3616 23.02C59.9616 23.02 59.5616 22.86 59.1616 22.54C58.7216 22.18 58.5016 21.72 58.5016 21.16C58.5016 20.56 58.7616 20.06 59.2816 19.66C60.7216 18.54 62.5416 17.66 64.7416 17.02C66.9816 16.34 69.2616 16 71.5816 16C75.8216 16 79.1016 16.96 81.4216 18.88C83.7816 20.8 84.9616 23.5 84.9616 26.98V44.26C84.9616 45.82 84.2416 46.6 82.8016 46.6C82.1616 46.6 81.6416 46.4 81.2416 46C80.8416 45.56 80.6416 45 80.6416 44.32V42.16C78.1616 45.12 74.4416 46.6 69.4816 46.6ZM70.0216 42.94C73.1416 42.94 75.6816 42.36 77.6416 41.2C79.6016 40 80.5816 38.46 80.5816 36.58C80.5816 34.7 79.6616 33.26 77.8216 32.26C76.0216 31.22 73.4616 30.7 70.1416 30.7C67.3416 30.7 65.1816 31.24 63.6616 32.32C62.1416 33.36 61.3816 34.88 61.3816 36.88C61.3816 38.84 62.1216 40.34 63.6016 41.38C65.0816 42.42 67.2216 42.94 70.0216 42.94Z" fill="white"/>
<path d="M95.5319 46.6C94.8519 46.6 94.3119 46.4 93.9119 46C93.5119 45.56 93.3119 44.96 93.3119 44.2V19.72C93.3119 16.4 94.0119 13.52 95.4119 11.08C96.8519 8.59996 98.8919 6.69996 101.532 5.37996C104.172 4.05996 107.272 3.39996 110.832 3.39996C114.392 3.39996 117.472 4.05996 120.072 5.37996C122.712 6.69996 124.732 8.59996 126.132 11.08C127.572 13.52 128.292 16.4 128.292 19.72V44.2C128.292 44.96 128.092 45.56 127.692 46C127.332 46.4 126.792 46.6 126.072 46.6C125.392 46.6 124.832 46.4 124.392 46C123.992 45.56 123.792 44.96 123.792 44.2V19.54C123.792 15.66 122.652 12.64 120.372 10.48C118.092 8.31996 114.912 7.23996 110.832 7.23996C106.832 7.23996 103.652 8.33996 101.292 10.54C98.9719 12.74 97.8119 15.74 97.8119 19.54V44.2C97.8119 44.96 97.6119 45.56 97.2119 46C96.8119 46.4 96.2519 46.6 95.5319 46.6Z" fill="white"/>
<path d="M151.659 46.6C146.459 46.6 142.439 45.26 139.599 42.58C136.759 39.9 135.339 36.1 135.339 31.18C135.339 26.46 136.779 22.76 139.659 20.08C142.539 17.36 146.479 16 151.479 16C154.559 16 157.299 16.5 159.699 17.5C162.099 18.46 163.959 19.84 165.279 21.64C166.639 23.4 167.319 25.42 167.319 27.7C167.319 29.38 166.839 30.68 165.879 31.6C164.959 32.52 163.679 32.98 162.039 32.98H139.839C139.839 36.06 140.879 38.48 142.959 40.24C145.039 41.96 147.939 42.82 151.659 42.82C153.939 42.82 155.899 42.58 157.539 42.1C159.179 41.58 160.719 40.76 162.159 39.64C162.919 39 163.539 38.68 164.019 38.68C164.379 38.68 164.719 38.84 165.039 39.16C165.599 39.64 165.879 40.14 165.879 40.66C165.879 41.06 165.639 41.5 165.159 41.98C163.519 43.54 161.599 44.7 159.399 45.46C157.199 46.22 154.619 46.6 151.659 46.6ZM160.719 29.44C161.439 29.44 161.979 29.3 162.339 29.02C162.699 28.7 162.879 28.14 162.879 27.34C162.879 25.9 162.399 24.6 161.439 23.44C160.479 22.28 159.119 21.38 157.359 20.74C155.639 20.1 153.679 19.78 151.479 19.78C147.919 19.78 145.099 20.66 143.019 22.42C140.979 24.14 139.959 26.48 139.959 29.44H160.719Z" fill="white"/>
<path d="M192.624 40.06C193.064 40.42 193.284 40.84 193.284 41.32C193.284 41.72 193.104 42.2 192.744 42.76C191.904 43.92 190.744 44.86 189.264 45.58C187.784 46.26 186.264 46.6 184.704 46.6C182.064 46.6 179.984 45.82 178.464 44.26C176.944 42.7 176.184 40.56 176.184 37.84V20.26H172.944C171.344 20.26 170.544 19.64 170.544 18.4C170.544 17.84 170.744 17.4 171.144 17.08C171.584 16.76 172.184 16.6 172.944 16.6H176.184V6.33996C176.184 5.57997 176.364 4.99996 176.724 4.59996C177.124 4.15996 177.684 3.93996 178.404 3.93996C179.084 3.93996 179.604 4.15996 179.964 4.59996C180.364 4.99996 180.564 5.57997 180.564 6.33996V16.6H188.724C189.444 16.6 190.004 16.76 190.404 17.08C190.844 17.36 191.064 17.8 191.064 18.4C191.064 19.64 190.284 20.26 188.724 20.26H180.564V38.2C180.564 41.28 182.004 42.82 184.884 42.82C185.804 42.82 186.644 42.64 187.404 42.28C188.164 41.92 188.924 41.34 189.684 40.54C190.284 39.9 190.864 39.58 191.424 39.58C191.784 39.58 192.184 39.74 192.624 40.06Z" fill="white"/>
</svg>
