<svg width="40" height="40" viewBox="0 0 40 40" fill="none" xmlns="http://www.w3.org/2000/svg">
<path d="M40 20C40 31.0474 31.0474 40 20 40C14.4212 40 9.38626 37.7214 5.75524 34.039C5.20397 33.4803 4.6821 32.8923 4.20434 32.2676C1.57295 28.8864 0 24.6307 0 20C0 18.8093 0.102903 17.6479 0.30871 16.516C0.441014 15.7148 0.632121 14.9357 0.867328 14.1713C2.54318 8.65123 6.54906 4.13818 11.7457 1.77876C12.2822 1.5362 12.8262 1.31569 13.3774 1.12459C15.4502 0.396913 17.6773 0 20 0C26.1448 0 31.6428 2.77104 35.3105 7.12973C36.1632 8.14406 36.9203 9.2466 37.5597 10.4153C39.118 13.2598 40 16.5307 40 20Z" fill="url(#paint0_radial_168_911)"/>
<path style="mix-blend-mode:screen" opacity="0.92" d="M27.0562 6.30635C30.6284 10.8341 28.416 18.5298 22.1168 23.4986C18.9342 26.005 15.3252 27.3354 12.069 27.453C11.5766 27.475 11.0841 27.4603 10.6137 27.4236C8.01906 27.2178 5.74783 26.1814 4.24838 24.285C3.86617 23.7999 3.55011 23.2707 3.3002 22.7194C3.11645 22.3299 2.96944 21.9256 2.85919 21.5066C2.02861 18.4857 2.85919 14.8326 5.05691 11.5324C5.28477 11.1943 5.51998 10.8561 5.77723 10.5254C6.72541 9.2979 7.8647 8.12921 9.18774 7.08548C12.6938 4.32179 16.7217 2.99139 20.2205 3.13105C21.0363 3.16045 21.8228 3.27805 22.5652 3.46916C24.3733 3.93957 25.9316 4.8804 27.0562 6.30635Z" fill="url(#paint1_linear_168_911)"/>
<g style="mix-blend-mode:multiply" opacity="0.34">
<path d="M24.5424 24.8139C24.6086 25.843 23.5208 26.5706 22.5138 26.7985C20.4778 27.2689 18.3682 26.6589 16.2808 26.4971C14.1933 26.3354 11.753 26.8573 10.8049 28.7169C10.4594 29.3931 10.3565 30.1796 10.0845 30.8852C9.40096 32.6566 7.6516 33.7665 5.75524 34.0385C2.19772 30.4295 0 25.4755 0 19.9995C0 17.9709 0.30136 16.0157 0.859978 14.1708C2.33738 13.8547 3.95443 14.1781 5.00551 15.2807C6.24035 16.5817 6.81367 18.6912 8.53363 19.1984C10.0992 19.6541 11.7163 18.4633 13.3407 18.6103C15.9647 18.8455 17.2437 22.2708 19.7942 22.9249C20.6983 23.1528 21.6465 23.0058 22.5726 23.1454C23.4914 23.2777 24.4836 23.8805 24.5424 24.8139Z" fill="url(#paint2_linear_168_911)"/>
</g>
<g style="mix-blend-mode:multiply" opacity="0.34">
<path d="M22.5726 24.6604C22.6314 25.4836 21.6244 26.0643 20.6762 26.248C18.7725 26.6229 16.7953 26.1378 14.8548 26.0055C12.907 25.8805 10.6211 26.2921 9.73172 27.7842C9.40831 28.3281 9.31275 28.9529 9.05549 29.5189C8.56303 30.6141 6.1154 31.724 4.21169 32.2679C1.57295 28.8868 0 24.631 0 20.0003C0 18.8096 0.102903 17.6483 0.30871 16.5163C0.345461 16.3914 0.389563 16.2664 0.433664 16.1415C1.81551 15.8915 3.32231 16.1488 4.30724 17.0308C5.46123 18.0672 5.99779 19.7651 7.6075 20.1694C9.07019 20.5369 10.5843 19.5814 12.1058 19.6916C14.5608 19.8827 15.7516 22.6244 18.1404 23.1462C18.9857 23.33 19.875 23.2124 20.735 23.3226C21.595 23.4329 22.5211 23.9107 22.5799 24.653L22.5726 24.6604Z" fill="url(#paint3_linear_168_911)"/>
</g>
<g style="mix-blend-mode:multiply" opacity="0.34">
<path d="M37.5592 10.4226C36.4346 10.0331 35.6628 9.01139 34.722 8.26167C33.7738 7.51194 32.2597 7.10768 31.4438 8.00441C30.7529 8.76149 31.0028 9.94487 30.8558 10.9519C30.7529 11.6722 30.0179 13.2819 29.2093 13.4803C27.923 13.789 28.3053 12.8923 28.1583 12.1058C27.9083 10.7755 28.0995 8.82029 26.2398 8.65858C25.7915 8.61448 25.3358 8.76149 24.8874 8.71003C23.976 8.61448 23.3144 7.77655 22.9469 6.93128C22.5868 6.086 22.381 5.15252 21.815 4.42484C20.639 2.88864 18.4045 2.80779 16.4714 2.84454C14.8249 2.87394 12.9433 2.78574 11.7305 1.77876C14.2516 0.632121 17.0447 0 19.9921 0C27.5702 0 34.156 4.21169 37.5519 10.4226H37.5592Z" fill="url(#paint4_linear_168_911)"/>
</g>
<g style="mix-blend-mode:multiply" opacity="0.34">
<path d="M35.3096 7.12973C34.9788 6.85777 34.6554 6.57846 34.31 6.32856C33.4426 5.71114 32.0461 5.38037 31.3037 6.1154C30.6716 6.74017 30.8995 7.7104 30.7598 8.54098C30.6643 9.129 29.9954 10.452 29.2457 10.6137C28.0696 10.8637 28.4151 10.136 28.2754 9.48181C28.0476 8.38662 28.2166 6.78427 26.5114 6.65197C26.0998 6.61522 25.6881 6.74017 25.2692 6.69607C24.4313 6.61521 23.8285 5.92429 23.4904 5.23337C23.1597 4.54245 22.9686 3.77802 22.454 3.1753C21.3736 1.91106 19.3228 1.85226 17.5441 1.88166C16.1108 1.90371 14.479 1.83756 13.3691 1.12459C15.4419 0.396913 17.669 0 19.9917 0C26.1365 0 31.6345 2.77104 35.3023 7.12973H35.3096Z" fill="url(#paint5_linear_168_911)"/>
</g>
<path style="mix-blend-mode:multiply" opacity="0.92" d="M40.0002 20.0004C40.0002 31.0478 31.0476 40.0004 20.0002 40.0004C14.4214 40.0004 9.38648 37.7218 5.75546 34.0394C4.76318 33.0324 3.8738 31.9225 3.10938 30.7244C6.42433 33.172 10.5258 34.62 14.9653 34.62C26.0127 34.62 34.9653 25.6674 34.9653 14.62C34.9653 11.1507 34.0833 7.8872 32.525 5.03531C32.3119 4.64575 32.084 4.26353 31.8488 3.88867C34.1935 5.61598 36.1487 7.85045 37.5599 10.423C39.1182 13.2676 40.0002 16.5384 40.0002 20.0077V20.0004Z" fill="url(#paint6_radial_168_911)"/>
<path style="mix-blend-mode:multiply" opacity="0.92" d="M39.9997 20.0001C39.9997 31.0475 31.0471 40.0001 19.9997 40.0001C14.4209 40.0001 9.38598 37.7215 5.75496 34.039C5.10079 33.3775 4.49072 32.6719 3.93945 31.9222C7.50432 35.2445 12.2967 37.2805 17.5594 37.2805C28.6069 37.2805 37.5594 28.3279 37.5594 17.2805C37.5594 13.8112 36.6774 10.5477 35.1192 7.69577C34.6708 6.8799 34.171 6.10077 33.6197 5.3584C35.1853 6.81375 36.5231 8.519 37.5594 10.4154C39.1177 13.2599 39.9997 16.5308 39.9997 20.0001Z" fill="url(#paint7_radial_168_911)"/>
<defs>
<radialGradient id="paint0_radial_168_911" cx="0" cy="0" r="1" gradientUnits="userSpaceOnUse" gradientTransform="translate(15.803 17.7067) scale(23.6751)">
<stop stop-color="#E5BF2C"/>
<stop offset="0.94" stop-color="#FF5E3B"/>
</radialGradient>
<linearGradient id="paint1_linear_168_911" x1="8.92767" y1="10.0995" x2="24.0734" y2="21.7868" gradientUnits="userSpaceOnUse">
<stop stop-color="#E5BF2C"/>
<stop offset="1" stop-color="#FF5E3B" stop-opacity="0"/>
</linearGradient>
<linearGradient id="paint2_linear_168_911" x1="-8.26167" y1="24.0495" x2="16.2808" y2="24.0495" gradientUnits="userSpaceOnUse">
<stop stop-color="#E5BF2C"/>
<stop offset="0.94" stop-color="#FF5E3B"/>
</linearGradient>
<linearGradient id="paint3_linear_168_911" x1="-7.60015" y1="24.1606" x2="14.9724" y2="24.1606" gradientUnits="userSpaceOnUse">
<stop stop-color="#E5BF2C"/>
<stop offset="0.94" stop-color="#FF5E3B"/>
</linearGradient>
<linearGradient id="paint4_linear_168_911" x1="24.5125" y1="0.0441014" x2="24.6228" y2="4.88791" gradientUnits="userSpaceOnUse">
<stop stop-color="#E5BF2C"/>
<stop offset="0.94" stop-color="#FF5E3B"/>
</linearGradient>
<linearGradient id="paint5_linear_168_911" x1="24.2475" y1="0.0147005" x2="24.3357" y2="3.84418" gradientUnits="userSpaceOnUse">
<stop stop-color="#E5BF2C"/>
<stop offset="0.94" stop-color="#FF5E3B"/>
</linearGradient>
<radialGradient id="paint6_radial_168_911" cx="0" cy="0" r="1" gradientUnits="userSpaceOnUse" gradientTransform="translate(17.6849 19.8754) scale(21.6171 21.6171)">
<stop stop-color="#E5BF2C"/>
<stop offset="1" stop-color="#FF5E3B" stop-opacity="0"/>
</radialGradient>
<radialGradient id="paint7_radial_168_911" cx="0" cy="0" r="1" gradientUnits="userSpaceOnUse" gradientTransform="translate(18.1842 20.691) scale(20.9555 20.9555)">
<stop stop-color="#E5BF2C"/>
<stop offset="1" stop-color="#FF5E3B" stop-opacity="0"/>
</radialGradient>
</defs>
</svg>
