<svg width="32" height="32" viewBox="0 0 32 32" fill="none" xmlns="http://www.w3.org/2000/svg">
<path d="M26.0143 12.9976C26.0143 13.1839 26.0143 13.3654 26 13.5469V13.566C26 13.6998 25.9857 13.8383 25.9761 13.9673C25.9666 14.0867 25.957 14.2109 25.9427 14.3256C25.9283 14.4975 25.9044 14.6647 25.8806 14.8367C25.871 14.8797 25.8662 14.9274 25.8614 14.98C25.8376 15.1424 25.8089 15.3048 25.7754 15.4672C25.7516 15.5962 25.7229 15.7299 25.6942 15.8541C25.6656 15.9879 25.6321 16.1168 25.6035 16.2458C25.4936 16.6614 25.3693 17.0722 25.2212 17.4687C25.183 17.569 25.1496 17.6645 25.1066 17.7696C25.0397 17.9416 24.9632 18.1135 24.8868 18.2855C24.8199 18.4336 24.753 18.5864 24.6814 18.7345C24.6049 18.8922 24.5237 19.045 24.4377 19.1979C24.3899 19.2886 24.3374 19.3842 24.2848 19.4749C24.2323 19.5657 24.1797 19.6564 24.1272 19.7472C24.0555 19.8666 23.9838 19.9765 23.9074 20.0911C23.8118 20.2344 23.7115 20.3873 23.6064 20.5306C23.53 20.6357 23.4535 20.7408 23.3771 20.8411C23.3054 20.9366 23.2337 21.0322 23.1573 21.1229C22.9471 21.3809 22.7273 21.6388 22.498 21.8824C22.3976 21.9875 22.3021 22.0926 22.197 22.1929C22.1827 22.2072 22.1731 22.2168 22.1588 22.2311C22.0584 22.3314 21.9533 22.4317 21.8482 22.5273C21.6237 22.7327 21.3943 22.9381 21.1602 23.1196C21.0408 23.2151 20.9261 23.3107 20.8019 23.3967C20.7924 23.4062 20.7876 23.411 20.778 23.4158C20.6634 23.5017 20.5487 23.583 20.4293 23.6642C20.305 23.7549 20.1808 23.8361 20.0518 23.9173C19.9228 24.0033 19.7938 24.0845 19.6648 24.1609C19.2205 24.4237 18.7619 24.6625 18.2889 24.8775C18.2124 24.9109 18.136 24.9443 18.0595 24.973C17.5961 25.1688 17.1231 25.3408 16.6358 25.4793C16.5689 25.4984 16.502 25.5175 16.4351 25.5367C16.373 25.5558 16.3157 25.5749 16.2488 25.5892C16.0959 25.6274 15.9383 25.6656 15.7854 25.6991C15.6946 25.7182 15.6038 25.7373 15.513 25.7564C15.4223 25.7707 15.3315 25.7898 15.2407 25.8042C14.8681 25.871 14.4859 25.9236 14.1036 25.9475C13.9603 25.9618 13.8122 25.9713 13.6689 25.9809C13.6307 25.9809 13.5829 25.9809 13.5399 25.9809C13.3631 25.9904 13.1816 25.9952 13 25.9952C12.8184 25.9952 12.6465 25.9952 12.4697 25.9809C12.2547 25.9713 12.0445 25.9618 11.839 25.9427C11.6718 25.9284 11.5094 25.9092 11.3422 25.8901C11.194 25.871 11.0412 25.8519 10.8931 25.8233C10.8309 25.8137 10.7736 25.8089 10.7115 25.7946C10.6398 25.7803 10.5682 25.7707 10.4965 25.7564C10.4822 25.7564 10.4631 25.7564 10.4487 25.7421C10.272 25.7038 10.0904 25.6704 9.90886 25.6226C9.73686 25.5844 9.55531 25.5319 9.38332 25.4793C9.23999 25.4411 9.09188 25.3934 8.94855 25.3456C8.85777 25.3169 8.77655 25.2883 8.68578 25.2548C8.61411 25.2309 8.54245 25.2071 8.47556 25.1784C8.15068 25.059 7.83535 24.93 7.52481 24.7819C7.38148 24.715 7.23815 24.6434 7.09482 24.5717C6.94671 24.5001 6.78905 24.4189 6.64572 24.3329C6.50717 24.2565 6.37339 24.1753 6.23484 24.0941C6.16795 24.0511 6.09151 24.0081 6.02462 23.9603C5.95774 23.9221 5.88607 23.8696 5.81918 23.8266C5.69974 23.7454 5.57075 23.6594 5.4513 23.5734C5.30797 23.4731 5.16465 23.368 5.02132 23.2534C4.89232 23.153 4.76332 23.048 4.6391 22.9429C4.51966 22.8426 4.40022 22.7422 4.28556 22.6371C4.16612 22.5321 4.05145 22.427 3.94157 22.3171C3.92723 22.3028 3.91768 22.298 3.90812 22.2837C3.80301 22.1834 3.70268 22.0783 3.60235 21.9732C3.50202 21.8681 3.40169 21.7582 3.30136 21.6484C3.20581 21.5385 3.10548 21.4286 3.0147 21.3188C2.92393 21.2041 2.82837 21.0942 2.7376 20.9748C1.88717 19.8809 1.20875 18.6533 0.740537 17.3206C0.257993 15.9688 0 14.5071 0 12.9928C0.014333 9.10931 1.71996 5.62227 4.42411 3.23866C4.64866 3.04281 4.88754 2.84696 5.12165 2.67022C5.46086 2.4075 5.81918 2.1591 6.18229 1.94415C6.23484 1.90593 6.29217 1.8725 6.3495 1.83906C6.49283 1.7483 6.64094 1.6671 6.76994 1.59544C6.86071 1.5429 6.95149 1.49513 7.03271 1.45214C7.08526 1.42348 7.14259 1.39482 7.19515 1.37094C7.72069 1.10344 8.26534 0.878927 8.81955 0.692633C8.90077 0.663972 8.98199 0.635311 9.06321 0.611428C9.72253 0.401249 10.3962 0.243616 11.0842 0.143303C11.194 0.128973 11.3039 0.109866 11.4138 0.100312C11.5571 0.0812052 11.71 0.0620981 11.8534 0.0525446C12.0349 0.0382142 12.2212 0.0238839 12.4028 0.0143303C12.6082 0 12.8137 0 13.0191 0C13.1959 0 13.3727 0 13.5447 0.0143303C13.7214 0.0143303 13.8982 0.0286607 14.0702 0.0477678C14.247 0.0620981 14.4237 0.0812052 14.5957 0.100312C14.7677 0.119419 14.9397 0.143303 15.1117 0.171964C15.4653 0.229285 15.8093 0.300937 16.1533 0.386919C16.6645 0.511115 17.1613 0.663972 17.6439 0.850266C18.136 1.03656 18.6137 1.25629 19.0772 1.49513C19.2062 1.56678 19.3352 1.63843 19.4642 1.71009C19.4881 1.72442 19.5119 1.73875 19.5358 1.7483C19.5645 1.76263 19.5884 1.78174 19.6171 1.79607C19.6983 1.84384 19.7843 1.8916 19.8655 1.93937C19.9037 1.96326 19.9467 1.98714 19.9849 2.02058C20.0518 2.05879 20.1139 2.10178 20.1808 2.14477C20.2668 2.19732 20.348 2.25464 20.4293 2.31196C20.5726 2.4075 20.7111 2.51258 20.8545 2.61767C20.8688 2.632 20.8927 2.64633 20.9166 2.66067C20.9835 2.70843 21.0695 2.77531 21.1698 2.85651C21.3943 3.04281 21.6189 3.23388 21.8339 3.43928C21.939 3.53482 22.0393 3.63513 22.1397 3.73066C22.24 3.8262 22.3355 3.92651 22.4359 4.0316C22.5553 4.15102 22.67 4.27999 22.7846 4.40897C22.8181 4.44718 22.8515 4.48062 22.885 4.52361C22.9232 4.5666 22.9614 4.61437 22.9996 4.66214C23.1716 4.85798 23.3293 5.06338 23.487 5.27356C23.5777 5.40254 23.6733 5.53629 23.7641 5.67003C23.9217 5.89932 24.0698 6.13338 24.2179 6.377C24.3135 6.53941 24.4043 6.70182 24.4903 6.86423C24.5189 6.90244 24.538 6.94543 24.5571 6.98843C24.6479 7.15561 24.7291 7.32758 24.8104 7.50432C24.9298 7.75749 25.0445 8.02021 25.1448 8.28293C25.1974 8.41668 25.2451 8.55043 25.2929 8.68418C25.3311 8.79882 25.3694 8.90869 25.4076 9.02333C25.4362 9.11409 25.4649 9.1953 25.4888 9.28606C25.6321 9.77329 25.7516 10.2748 25.8376 10.7764C25.8519 10.8672 25.871 10.9484 25.8758 11.0391C25.8758 11.0487 25.8758 11.0535 25.8758 11.0582C25.8901 11.149 25.9044 11.235 25.914 11.3257C25.914 11.3401 25.9236 11.3592 25.9236 11.3735C25.9331 11.4404 25.9379 11.5025 25.9474 11.5694C25.957 11.6362 25.9618 11.6983 25.9618 11.7652C25.9713 11.8177 25.9761 11.8655 25.9761 11.9181C25.9761 11.9563 25.9761 11.9945 25.9857 12.0327C26.0096 12.348 26.0239 12.6728 26.0239 12.9976H26.0143Z" fill="url(#paint0_radial_168_924)"/>
<path style="mix-blend-mode:screen" d="M18.729 7.12228C18.7673 7.20826 18.8007 7.29425 18.8341 7.38023V7.38978C18.8628 7.45188 18.8867 7.51875 18.9058 7.58085C18.9249 7.63817 18.944 7.70027 18.9584 7.75759C18.9823 7.8388 19.0061 7.92478 19.0253 8.01076C19.0253 8.03465 19.0348 8.05853 19.0444 8.08241C19.0635 8.16362 19.0778 8.24482 19.0921 8.33081C19.1017 8.39768 19.116 8.46456 19.1256 8.53143C19.1351 8.59831 19.1447 8.66996 19.1495 8.73683C19.1686 8.95656 19.1781 9.18107 19.1734 9.4008C19.1734 9.45813 19.1734 9.51067 19.1686 9.56799C19.1638 9.6683 19.1542 9.76384 19.1447 9.86415C19.1351 9.95013 19.1256 10.0361 19.116 10.1269C19.1017 10.2176 19.0874 10.3132 19.0682 10.4039C19.0587 10.4612 19.0444 10.5138 19.0348 10.5711C19.0205 10.6237 19.0109 10.681 18.9966 10.7383C18.9775 10.81 18.9584 10.8816 18.9393 10.9533C18.9106 11.044 18.8819 11.1396 18.8533 11.2351C18.8294 11.302 18.8055 11.3736 18.7816 11.4405C18.7577 11.5026 18.7338 11.5647 18.7099 11.6268C18.6383 11.7987 18.5618 11.9755 18.4758 12.1475C18.4376 12.2239 18.4042 12.2955 18.3612 12.3672C18.3612 12.3767 18.3516 12.3863 18.3468 12.3911C18.3086 12.4627 18.2656 12.5344 18.2226 12.606C18.1318 12.7589 18.0411 12.9117 17.9407 13.0598C17.8929 13.1362 17.8404 13.2079 17.7878 13.2795C17.7878 13.2843 17.7831 13.2891 17.7783 13.2939C17.7305 13.3608 17.678 13.4276 17.6254 13.4993C17.5681 13.5709 17.5155 13.6426 17.4582 13.7142C17.4008 13.7859 17.3387 13.8575 17.2814 13.9244C17.0712 14.1585 16.8514 14.3878 16.6173 14.6075C16.5791 14.6409 16.5409 14.6791 16.5026 14.7126C16.2733 14.9228 16.0249 15.1234 15.7669 15.3145C15.7334 15.3383 15.6952 15.367 15.6618 15.3909C15.6283 15.4148 15.5997 15.4387 15.5614 15.4625C15.4802 15.5199 15.3942 15.5772 15.3082 15.6345C15.2605 15.6679 15.2079 15.7014 15.1601 15.73C15.1123 15.7587 15.0598 15.7921 15.012 15.8208C14.8066 15.945 14.5916 16.0692 14.3718 16.1791C14.2906 16.222 14.2046 16.265 14.1234 16.308C14.0995 16.3176 14.0756 16.3319 14.0469 16.3415C13.9418 16.3892 13.8415 16.437 13.7316 16.4848C13.6265 16.5325 13.5262 16.5755 13.4163 16.6137C13.2873 16.6663 13.1631 16.7141 13.0388 16.757C12.9385 16.7953 12.8382 16.8287 12.7379 16.8621C12.6471 16.8908 12.5515 16.9195 12.4607 16.9481C12.4225 16.9577 12.3843 16.972 12.3461 16.9816C12.3031 16.9959 12.2553 17.0054 12.2123 17.0198C12.2028 17.0198 12.1932 17.0245 12.1836 17.0245C12.0738 17.0532 11.9591 17.0819 11.8444 17.1105C11.7345 17.1344 11.6199 17.1583 11.5052 17.1822C11.4097 17.2013 11.3189 17.2156 11.2233 17.2299C11.166 17.2395 11.1087 17.249 11.0513 17.2586C11.0036 17.2682 10.9606 17.2729 10.9128 17.2777C10.6978 17.3064 10.4876 17.3255 10.2726 17.3398C10.1723 17.3446 10.0767 17.3494 9.97637 17.3541C9.87126 17.3541 9.76615 17.3589 9.66582 17.3541C9.57027 17.3541 9.47472 17.3541 9.37916 17.3494C9.33139 17.3494 9.27883 17.3494 9.22628 17.3398C9.1785 17.3398 9.12595 17.335 9.07817 17.3303C8.99217 17.3255 8.9014 17.3159 8.81062 17.3064C8.70551 17.2968 8.6004 17.2825 8.4953 17.2682C8.39974 17.2538 8.29941 17.2395 8.20864 17.2204C8.11786 17.2013 8.02709 17.187 7.94109 17.1678C7.85031 17.1487 7.75954 17.1296 7.67354 17.1057C7.66398 17.1057 7.65443 17.1057 7.64965 17.101C7.56843 17.0819 7.48721 17.058 7.40599 17.0341C7.32477 17.0102 7.24355 16.9863 7.16233 16.9624C7.08111 16.9386 7.00467 16.9099 6.92823 16.8812C6.85178 16.8526 6.77056 16.8239 6.6989 16.7905C5.97747 16.4991 5.32771 16.1074 4.78306 15.6106C4.22407 15.1091 3.77975 14.4976 3.4692 13.7954C2.68089 11.9946 2.9771 9.9358 4.08552 8.13974C4.1763 7.99165 4.27663 7.8388 4.38173 7.6955C4.52984 7.48532 4.6875 7.27992 4.8595 7.08407C4.88339 7.05063 4.90728 7.02197 4.93594 6.99331C5.00283 6.91688 5.07449 6.84045 5.13183 6.77358C5.17483 6.72581 5.21782 6.67804 5.25605 6.63983C5.27993 6.61117 5.3086 6.58728 5.33249 6.55862C5.5857 6.30068 5.85803 6.05706 6.14947 5.82778C6.19247 5.79434 6.23547 5.7609 6.27369 5.72746C6.61768 5.45996 6.98556 5.21157 7.36777 4.99184C7.42988 4.9584 7.49199 4.92019 7.54932 4.88675C7.63054 4.83898 7.71654 4.79599 7.79776 4.753C7.90287 4.70046 8.00798 4.64313 8.11308 4.59537C8.23253 4.53805 8.35197 4.48072 8.47141 4.42818C8.57652 4.38041 8.67685 4.33742 8.78196 4.29921C8.88706 4.25622 8.99217 4.218 9.09728 4.17979C9.20239 4.14157 9.31228 4.10336 9.41738 4.06992C9.52249 4.03648 9.6276 4.00305 9.73271 3.96961C9.95248 3.90751 10.1723 3.85019 10.392 3.80242C10.7169 3.73077 11.0418 3.67345 11.3619 3.63523C11.6915 3.59702 12.0164 3.57314 12.3365 3.56836C12.4273 3.56836 12.5181 3.56836 12.6089 3.56836C12.628 3.56836 12.6423 3.56836 12.6614 3.56836C12.6805 3.56836 12.6996 3.56836 12.7187 3.56836C12.7761 3.56836 12.8382 3.56836 12.8955 3.56836C12.9242 3.56836 12.9528 3.56836 12.9815 3.57314C13.0293 3.57314 13.0723 3.57314 13.1201 3.58269C13.1822 3.58269 13.2395 3.59224 13.2968 3.59702C13.4019 3.60657 13.5023 3.61613 13.6074 3.63046C13.6217 3.63046 13.6361 3.63046 13.6504 3.63523C13.6982 3.64001 13.7651 3.64956 13.8415 3.65912C14.0135 3.68778 14.1807 3.71644 14.3479 3.75943C14.4291 3.77854 14.5104 3.79764 14.5868 3.81675C14.668 3.83586 14.7445 3.85974 14.8209 3.87885C14.9165 3.90273 15.0072 3.93139 15.1028 3.96483C15.1315 3.97439 15.1601 3.97916 15.184 3.99349C15.2175 4.00305 15.2461 4.01738 15.2796 4.02693C15.4181 4.0747 15.5567 4.12724 15.6904 4.18456C15.7717 4.22278 15.8529 4.26099 15.9341 4.29921C16.0727 4.36608 16.2112 4.43773 16.345 4.50938C16.4358 4.55715 16.517 4.6097 16.603 4.66702C16.6269 4.67657 16.646 4.6909 16.6699 4.70523C16.7559 4.75778 16.8419 4.81988 16.9231 4.8772C17.0473 4.96318 17.1667 5.05871 17.2766 5.15425C17.334 5.20202 17.3913 5.24978 17.4438 5.30233C17.4916 5.34532 17.5346 5.38831 17.5776 5.4313C17.6111 5.46474 17.6445 5.49818 17.678 5.53161C17.8643 5.71791 18.0315 5.92331 18.1844 6.13349C18.213 6.1717 18.2369 6.20514 18.2608 6.24335C18.2608 6.24335 18.2656 6.24813 18.2656 6.25291C18.2943 6.29112 18.3182 6.32934 18.342 6.36755C18.3468 6.37233 18.3516 6.38188 18.3564 6.38666C18.3755 6.41532 18.3898 6.44398 18.4089 6.47264C18.428 6.5013 18.4424 6.52996 18.4567 6.55862C18.471 6.58251 18.4854 6.60161 18.4997 6.6255C18.5093 6.63983 18.5188 6.65893 18.5284 6.67804C18.6048 6.81657 18.6813 6.96465 18.7434 7.11273L18.729 7.12228Z" fill="url(#paint1_radial_168_924)"/>
<path style="mix-blend-mode:multiply" opacity="0.35" d="M26.0148 12.998C26.0148 13.1843 26.0148 13.3659 26.0005 13.5474V13.5665C26.0005 13.7002 25.9861 13.8388 25.9766 13.9677C25.967 14.0871 25.9575 14.2113 25.9431 14.326C25.9288 14.4979 25.9049 14.6651 25.881 14.8371C25.8715 14.8801 25.8667 14.9279 25.8619 14.9804C25.838 15.1428 25.8094 15.3052 25.7759 15.4676C25.752 15.5966 25.7234 15.7256 25.6947 15.8546C25.666 15.9883 25.6326 16.1173 25.6039 16.2462C25.494 16.6618 25.3698 17.0726 25.2217 17.4691C25.1835 17.5694 25.1501 17.6649 25.1071 17.77C25.0402 17.942 24.9637 18.114 24.8873 18.2859C24.8204 18.434 24.7535 18.5869 24.6818 18.7349C24.6054 18.8926 24.5242 19.0454 24.4382 19.1983C24.3904 19.2891 24.3379 19.3846 24.2853 19.4753C24.2327 19.5661 24.1802 19.6569 24.1276 19.7476C24.056 19.867 23.9843 19.9769 23.9079 20.0916C23.8123 20.2349 23.712 20.3877 23.6069 20.531C23.5304 20.6361 23.454 20.7412 23.3775 20.8415C23.3059 20.937 23.2342 21.0326 23.1578 21.1233C22.9476 21.3813 22.7278 21.6392 22.4985 21.8828C22.3981 21.9879 22.3026 22.093 22.1975 22.1933C22.1831 22.2077 22.1736 22.2172 22.1592 22.2315C22.0589 22.3319 21.9538 22.4322 21.8487 22.5277C21.6241 22.7331 21.3948 22.9385 21.1607 23.12C21.0413 23.2156 20.9266 23.3111 20.8024 23.3971C20.7928 23.4066 20.7881 23.4114 20.7785 23.4162C20.6638 23.5022 20.5492 23.5834 20.4297 23.6646C20.3055 23.7553 20.1813 23.8365 20.0523 23.9178C19.9233 24.0037 19.7943 24.0849 19.6653 24.1614C19.221 24.4241 18.7623 24.6629 18.2893 24.8779C18.2129 24.9113 18.1365 24.9448 18.06 24.9734C17.5966 25.1693 17.1236 25.3412 16.6363 25.4798C16.5694 25.4989 16.5025 25.518 16.4356 25.5371C16.3735 25.5562 16.3162 25.5753 16.2493 25.5896C16.0964 25.6278 15.9387 25.6661 15.7858 25.6995C15.6951 25.7186 15.6043 25.7377 15.5135 25.7568C15.4227 25.7711 15.332 25.7902 15.2412 25.8046C14.8685 25.8715 14.4863 25.924 14.1041 25.9479C13.9608 25.9622 13.8127 25.9718 13.6693 25.9813C13.6311 25.9813 13.5833 25.9813 13.5403 25.9813C13.3636 25.9909 13.182 25.9956 13.0005 25.9956C12.8189 25.9956 12.6469 25.9957 12.4702 25.9813C12.2552 25.9718 12.0449 25.9622 11.8395 25.9431C11.6723 25.9288 11.5098 25.9097 11.3426 25.8906C11.1945 25.8715 11.0416 25.8523 10.8935 25.8237C10.8314 25.8141 10.7741 25.8094 10.712 25.795C10.6403 25.7807 10.5686 25.7711 10.497 25.7568C10.4827 25.7568 10.4635 25.7568 10.4492 25.7425C10.2724 25.7043 10.0909 25.6708 9.90933 25.6231C9.73734 25.5848 9.55579 25.5323 9.38379 25.4798C9.24046 25.4415 9.09235 25.3938 8.94902 25.346C8.85825 25.3173 8.77703 25.2887 8.68625 25.2552C8.61459 25.2314 8.54292 25.2075 8.47603 25.1788C8.15115 25.0594 7.83583 24.9304 7.52528 24.7823C7.38195 24.7155 7.23862 24.6438 7.09529 24.5722C6.94719 24.5005 6.78952 24.4193 6.64619 24.3333C6.50764 24.2569 6.37387 24.1757 6.23531 24.0945C6.16843 24.0515 6.09198 24.0085 6.0251 23.9607C5.95821 23.9225 5.88655 23.87 5.81966 23.827C5.70022 23.7458 5.57122 23.6598 5.45178 23.5738C5.30845 23.4735 5.16512 23.3684 5.02179 23.2538C4.89279 23.1535 4.7638 23.0484 4.63958 22.9433C4.52014 22.843 4.40069 22.7427 4.28603 22.6376C4.16659 22.5325 4.05193 22.4274 3.94204 22.3175C3.92771 22.3032 3.91815 22.2984 3.9086 22.2841C3.80349 22.1838 3.70316 22.0787 3.60283 21.9736C3.5025 21.8685 3.40217 21.7586 3.30183 21.6488C3.20628 21.5389 3.10595 21.4291 3.01518 21.3192C2.91484 21.1998 2.81929 21.0851 2.72852 20.9657C2.72852 20.9657 2.73807 20.9657 2.74285 20.9657C4.63958 22.0548 6.8373 22.671 9.18313 22.671C16.3592 22.671 22.1831 16.8481 22.1831 9.66862C22.1831 8.33113 21.9825 7.0414 21.605 5.8281C21.4999 5.49372 21.3853 5.15935 21.2563 4.8393C20.7976 3.70243 20.1861 2.64198 19.4503 1.69141C19.4742 1.70574 19.4981 1.72007 19.522 1.72962C19.5506 1.74395 19.5745 1.76306 19.6032 1.77739C19.6844 1.82516 19.7704 1.87292 19.8516 1.92069C19.8899 1.94458 19.9329 1.96846 19.9711 2.0019C20.038 2.04011 20.1001 2.0831 20.167 2.12609C20.253 2.17864 20.3342 2.23596 20.4154 2.29328C20.5587 2.38882 20.6973 2.4939 20.8406 2.59899C20.8549 2.61332 20.8788 2.62765 20.9027 2.64198C21.2228 2.89038 21.5286 3.14832 21.82 3.4206C21.9251 3.51614 22.0255 3.61645 22.1258 3.71198C22.2261 3.80752 22.3217 3.90783 22.422 4.01292C22.5415 4.13234 22.6561 4.26131 22.7708 4.39029C22.8042 4.4285 22.8377 4.46671 22.8663 4.5097C22.9046 4.5527 22.9428 4.60046 22.9858 4.64345C23.153 4.84408 23.3154 5.05426 23.4731 5.26444C23.5639 5.39341 23.6594 5.52238 23.7502 5.65135C23.9079 5.88064 24.056 6.1147 24.2041 6.35832C24.2996 6.52073 24.3904 6.68314 24.4764 6.84555C24.5051 6.88376 24.5242 6.92675 24.5433 6.96975C24.6341 7.13693 24.7153 7.3089 24.7965 7.48564C24.9159 7.73881 25.0306 8.00153 25.1309 8.26425C25.1835 8.398 25.2313 8.53175 25.279 8.6655C25.3173 8.78014 25.3555 8.89001 25.3937 9.00465C25.4224 9.09541 25.451 9.17662 25.4749 9.26737C25.6183 9.75461 25.7377 10.2562 25.8237 10.7577C25.838 10.8485 25.8571 10.9297 25.8619 11.0205C25.8619 11.03 25.8619 11.0348 25.8619 11.0396C25.8763 11.1303 25.8906 11.2163 25.9001 11.3071C25.9001 11.3214 25.9097 11.3405 25.9097 11.3548C25.9193 11.4217 25.924 11.4838 25.9336 11.5507C25.9431 11.6175 25.9479 11.6796 25.9479 11.7465C25.9623 11.8373 25.967 11.9233 25.9718 12.014C25.9957 12.3293 26.01 12.6541 26.01 12.9789L26.0148 12.998Z" fill="url(#paint2_radial_168_924)"/>
<g style="mix-blend-mode:multiply">
<path d="M23.4579 5.42642C23.2668 5.93753 22.4068 5.86111 21.6137 5.83722C21.0977 5.82289 20.6056 5.83722 20.3524 6.0474C20.0849 6.26713 19.9463 6.62061 19.6644 6.82601C19.072 7.2607 18.2693 6.82601 17.5527 6.68271C16.43 6.45343 15.1878 7.06485 14.6813 8.09664C14.2705 8.93735 14.1845 10.1363 13.291 10.4182C12.775 10.5853 12.1922 10.3083 11.853 9.87838C11.5185 9.44847 11.3847 8.89914 11.2988 8.35936C11.2414 8.01543 11.1936 7.64284 10.9643 7.38012C10.5009 6.85468 9.65524 7.07441 8.97203 7.24637C8.29361 7.41834 7.32374 7.32758 7.2043 6.63494C7.17563 6.48209 7.2043 6.31968 7.18519 6.16204C7.09919 5.47419 6.28221 5.19236 5.61812 4.98218C3.94594 4.45196 4.25649 3.57781 5.05913 2.80397C5.38879 2.4887 5.79489 2.19254 6.18666 1.94415C6.23921 1.90593 6.29655 1.8725 6.35388 1.83906C6.49721 1.7483 6.64531 1.6671 6.77431 1.59544C6.86509 1.5429 6.95586 1.49513 7.03708 1.45214C7.08964 1.42348 7.14697 1.39482 7.19952 1.37094C7.72506 1.10344 8.26972 0.878927 8.82393 0.692633C8.90515 0.663972 8.98637 0.635311 9.06759 0.611428C9.7269 0.401249 10.4006 0.243616 11.0885 0.143303C11.1984 0.128973 11.3083 0.109866 11.4182 0.100312C11.5615 0.0812052 11.7144 0.0620981 11.8577 0.0525446C12.0393 0.0382142 12.2256 0.0238839 12.4072 0.0143303C12.6126 0 12.818 0 13.0235 0C13.2003 0 13.377 0 13.549 0.0143303C13.7258 0.0143303 13.9026 0.0286607 14.0746 0.0477678C14.2513 0.0620981 14.4281 0.0812052 14.6001 0.100312C14.7721 0.119419 14.9441 0.143303 15.1161 0.171964C15.4696 0.229285 15.8136 0.300937 16.1576 0.386919C16.6688 0.511115 17.1657 0.663972 17.6483 0.850266C18.1404 1.03656 18.6181 1.25629 19.0816 1.49513C19.2105 1.56678 19.3395 1.63843 19.4685 1.71009C19.4924 1.72442 19.5163 1.73875 19.5402 1.7483C19.5689 1.76263 19.5928 1.78174 19.6214 1.79607C19.7456 1.86772 19.8699 1.94415 19.9893 2.02058C20.0562 2.05879 20.1183 2.10178 20.1852 2.14477C20.2712 2.19732 20.3524 2.25464 20.4336 2.31196C20.577 2.4075 20.7155 2.51258 20.8588 2.61767C20.8732 2.632 20.8971 2.64633 20.9209 2.66067C20.9878 2.70843 21.0738 2.77531 21.1742 2.85651C21.3987 3.04281 21.6233 3.23388 21.8383 3.43928C21.9434 3.53482 22.0437 3.63513 22.144 3.73066C22.2444 3.8262 22.3399 3.92651 22.4402 4.0316C22.5597 4.15102 22.6743 4.27999 22.789 4.40897C22.8225 4.44718 22.8559 4.48062 22.8893 4.52361C22.9276 4.5666 22.9658 4.61437 23.004 4.66214C23.176 4.85798 23.3337 5.06338 23.4913 5.27356V5.28789C23.5009 5.34521 23.4913 5.39298 23.477 5.4312L23.4579 5.42642Z" fill="url(#paint3_radial_168_924)"/>
</g>
<g style="mix-blend-mode:multiply" opacity="0.7">
<path d="M22.8755 4.52361C22.6796 4.90575 21.963 4.87231 21.2702 4.85321C20.7447 4.83888 20.2334 4.82932 19.9755 5.02995C19.7222 5.22579 19.5932 5.54584 19.3305 5.72736C18.7763 6.1095 18.0214 5.72736 17.343 5.59838C16.2871 5.39298 15.1166 5.93276 14.6436 6.85468C14.2566 7.60463 14.1706 8.67463 13.3345 8.9278C12.8472 9.07588 12.293 8.83226 11.9777 8.44534C11.6623 8.0632 11.5333 7.57597 11.4569 7.09351C11.4043 6.7878 11.3613 6.45343 11.1416 6.21936C10.7068 5.75124 9.91371 5.94709 9.26873 6.09994C8.62852 6.2528 7.72555 6.1716 7.60611 5.55539C7.58222 5.41687 7.60611 5.27356 7.58699 5.13504C7.51055 4.51883 6.73657 4.27044 6.12025 4.08414C5.0405 3.75932 4.83984 3.2912 5.06439 2.80397C5.07873 2.76098 5.10261 2.71321 5.13128 2.67022C5.47049 2.4075 5.82882 2.1591 6.19192 1.94415C6.24447 1.90593 6.30181 1.8725 6.35914 1.83906C6.50247 1.7483 6.65057 1.6671 6.77957 1.59544C6.87035 1.5429 6.96112 1.49513 7.04234 1.45214C7.0949 1.42348 7.15223 1.39482 7.20478 1.37094C7.73032 1.10344 8.27498 0.878927 8.82919 0.692633C8.91041 0.663972 8.99162 0.635311 9.07284 0.611427C9.73216 0.401249 10.4058 0.243616 11.0938 0.143303C11.2037 0.128973 11.3136 0.109866 11.4235 0.100312C11.5668 0.0812052 11.7197 0.0620981 11.863 0.0525445C12.0445 0.0382142 12.2309 0.0238839 12.4124 0.0143303C12.6179 0 12.8233 0 13.0287 0C13.2055 0 13.3823 0 13.5543 0.0143303C13.7311 0.0143303 13.9078 0.0286607 14.0798 0.0477678C14.2566 0.0620981 14.4334 0.0812052 14.6054 0.100312C14.7774 0.119419 14.9494 0.143303 15.1214 0.171964C15.4749 0.229285 15.8189 0.300937 16.1629 0.386919C16.6741 0.511115 17.171 0.663972 17.6535 0.850266C18.1456 1.03656 18.6234 1.25629 19.0868 1.49513C19.2158 1.56678 19.3448 1.63843 19.4738 1.71009C19.4977 1.72442 19.5216 1.73875 19.5455 1.7483C19.5741 1.76263 19.598 1.78174 19.6267 1.79607C19.7079 1.84384 19.7939 1.8916 19.8751 1.93937C19.9133 1.96326 19.9563 1.98714 19.9946 2.02058C20.0615 2.05879 20.1236 2.10178 20.1904 2.14477C20.2764 2.19732 20.3577 2.25464 20.4389 2.31196C20.5822 2.4075 20.7208 2.51258 20.8641 2.61767C20.8784 2.632 20.9023 2.64633 20.9262 2.66066C20.9931 2.70843 21.0791 2.77531 21.1794 2.85651C21.404 3.04281 21.6285 3.23388 21.8435 3.43928C21.9486 3.53482 22.049 3.63513 22.1493 3.73066C22.2496 3.8262 22.3452 3.92651 22.4455 4.0316C22.5649 4.15102 22.6796 4.27999 22.7943 4.40897C22.8277 4.44718 22.8612 4.48062 22.8946 4.52361H22.8755Z" fill="url(#paint4_radial_168_924)"/>
</g>
<g style="mix-blend-mode:multiply">
<path d="M26.0144 12.9975C26.0144 18.2329 22.9185 22.7469 18.4609 24.8057C18.4609 24.7914 18.4753 24.7818 18.4753 24.7675C18.8575 23.9411 19.2349 23.1195 19.6171 22.2979C19.7461 22.0209 19.8751 21.7343 19.9229 21.4285C19.985 21.0321 19.8895 20.626 19.8799 20.2248C19.8656 19.8188 19.9468 19.3745 20.2573 19.1214C20.4341 18.9781 20.6634 18.9112 20.8498 18.7822C21.4517 18.381 21.4852 17.5068 21.318 16.8046C21.103 15.8875 20.4341 13.9242 21.7002 13.4513C22.2018 13.2603 22.7704 13.609 23.2959 13.4943C23.9839 13.3462 24.261 12.5342 24.7388 12.0278C24.8869 11.875 25.0732 11.7412 25.2882 11.7269C25.4889 11.7126 25.6752 11.8177 25.8663 11.8893C25.8997 11.9037 25.9332 11.9132 25.9666 11.9228C25.9953 12.281 26.0096 12.6345 26.0096 12.9975H26.0144Z" fill="url(#paint5_radial_168_924)"/>
</g>
<g style="mix-blend-mode:multiply">
<path d="M17.3706 25.2499C16.009 25.7372 14.5422 25.9999 13.0134 25.9999C7.35185 25.9999 2.53597 22.3791 0.753906 17.3253C0.916347 17.3539 1.07879 17.4065 1.21734 17.4829C1.73333 17.7552 2.10121 18.2376 2.47386 18.6867C2.8513 19.1357 3.28606 19.5847 3.8546 19.728C4.63336 19.9238 5.58889 19.5465 6.17177 20.091C6.47754 20.3776 6.60176 20.8744 6.9983 21.0225C7.43307 21.1897 7.92039 20.7454 7.94906 20.2725C7.9825 19.8092 7.70062 19.3745 7.37096 19.0401C7.04608 18.701 6.66864 18.4096 6.41065 18.0179C6.15743 17.6214 6.07144 17.0673 6.3581 16.6995C6.61609 16.3699 7.11297 16.2887 7.50473 16.4416C7.8965 16.5944 8.19749 16.9192 8.41249 17.2823C8.78037 17.8985 8.93803 18.615 9.26291 19.2503C9.58779 19.8904 10.1611 20.4875 10.8778 20.5018C11.5036 20.5162 12.2585 20.1149 12.6885 20.5687C12.9274 20.8219 12.913 21.2088 12.999 21.5432C13.2475 22.532 14.3081 23.0335 15.2445 23.4348C16.1332 23.8121 17.1269 24.3424 17.3658 25.2499H17.3706Z" fill="url(#paint6_radial_168_924)"/>
</g>
<defs>
<radialGradient id="paint0_radial_168_924" cx="0" cy="0" r="1" gradientUnits="userSpaceOnUse" gradientTransform="translate(9.09188 7.82914) scale(16.3874 16.3843)">
<stop stop-color="#CBCFFF"/>
<stop offset="0.99" stop-color="#B0B1FF"/>
</radialGradient>
<radialGradient id="paint1_radial_168_924" cx="0" cy="0" r="1" gradientUnits="userSpaceOnUse" gradientTransform="translate(6.89478 5.29755) scale(14.118 14.1154)">
<stop stop-color="#CBCFFF"/>
<stop offset="0.99" stop-color="#B0B1FF"/>
</radialGradient>
<radialGradient id="paint2_radial_168_924" cx="0" cy="0" r="1" gradientUnits="userSpaceOnUse" gradientTransform="translate(10.8649 9.02376) scale(15.0162 15.0134)">
<stop stop-color="#CBCFFF"/>
<stop offset="0.99" stop-color="#B0B1FF"/>
</radialGradient>
<radialGradient id="paint3_radial_168_924" cx="0" cy="0" r="1" gradientUnits="userSpaceOnUse" gradientTransform="translate(13.9408 5.23057) scale(7.69203 7.69061)">
<stop stop-color="#CBCFFF"/>
<stop offset="0.99" stop-color="#B0B1FF"/>
</radialGradient>
<radialGradient id="paint4_radial_168_924" cx="0" cy="0" r="1" gradientUnits="userSpaceOnUse" gradientTransform="translate(13.9269 4.48062) scale(7.08048 7.07918)">
<stop stop-color="#CBCFFF"/>
<stop offset="0.99" stop-color="#B0B1FF"/>
</radialGradient>
<radialGradient id="paint5_radial_168_924" cx="0" cy="0" r="1" gradientUnits="userSpaceOnUse" gradientTransform="translate(22.2401 18.2615) scale(5.34142 5.34044)">
<stop stop-color="#CBCFFF"/>
<stop offset="0.99" stop-color="#B0B1FF"/>
</radialGradient>
<radialGradient id="paint6_radial_168_924" cx="0" cy="0" r="1" gradientUnits="userSpaceOnUse" gradientTransform="translate(9.06225 21.1801) scale(6.78905 6.7878)">
<stop stop-color="#CBCFFF"/>
<stop offset="0.99" stop-color="#B0B1FF"/>
</radialGradient>
</defs>
</svg>
