<svg width="12" height="12" viewBox="0 0 12 12" fill="none" xmlns="http://www.w3.org/2000/svg">
<path d="M6 12C9.31371 12 12 9.31371 12 6C12 2.68629 9.31371 0 6 0C2.68629 0 0 2.68629 0 6C0 9.31371 2.68629 12 6 12Z" fill="#CDC0AF"/>
<g style="mix-blend-mode:soft-light" opacity="0.5">
<path d="M9.13027 3.1749C8.76621 3.71394 7.84053 3.72806 7.06442 3.20313C6.28832 2.6782 5.9553 1.8146 6.31936 1.27556C6.68342 0.736522 7.60911 0.722411 8.38521 1.24734C9.16132 1.77227 9.49434 2.63586 9.13027 3.1749Z" fill="#FFF7EE"/>
</g>
<g style="mix-blend-mode:soft-light" opacity="0.5">
<path d="M10.0955 3.94001C9.86692 3.97105 9.64397 3.73399 9.59881 3.40661C9.55084 3.07924 9.70041 2.78855 9.92619 2.75468C10.1548 2.72364 10.3777 2.96071 10.4229 3.28808C10.4709 3.61546 10.3213 3.90896 10.0955 3.94001Z" fill="#FFF7EE"/>
</g>
<path d="M9.13507 3.17791C9.02782 3.33595 8.86696 3.45449 8.68916 3.52504C8.51136 3.59842 8.31381 3.62382 8.1219 3.61817C7.73243 3.60971 7.35708 3.45731 7.03817 3.24C6.72491 3.01422 6.46244 2.71507 6.29875 2.36794C6.21973 2.19296 6.16329 2.0067 6.15482 1.81197C6.14918 1.62006 6.18869 1.41968 6.29593 1.25317C6.40317 1.08666 6.56968 0.959661 6.75313 0.891929C6.93657 0.821374 7.13695 0.795974 7.33168 0.807263C7.72396 0.82984 8.09932 0.976595 8.42105 1.1939C8.73996 1.41404 9.01653 1.71037 9.17175 2.06596C9.24795 2.24376 9.29593 2.43567 9.29593 2.62758C9.29593 2.81949 9.24513 3.0114 9.13789 3.17227L9.13507 3.17791ZM9.1266 3.17227C9.23102 3.01422 9.27618 2.82231 9.26206 2.63605C9.25078 2.44978 9.18869 2.26916 9.10402 2.10548C8.92904 1.7781 8.66094 1.50717 8.35614 1.2955C8.0457 1.09513 7.69292 0.948373 7.32603 0.920151C7.14259 0.90604 6.95633 0.920151 6.78417 0.982239C6.61202 1.04151 6.45397 1.14593 6.34673 1.2955C6.24231 1.44508 6.18869 1.63135 6.19433 1.81761C6.19715 2.00388 6.24795 2.19014 6.33262 2.35665C6.49913 2.69532 6.78135 2.96342 7.08897 3.16662C7.40223 3.367 7.75501 3.50811 8.12472 3.55044C8.30816 3.5702 8.50007 3.55891 8.67787 3.49964C8.85567 3.4432 9.01936 3.33031 9.1266 3.17227Z" fill="#D1C6B7"/>
<path d="M10.096 3.94522C9.9605 3.96215 9.81939 3.89724 9.72061 3.79564C9.61901 3.69404 9.56539 3.55293 9.55128 3.41182C9.53999 3.27071 9.56821 3.1296 9.62466 3.0026C9.67828 2.87842 9.77423 2.75707 9.92381 2.7232C10.0734 2.68934 10.2258 2.77682 10.3161 2.88689C10.4092 2.99978 10.4657 3.13807 10.4854 3.27918C10.5024 3.42029 10.4854 3.56986 10.4177 3.69686C10.3528 3.82386 10.2343 3.92546 10.0988 3.94522H10.096ZM10.096 3.93393C10.2314 3.91417 10.3189 3.78717 10.3471 3.66864C10.3782 3.54446 10.3838 3.42029 10.3641 3.29611C10.3443 3.17476 10.3048 3.05058 10.2314 2.9518C10.1581 2.85585 10.0536 2.77682 9.93228 2.78247C9.8081 2.78811 9.70086 2.89253 9.65853 3.01671C9.61337 3.14089 9.62184 3.27635 9.64441 3.39771C9.66981 3.52189 9.71215 3.64042 9.77706 3.75048C9.81092 3.80411 9.85326 3.85208 9.90688 3.88877C9.9605 3.92546 10.0282 3.94239 10.0931 3.93393H10.096Z" fill="#D1C6B7"/>
<g style="mix-blend-mode:multiply">
<path d="M1.41609 8.0349C1.08872 8.08005 0.769809 7.73857 0.702076 7.26726C0.634344 6.79877 0.846009 6.37826 1.17338 6.33311C1.50076 6.28795 1.81967 6.62944 1.8874 7.10075C1.95513 7.56923 1.74347 7.98974 1.41609 8.0349Z" fill="#E9E2DA"/>
</g>
<g style="mix-blend-mode:multiply">
<path d="M9.09405 9.48559C8.47599 9.23724 8.2615 8.3172 8.6171 7.42821C8.9727 6.53921 9.76291 6.01711 10.381 6.26546C10.999 6.51382 11.2135 7.43385 10.8579 8.32285C10.5023 9.21184 9.71211 9.73395 9.09405 9.48559Z" fill="#E9E2DA"/>
</g>
<g style="mix-blend-mode:multiply">
<path d="M6.12321 5.1197C6.18812 4.67097 6.6312 4.36335 7.1138 4.4339C7.59639 4.50446 7.93506 4.92497 7.87015 5.3737C7.80524 5.82243 7.36215 6.13004 6.87955 6.05949C6.39696 5.98893 6.05829 5.56843 6.12321 5.1197Z" fill="#E9E2DA"/>
</g>
<g style="mix-blend-mode:multiply">
<path d="M4.08674 8.86745C4.10932 8.70941 4.26736 8.59934 4.43952 8.62474C4.61167 8.65014 4.7302 8.79972 4.70762 8.95776C4.68505 9.1158 4.527 9.22587 4.35485 9.20047C4.1827 9.17507 4.06416 9.02549 4.08674 8.86745Z" fill="#E9E2DA"/>
</g>
<g style="mix-blend-mode:multiply">
<path d="M2.86489 2.43008C2.76047 2.15632 2.91287 1.84306 3.2092 1.73017C3.50553 1.61728 3.82726 1.74711 3.93451 2.02086C4.03893 2.29461 3.88653 2.60788 3.5902 2.72077C3.29387 2.83365 2.97214 2.70383 2.86489 2.43008Z" fill="#E9E2DA"/>
</g>
<g style="mix-blend-mode:multiply">
<path d="M1.5893 5.86468C1.45666 5.955 1.24781 5.87315 1.11799 5.68406C0.990994 5.49498 0.990994 5.2692 1.12364 5.17889C1.25628 5.08858 1.46512 5.17042 1.59494 5.35951C1.72194 5.5486 1.72194 5.77437 1.5893 5.86468Z" fill="#E9E2DA"/>
</g>
<path d="M1.41688 8.04066C1.22215 8.06606 1.0246 7.96728 0.891954 7.81771C0.753666 7.66813 0.680288 7.4734 0.654889 7.27585C0.637955 7.07547 0.669 6.87509 0.745199 6.69447C0.78471 6.60416 0.83551 6.5195 0.906065 6.44894C0.97662 6.38121 1.06693 6.32194 1.16853 6.30501C1.27013 6.28525 1.38019 6.30501 1.47333 6.35016C1.56646 6.39532 1.6483 6.46305 1.71321 6.54207C1.84304 6.70012 1.91923 6.89485 1.94746 7.09522C1.97286 7.2956 1.9531 7.50444 1.85997 7.68506C1.77248 7.86569 1.61161 8.01526 1.41688 8.04348V8.04066ZM1.41688 8.02937C1.51002 8.01526 1.5975 7.96446 1.65959 7.89391C1.72168 7.82335 1.76684 7.73869 1.79224 7.6512C1.84586 7.4734 1.85432 7.28713 1.82892 7.10651C1.8007 6.92589 1.73861 6.74809 1.63137 6.60416C1.52413 6.46023 1.36326 6.35016 1.17982 6.36145C0.996375 6.37556 0.846798 6.53078 0.781888 6.70576C0.714155 6.88356 0.716977 7.07829 0.750843 7.25891C0.78471 7.43953 0.846798 7.61733 0.948398 7.76973C0.999197 7.84593 1.06693 7.91366 1.14595 7.96446C1.22497 8.01526 1.32375 8.03784 1.41688 8.02655V8.02937Z" fill="#A6968C"/>
<path d="M9.08987 9.49117C8.90925 9.41779 8.75685 9.28233 8.64679 9.12146C8.53672 8.95777 8.46617 8.76869 8.42948 8.57395C8.35328 8.18167 8.42383 7.77527 8.57059 7.41121C8.72581 7.04714 8.96852 6.72259 9.27896 6.4827C9.437 6.36417 9.60916 6.26822 9.80107 6.21742C9.99016 6.16944 10.199 6.16662 10.3881 6.23717C10.5772 6.30773 10.738 6.44602 10.8481 6.61535C10.9582 6.78468 11.0259 6.97941 11.0569 7.17414C11.119 7.56925 11.0569 7.97565 10.9074 8.34536C10.7578 8.71224 10.5236 9.05091 10.199 9.28515C10.0381 9.40086 9.85751 9.49117 9.6656 9.53068C9.47369 9.57301 9.27049 9.56455 9.08705 9.49117H9.08987ZM9.0927 9.47988C9.27332 9.55044 9.47369 9.55044 9.65996 9.49964C9.8434 9.44602 10.0127 9.34724 10.1567 9.22588C10.4474 8.97753 10.659 8.65298 10.8029 8.30302C10.9356 7.95025 11.0061 7.56643 10.9553 7.19108C10.9299 7.00481 10.8735 6.82137 10.7747 6.66333C10.6788 6.50528 10.5405 6.36982 10.3683 6.29362C10.1962 6.22306 9.99862 6.20895 9.81236 6.25693C9.62609 6.30208 9.45394 6.39239 9.30436 6.51375C9.00239 6.75364 8.79636 7.0923 8.65808 7.44507C8.52543 7.80067 8.46052 8.18449 8.50003 8.56267C8.52261 8.75175 8.57341 8.93802 8.67219 9.10453C8.76814 9.27104 8.91772 9.4065 9.09552 9.47988H9.0927Z" fill="#A6968C"/>
<path d="M10.4824 6.0083C10.6941 6.08732 10.8719 6.24537 10.9932 6.43728C11.1174 6.62636 11.1908 6.84649 11.2247 7.06945C11.2557 7.2924 11.2501 7.521 11.219 7.74395C11.188 7.96691 11.1231 8.18422 11.0384 8.39306C11.1146 8.1814 11.171 7.96409 11.2021 7.74113C11.2331 7.51818 11.2331 7.2924 11.1993 7.07227C11.1682 6.85214 11.0977 6.63483 10.9791 6.44574C10.8606 6.25665 10.6913 6.09861 10.4852 6.0083H10.4824Z" fill="#A6968C"/>
<path d="M10.0102 9.73964C9.8126 9.85535 9.58682 9.9372 9.35258 9.94567C9.23687 9.95131 9.11834 9.94002 9.00827 9.90898C8.95183 9.89487 8.89821 9.87229 8.84458 9.84689L8.76556 9.80738C8.74016 9.79327 8.71759 9.77351 8.69219 9.7594C8.50028 9.62676 8.35634 9.43485 8.26321 9.22318C8.17008 9.01152 8.11646 8.78292 8.09952 8.5515C8.06284 8.08866 8.15879 7.62299 8.34505 7.19966C8.53132 6.77633 8.81919 6.39251 9.19454 6.12158C8.82765 6.40662 8.55672 6.79327 8.36763 7.21095C8.18137 7.63146 8.08823 8.09148 8.11363 8.5515C8.12775 8.7801 8.17572 9.00869 8.27168 9.21754C8.36763 9.42638 8.51439 9.61264 8.70347 9.73964C8.89256 9.86664 9.12116 9.9372 9.34976 9.92591C9.57836 9.92026 9.80131 9.84407 10.0045 9.73682L10.0102 9.73964Z" fill="#A6968C"/>
<path d="M6.11809 5.11942C6.14913 4.89646 6.26766 4.6848 6.45675 4.54369C6.64019 4.39976 6.89137 4.34613 7.12279 4.38565C7.35421 4.42798 7.56023 4.5578 7.70416 4.7356C7.8481 4.91058 7.92994 5.142 7.90454 5.37624C7.88479 5.60766 7.7465 5.83061 7.55177 5.96043C7.35703 6.0959 7.10868 6.15234 6.87444 6.11566C6.64019 6.07897 6.41724 5.95479 6.28177 5.76288C6.14349 5.57379 6.08704 5.33673 6.12091 5.11377L6.11809 5.11942ZM6.12938 5.11942C6.09551 5.34237 6.18582 5.56533 6.3354 5.71772C6.48497 5.87012 6.67971 5.9689 6.88855 5.99712C7.09457 6.02534 7.31188 5.98583 7.48968 5.87295C7.66748 5.76006 7.80012 5.57944 7.83963 5.36777C7.88196 5.15611 7.81705 4.92469 7.67312 4.761C7.52919 4.59449 7.31752 4.50136 7.10868 4.47878C6.89701 4.4562 6.68253 4.49571 6.49626 4.60295C6.31 4.70738 6.1576 4.89646 6.12938 5.11942Z" fill="#A6968C"/>
<path d="M4.08067 8.86757C4.09196 8.78855 4.12583 8.70671 4.19074 8.64462C4.25565 8.58253 4.35725 8.55713 4.44474 8.57689C4.53505 8.59946 4.6056 8.65591 4.6564 8.72364C4.7072 8.78855 4.74107 8.8704 4.73825 8.96071C4.73825 9.05102 4.68745 9.14133 4.61125 9.19495C4.53505 9.24857 4.43909 9.27397 4.34596 9.25986C4.25565 9.24575 4.16534 9.19213 4.12301 9.1131C4.07785 9.03408 4.06938 8.94659 4.08067 8.86757ZM4.09196 8.86757C4.08067 8.94659 4.12301 9.02279 4.17945 9.06513C4.23589 9.10746 4.29798 9.13286 4.36289 9.14133C4.4278 9.14979 4.49554 9.14133 4.55198 9.10746C4.60842 9.07359 4.6564 9.02279 4.67616 8.95224C4.69591 8.88451 4.67898 8.80266 4.62818 8.74622C4.57738 8.68977 4.49836 8.67002 4.43063 8.67002C4.36289 8.67002 4.29798 8.67849 4.23025 8.70389C4.16534 8.72929 4.10043 8.78855 4.09196 8.8704V8.86757Z" fill="#A6968C"/>
<path d="M2.85969 2.43262C2.8089 2.29716 2.80043 2.13911 2.85969 1.99518C2.91614 1.85125 3.04314 1.73554 3.18989 1.68756C3.33947 1.63958 3.50033 1.65369 3.6358 1.71296C3.77409 1.7694 3.89544 1.871 3.95753 2.01211C4.02526 2.1504 4.01962 2.32538 3.94906 2.46649C3.88133 2.61042 3.75433 2.72331 3.60758 2.77975C3.46082 2.83337 3.28867 2.83337 3.15038 2.76C3.00927 2.69226 2.91049 2.56809 2.85687 2.43262H2.85969ZM2.87098 2.4298C2.92178 2.56526 3.04878 2.6584 3.1786 2.69226C3.31125 2.72331 3.44671 2.71766 3.56807 2.66686C3.68942 2.61889 3.79667 2.5314 3.85875 2.41851C3.92084 2.30562 3.94342 2.16451 3.90391 2.03469C3.86722 1.90487 3.75998 1.79198 3.62733 1.74683C3.49469 1.69885 3.34794 1.72143 3.22658 1.77505C3.10523 1.82867 3.0008 1.91616 2.92461 2.02905C2.85123 2.14193 2.81736 2.29433 2.87098 2.4298Z" fill="#A6968C"/>
<path d="M2.61108 2.52859C2.52641 2.33104 2.54335 2.09679 2.64212 1.90488C2.73808 1.71297 2.91023 1.56057 3.11343 1.48155C3.31663 1.40535 3.54523 1.40253 3.74843 1.48155C3.95163 1.55775 4.11814 1.72144 4.18869 1.92464C4.10967 1.72708 3.94034 1.57186 3.74278 1.49849C3.54523 1.42511 3.32228 1.43075 3.12472 1.50695C2.92717 1.58033 2.75784 1.72426 2.65906 1.91335C2.56028 2.09961 2.5377 2.32821 2.61108 2.52859Z" fill="#A6968C"/>
<path d="M1.59201 5.86713C1.51299 5.92076 1.40574 5.9264 1.30979 5.89536C1.21101 5.86713 1.13199 5.79376 1.08119 5.70909C1.03321 5.6216 1.01063 5.52283 1.00781 5.42687C1.00781 5.33374 1.02475 5.22649 1.10941 5.15312C1.19408 5.08256 1.32108 5.08538 1.41421 5.12772C1.51016 5.17005 1.58919 5.24061 1.64563 5.32527C1.69925 5.40994 1.73594 5.51154 1.72747 5.61596C1.71901 5.71756 1.67385 5.81633 1.59483 5.86996L1.59201 5.86713ZM1.58636 5.85867C1.66539 5.80505 1.67385 5.70062 1.65127 5.61878C1.6287 5.53694 1.59201 5.46074 1.54403 5.393C1.49605 5.32527 1.43679 5.26318 1.36623 5.22367C1.29568 5.18698 1.21383 5.17005 1.14046 5.20392C1.06708 5.24061 1.03039 5.33656 1.04168 5.42405C1.05297 5.51436 1.10095 5.59056 1.15457 5.65829C1.20819 5.7232 1.26746 5.78247 1.33519 5.83609C1.40292 5.88407 1.50452 5.91511 1.58072 5.86149L1.58636 5.85867Z" fill="#A6968C"/>
<g style="mix-blend-mode:multiply">
<path d="M7.52999 8.45234C4.33526 8.45234 1.74448 5.86155 1.74448 2.66682C1.74448 2.46927 1.75577 2.27454 1.7727 2.08545C0.807506 3.11838 0.214844 4.5069 0.214844 6.03371C0.214844 9.22844 2.80562 11.8192 6.00036 11.8192C9.00036 11.8192 11.467 9.53606 11.7576 6.61508C10.7021 7.74396 9.19791 8.45234 7.52999 8.45234Z" fill="#E9E2DA"/>
</g>
<g style="mix-blend-mode:multiply">
<path d="M6.62978 11.1843C6.62978 11.3367 6.35885 11.458 6.02583 11.458C5.69281 11.458 5.42188 11.3339 5.42188 11.1843C5.42188 11.0347 5.69281 10.9077 6.02583 10.9077C6.35885 10.9077 6.62978 11.0319 6.62978 11.1843Z" fill="#E9E2DA"/>
</g>
<g style="mix-blend-mode:multiply">
<path d="M7.18032 10.761C7.18032 10.8429 7.05614 10.9078 6.90657 10.9078C6.75699 10.9078 6.63281 10.8429 6.63281 10.761C6.63281 10.6792 6.75699 10.6143 6.90657 10.6143C7.05614 10.6143 7.18032 10.682 7.18032 10.761Z" fill="#E9E2DA"/>
</g>
<g style="mix-blend-mode:multiply">
<path d="M1.36839 3.88032C1.36839 4.05812 1.29501 4.20206 1.2047 4.20206C1.11439 4.20206 1.04102 4.05812 1.04102 3.88032C1.04102 3.70253 1.11439 3.55859 1.2047 3.55859C1.29501 3.55859 1.36839 3.70253 1.36839 3.88032Z" fill="#E9E2DA"/>
</g>
<path d="M1.00683 4.51269C1.00683 4.58889 0.944741 4.6538 0.865719 4.6538C0.786698 4.6538 0.724609 4.59171 0.724609 4.51269C0.724609 4.43367 0.786698 4.37158 0.865719 4.37158C0.944741 4.37158 1.00683 4.43367 1.00683 4.51269Z" fill="#E9E2DA"/>
<g style="mix-blend-mode:multiply">
<path d="M9.73006 5.31681C9.73006 5.43817 9.57766 5.53694 9.3914 5.53694C9.20513 5.53694 9.05273 5.43817 9.05273 5.31681C9.05273 5.19546 9.20513 5.09668 9.3914 5.09668C9.57766 5.09668 9.73006 5.19546 9.73006 5.31681Z" fill="#E9E2DA"/>
</g>
<g style="mix-blend-mode:multiply">
<path d="M9.90812 4.7668C9.90812 4.82889 9.82627 4.87687 9.7275 4.87687C9.62872 4.87687 9.54688 4.82607 9.54688 4.7668C9.54688 4.70754 9.62872 4.65674 9.7275 4.65674C9.82627 4.65674 9.90812 4.70754 9.90812 4.7668Z" fill="#E9E2DA"/>
</g>
<path d="M5.46307 1.16855C5.46307 1.30966 5.35019 1.42255 5.20908 1.42255C5.06797 1.42255 4.95508 1.30966 4.95508 1.16855C4.95508 1.02744 5.06797 0.914551 5.20908 0.914551C5.35019 0.914551 5.46307 1.02744 5.46307 1.16855Z" fill="#E9E2DA"/>
<g style="mix-blend-mode:multiply">
<path d="M4.4049 7.19073C4.4049 7.48424 4.16783 7.7213 3.87432 7.7213C3.58081 7.7213 3.34375 7.48424 3.34375 7.19073C3.34375 6.89722 3.58081 6.66016 3.87432 6.66016C4.16783 6.66016 4.4049 6.89722 4.4049 7.19073Z" fill="#E9E2DA"/>
</g>
<g style="mix-blend-mode:multiply">
<path d="M5.57023 10.4336C5.57023 10.5323 5.48838 10.6142 5.38961 10.6142C5.29083 10.6142 5.20898 10.5323 5.20898 10.4336C5.20898 10.3348 5.29083 10.2529 5.38961 10.2529C5.48838 10.2529 5.57023 10.3348 5.57023 10.4336Z" fill="#E9E2DA"/>
</g>
</svg>
