<svg width="66" height="67" viewBox="0 0 66 67" fill="none" xmlns="http://www.w3.org/2000/svg">
<path d="M49.908 17.6845C59.0552 26.5863 59.3462 41.2021 50.5549 50.3287C41.7637 59.4553 27.2209 59.64 18.0738 50.7381C8.92664 41.8363 8.63564 27.2205 17.4269 18.0939C26.2181 8.96725 40.7609 8.78259 49.908 17.6845Z" fill="url(#paint0_radial_168_801)"/>
<path d="M49.908 17.6845C59.0552 26.5863 59.3462 41.2021 50.5549 50.3287C41.7637 59.4553 27.2209 59.64 18.0738 50.7381C8.92664 41.8363 8.63564 27.2205 17.4269 18.0939C26.2181 8.96725 40.7609 8.78259 49.908 17.6845Z" fill="url(#paint1_radial_168_801)"/>
<path d="M49.908 17.6845C59.0552 26.5863 59.3462 41.2021 50.5549 50.3287C41.7637 59.4553 27.2209 59.64 18.0738 50.7381C8.92664 41.8363 8.63564 27.2205 17.4269 18.0939C26.2181 8.96725 40.7609 8.78259 49.908 17.6845Z" fill="url(#paint2_radial_168_801)"/>
<mask id="mask0_168_801" style="mask-type:luminance" maskUnits="userSpaceOnUse" x="11" y="11" width="46" height="47">
<path d="M49.908 17.6845C59.0552 26.5863 59.3462 41.2021 50.5549 50.3287C41.7637 59.4553 27.2209 59.64 18.0738 50.7381C8.92664 41.8363 8.63564 27.2205 17.4269 18.0939C26.2181 8.96725 40.7609 8.78259 49.908 17.6845Z" fill="white"/>
</mask>
<g mask="url(#mask0_168_801)">
<path d="M5.84653 26.2622C6.45285 26.6626 7.90787 26.6928 8.28017 26.8345C10.0359 27.5039 8.92238 30.1401 8.5492 31.5145C7.92439 33.7604 7.76359 36.1415 8.0562 38.4607C8.1297 39.0509 8.24117 39.6529 8.57886 40.144C8.91654 40.6352 9.52527 40.9809 10.093 40.8363C10.4205 40.7566 10.6888 40.5272 10.8849 40.2618C11.45 39.5209 11.5097 38.5283 11.6891 37.6208C11.8685 36.7133 12.2913 35.7073 13.1718 35.4161C13.577 35.2841 14.0167 35.3149 14.4321 35.2413C15.9402 34.9762 16.8442 33.349 17.0367 31.8154C17.2292 30.2819 16.9321 28.723 17.1164 27.1938C17.3089 25.6602 18.2002 24.0291 19.7209 23.7679C20.2609 23.6702 20.8324 23.7691 21.3775 23.7006C24.8026 23.2818 24.5312 18.9127 26.3814 16.959C28.1508 15.0914 31.3163 15.9434 33.6951 14.9548C35.0722 14.3865 35.6 13.3987 36.3475 12.229C37.0471 11.1278 38.0929 10.3956 39.1094 9.52989C42.1296 6.93757 45.0311 4.16348 47.6449 1.14892C47.983 0.753965 48.2668 0.356186 48.5194 -0.0995942C48.7285 -0.478676 48.2755 -0.79054 47.9572 -0.555673C47.1577 0.0441889 46.5092 0.787205 45.8137 1.50201C45.1183 2.21682 44.4311 2.92723 43.7267 3.62546C42.33 5.00484 40.882 6.34771 39.4073 7.64087C38.0545 8.82595 37.4097 9.04391 35.6595 8.54242C34.508 8.2105 33.2829 8.31301 32.0914 8.41888C29.0872 8.67578 26.083 8.93269 23.1366 9.55349C22.5473 9.67765 21.9378 9.82333 21.4655 10.2049C21.0015 10.5821 19.0819 9.6271 19.3463 10.1789C19.4633 10.4363 21.3243 12.2873 21.4002 12.5668C21.5439 13.1301 16.3075 10.5291 15.8295 10.8604C13.1611 12.7089 14.3706 16.756 11.382 18.0078C10.7431 18.276 10.6242 19.3752 10.813 20.0423C10.9597 20.572 7.09614 21.7704 7.63819 21.7356C8.18024 21.7009 13.2901 20.538 13.7904 20.7604C14.0025 21.1162 13.6315 21.5288 13.2923 21.7642C11.6534 22.8893 9.81704 23.7255 7.8863 24.2281C7.31857 24.3727 6.72929 24.4969 6.28609 24.8735C5.43187 25.5882 5.46193 25.999 5.85098 26.2705L5.84653 26.2622Z" fill="#0096FB"/>
</g>
<path style="mix-blend-mode:multiply" opacity="0.43" d="M49.8793 17.668C59.0384 26.5527 59.3585 41.1636 50.5888 50.3107C44.7812 56.3629 36.4399 58.5025 28.8217 56.6676C33.7385 55.9925 38.4574 53.7266 42.1554 49.874C50.9251 40.7269 50.605 26.116 41.4458 17.2313C38.3569 14.2356 34.6498 12.2761 30.7629 11.3418C37.5022 10.4356 44.594 12.5317 49.8875 17.6636L49.8793 17.668Z" fill="url(#paint3_radial_168_801)"/>
<path style="mix-blend-mode:multiply" opacity="0.43" d="M49.913 17.6926C59.0557 26.5862 59.3467 41.202 50.5554 50.3286C45.7051 55.3654 39.0867 57.6796 32.6086 57.2394C37.9257 56.7978 43.1158 54.5031 47.1091 50.3532C55.9004 41.2266 55.6094 26.6108 46.4667 17.7172C42.3677 13.7266 37.1874 11.5652 31.9197 11.2119C38.3202 10.6797 44.9124 12.8305 49.913 17.6926Z" fill="url(#paint4_radial_168_801)"/>
<path style="mix-blend-mode:screen" d="M39.3044 32.7352C40.113 23.4254 35.3319 15.3615 28.6256 14.724C21.9193 14.0866 15.8273 21.1169 15.0187 30.4268C14.2102 39.7366 18.9912 47.8005 25.6975 48.4379C32.4038 49.0754 38.4958 42.045 39.3044 32.7352Z" fill="url(#paint5_radial_168_801)"/>
<defs>
<radialGradient id="paint0_radial_168_801" cx="0" cy="0" r="1" gradientUnits="userSpaceOnUse" gradientTransform="translate(21.3696 25.9769) rotate(-46.0709) scale(32.4006 32.6347)">
<stop stop-color="#F49E40"/>
<stop offset="1" stop-color="#DA7F38"/>
</radialGradient>
<radialGradient id="paint1_radial_168_801" cx="0" cy="0" r="1" gradientUnits="userSpaceOnUse" gradientTransform="translate(21.3696 25.9769) rotate(-46.0709) scale(32.4006 32.6347)">
<stop stop-color="#F49E40"/>
<stop offset="1" stop-color="#DA7F38"/>
</radialGradient>
<radialGradient id="paint2_radial_168_801" cx="0" cy="0" r="1" gradientUnits="userSpaceOnUse" gradientTransform="translate(33.9909 34.2113) rotate(-28.2236) scale(22.9311 23.1349)">
<stop offset="0.04" stop-color="#10BDF0"/>
<stop offset="0.91" stop-color="#00ADF1"/>
</radialGradient>
<radialGradient id="paint3_radial_168_801" cx="0" cy="0" r="1" gradientUnits="userSpaceOnUse" gradientTransform="translate(36.8812 34.7731) rotate(-46.1817) scale(20.9165 21.0671)">
<stop offset="0.04" stop-color="#10BDF0"/>
<stop offset="1" stop-color="#00ADF1"/>
</radialGradient>
<radialGradient id="paint4_radial_168_801" cx="0" cy="0" r="1" gradientUnits="userSpaceOnUse" gradientTransform="translate(37.9257 34.2133) rotate(-46.0709) scale(20.1699 20.3156)">
<stop offset="0.04" stop-color="#10BDF0"/>
<stop offset="1" stop-color="#00ADF1"/>
</radialGradient>
<radialGradient id="paint5_radial_168_801" cx="0" cy="0" r="1" gradientUnits="userSpaceOnUse" gradientTransform="translate(18.9198 24.8788) rotate(-28.2236) scale(22.2879 22.486)">
<stop offset="0.04" stop-color="#10BDF0"/>
<stop offset="0.9" stop-color="#00ADF1" stop-opacity="0"/>
</radialGradient>
</defs>
</svg>
