<svg width="32" height="47" viewBox="0 0 32 47" fill="none" xmlns="http://www.w3.org/2000/svg">
<path d="M9.7497 36.7881C9.7497 36.7881 7.06094 40.9931 8.85583 46.6237C14.6839 42.5189 15.8352 38.0345 15.8352 38.0345" fill="#FFF6D2"/>
<path d="M10.1925 38.7158C10.1925 38.7158 8.56208 41.2589 9.64903 44.6687C13.1744 42.183 13.8752 39.468 13.8752 39.468" fill="#FFE266"/>
<path d="M6.43112 25.1837C6.43112 25.1837 1.61137 25.1264 0.574486 27.9703C-0.462403 30.8142 0.417165 36.9462 0.98209 37.1397C1.54702 37.3331 4.51466 28.1494 4.51466 28.1494" fill="#FC5B5B"/>
<path d="M25.1602 34.4814C25.1602 34.4814 28.3566 38.0919 26.8907 40.7424C25.4248 43.3929 20.2189 46.7383 19.7111 46.4374C19.1963 46.1366 24.1805 37.877 24.1805 37.877" fill="#FC5B5B"/>
<g style="mix-blend-mode:soft-light">
<path d="M25.159 34.4814L25.109 34.6677C25.8455 35.6133 27.7763 38.4286 26.5749 40.5991C25.2591 42.9774 20.9185 45.9216 19.6814 46.2798C19.6671 46.3658 19.6814 46.4231 19.71 46.4446C20.2249 46.7455 25.4236 43.4001 26.8896 40.7496C28.3555 38.099 25.159 34.4886 25.159 34.4886V34.4814Z" fill="white"/>
</g>
<path d="M5.82954 29.6533C5.82954 29.6533 5.22171 32.6978 5.02148 36.7023C5.02148 36.7023 11.0783 39.668 18.3509 42.0821C18.3509 42.0821 20.396 40.0333 22.2982 37.1822" fill="#D4DDDB"/>
<g style="mix-blend-mode:multiply" opacity="0.5">
<path d="M20.2972 36.2725L5.82369 29.6533C5.82369 29.6533 5.21585 32.6978 5.01562 36.7023C5.01562 36.7023 5.88804 37.1321 7.36829 37.7911C10.5004 34.3813 18.6239 37.7052 21.1124 38.8442C21.4628 38.3785 21.8204 37.8842 22.1779 37.3541C21.6201 37.0389 20.9837 36.6736 20.2972 36.2725Z" fill="#D4DDDB"/>
</g>
<path d="M28.9917 0.87793C11.1429 5.72766 3.39844 30.0408 3.39844 30.0408L13.3168 34.5753L13.8317 34.8117L23.7501 39.3462C23.7501 39.3462 37.0151 17.569 28.9917 0.87793Z" fill="white"/>
<path opacity="0.5" d="M11.951 22.6258C16.499 12.647 22.9062 4.88887 29.0775 1.06353C29.0489 0.999061 29.0203 0.934589 28.9917 0.870117C11.1429 5.71985 3.39844 30.033 3.39844 30.033L8.41126 32.3253C9.28367 29.159 10.4564 25.8924 11.951 22.6187V22.6258Z" fill="#D4DDDB"/>
<path d="M29.6714 25.406C31.7952 18.0275 32.8321 8.87246 28.9921 0.87793C19.989 3.32787 13.5603 10.7207 9.39844 17.4472C12.7379 18.6507 20.747 21.5949 29.6714 25.3988V25.406Z" fill="#FC5B5B"/>
<g style="mix-blend-mode:multiply">
<path d="M27.9129 1.19997C27.7198 1.26444 27.5268 1.32175 27.3408 1.38622C27.2336 1.42204 27.1335 1.46502 27.0262 1.50084C26.8617 1.55815 26.6973 1.62262 26.5328 1.67993C26.4184 1.72291 26.3111 1.77305 26.2038 1.81603C26.0537 1.88051 25.8964 1.93782 25.7462 2.00229C25.6318 2.05243 25.5245 2.10258 25.4172 2.15272C25.2671 2.21719 25.1241 2.28167 24.9739 2.3533C24.8595 2.40345 24.7522 2.46076 24.6449 2.51806C24.5019 2.5897 24.3589 2.65417 24.2159 2.72581C24.1086 2.78312 23.9942 2.84042 23.8869 2.89773C23.7511 2.96937 23.6081 3.041 23.4722 3.1198C23.3649 3.17711 23.2577 3.24158 23.1504 3.30606C23.0145 3.38485 22.8787 3.45649 22.7428 3.53529C22.6355 3.59976 22.5354 3.65707 22.4353 3.72154C22.2994 3.8075 22.1636 3.8863 22.0277 3.97227C21.9276 4.03674 21.8275 4.10121 21.7273 4.16568C21.5915 4.25165 21.4556 4.33761 21.3269 4.43073C21.2268 4.49521 21.1338 4.56684 21.0337 4.63131C20.905 4.72444 20.7691 4.8104 20.6404 4.90353C20.5474 4.968 20.4545 5.03964 20.3544 5.11127C20.2256 5.2044 20.0898 5.29752 19.9611 5.39781C19.8681 5.46229 19.7823 5.53392 19.6965 5.60556C19.5678 5.70585 19.4319 5.80614 19.3032 5.90643C19.2174 5.9709 19.1316 6.04253 19.0529 6.11417C18.9242 6.22162 18.7883 6.32908 18.6596 6.43653C18.5809 6.501 18.5023 6.57264 18.4236 6.63711C18.2949 6.75173 18.159 6.85918 18.0303 6.9738C17.9516 7.03827 17.8801 7.10991 17.8086 7.17438C17.6799 7.28899 17.544 7.41078 17.4153 7.52539C17.3438 7.58986 17.2723 7.65434 17.2008 7.72597C17.0721 7.84775 16.9362 7.96953 16.8075 8.09131C16.7431 8.15579 16.6716 8.22026 16.6073 8.28473C16.4785 8.41367 16.3498 8.53545 16.2211 8.6644C16.1568 8.72887 16.0995 8.79334 16.0352 8.85065C15.9065 8.98676 15.7706 9.1157 15.6419 9.25181C15.5847 9.30912 15.5346 9.36643 15.4774 9.4309C15.3415 9.57417 15.2128 9.71028 15.0841 9.85355C15.0341 9.91086 14.984 9.96817 14.9339 10.0183C14.7981 10.1616 14.6694 10.312 14.5406 10.4553C14.4977 10.5054 14.4477 10.5627 14.4048 10.6129C14.2689 10.7633 14.1402 10.9209 14.0043 11.0714C13.9614 11.1215 13.9257 11.1645 13.8827 11.2146C13.7469 11.3722 13.611 11.537 13.4823 11.6946C13.4465 11.7376 13.4108 11.7877 13.375 11.8307C13.2392 11.9955 13.1104 12.1602 12.9746 12.325C12.9388 12.368 12.9102 12.4109 12.8745 12.4468C12.7386 12.6187 12.6099 12.7834 12.4812 12.9554C12.4526 12.9912 12.4311 13.027 12.4025 13.0628C12.2666 13.2419 12.1308 13.4138 12.0021 13.5929C11.9806 13.6216 11.9591 13.6502 11.9377 13.6789C11.8018 13.8651 11.666 14.0442 11.5372 14.2305C11.5158 14.2591 11.5015 14.2806 11.48 14.3093C11.3442 14.4955 11.2154 14.689 11.0796 14.8752C11.0653 14.8967 11.051 14.9182 11.0367 14.9397C10.9008 15.1331 10.7721 15.3265 10.6362 15.5199C10.6291 15.5343 10.6148 15.5486 10.6076 15.5701C10.4717 15.7706 10.343 15.9641 10.2143 16.1646C10.2072 16.179 10.2 16.1933 10.1857 16.2005C10.057 16.401 9.92112 16.6016 9.79955 16.8022C9.79955 16.8022 9.79955 16.8094 9.7924 16.8165C9.66369 17.0243 9.52782 17.232 9.40625 17.4398C10.436 17.8123 11.9162 18.3495 13.7326 19.0229C18.0947 10.7848 23.6796 4.40924 29.0857 1.0567C29.0571 0.992225 29.0285 0.927753 28.9999 0.863281C28.721 0.94208 28.4421 1.02088 28.1704 1.10684C28.0845 1.1355 28.0059 1.16415 27.9272 1.18564L27.9129 1.19997Z" fill="#FCCDD3"/>
</g>
<path d="M20.0972 29.6968C19.189 31.6811 16.8506 32.555 14.8698 31.6524C12.889 30.7498 12.0166 28.4002 12.9176 26.4159C13.8258 24.4316 16.1641 23.5576 18.1449 24.4602C20.1258 25.37 20.9982 27.7125 20.0972 29.6968Z" fill="#AABAB6"/>
<path d="M20.2612 29.5815C19.353 31.5658 17.0147 32.4398 15.0339 31.5372C13.0531 30.6274 12.1806 28.2849 13.0817 26.3006C13.9898 24.3163 16.3282 23.4424 18.309 24.345C20.2898 25.2548 21.1622 27.5972 20.2612 29.5815Z" fill="#D4DDDB"/>
<path d="M19.2812 29.1303C18.6233 30.5701 16.9214 31.2077 15.484 30.5486C14.0467 29.8896 13.4103 28.1847 14.0681 26.7448C14.726 25.3049 16.428 24.6674 17.8653 25.3264C19.3026 25.9855 19.9391 27.6904 19.2812 29.1303Z" fill="#AABAB6"/>
<path d="M18.8744 28.944C18.3166 30.1618 16.8864 30.6991 15.6708 30.1403C14.4551 29.5816 13.9188 28.1489 14.4765 26.9311C15.0343 25.7133 16.4645 25.176 17.6802 25.7347C18.8958 26.2935 19.4322 27.7262 18.8744 28.944Z" fill="#72DDD0"/>
<path opacity="0.49" d="M18.1297 29.5386C18.3371 29.3452 18.5159 29.1088 18.6446 28.8366C19.1452 27.7477 18.6589 26.4583 17.572 25.9569C16.721 25.57 15.7556 25.7778 15.1406 26.4082L18.1369 29.5386H18.1297Z" fill="white"/>
<g style="mix-blend-mode:soft-light">
<path d="M28.5339 2.25293C28.5339 2.25293 32.4169 10.971 28.9987 23.9872L25.4805 22.5831C25.4805 22.5831 28.8343 10.7632 28.5339 2.25293Z" fill="white"/>
</g>
<g style="mix-blend-mode:multiply" opacity="0.5">
<path d="M12.4308 33.0277C12.2091 33.0778 12.0231 33.2713 11.9588 33.5148L10.5 39.1454C11.0578 39.3746 11.6513 39.6182 12.2663 39.8617L15.3555 35.0263C15.4699 34.8472 15.5057 34.6108 15.427 34.4317C15.3412 34.2383 15.2411 34.0664 15.1338 33.9231L13.0171 32.9561C12.7883 32.9704 12.5881 32.999 12.4236 33.0349L12.4308 33.0277Z" fill="#D4DDDB"/>
</g>
<path d="M16.1498 34.1238C15.4061 32.4475 13.8615 32.5693 13.1535 32.7269C12.9319 32.777 12.7459 32.9704 12.6816 33.214L10.5577 41.4306C10.3861 42.0896 11.1584 42.4263 11.5303 41.8533L16.0854 34.7327C16.1998 34.5536 16.2356 34.3172 16.1569 34.1381L16.1498 34.1238Z" fill="#FC5B5B"/>
<g style="mix-blend-mode:soft-light">
<path d="M16.1485 34.1235C15.6337 32.9558 14.7255 32.6621 13.9818 32.6406C14.6826 32.7051 15.4763 33.0489 15.9412 34.1092C16.0198 34.2954 15.9912 34.5246 15.8696 34.7037L11.3145 41.8243C11.2001 42.0034 11.0499 42.0822 10.8926 42.1037C11.1 42.161 11.3502 42.0965 11.5147 41.8315L16.0699 34.7109C16.1843 34.5318 16.22 34.2954 16.1414 34.1163L16.1485 34.1235Z" fill="white"/>
</g>
</svg>
