<svg width="59" height="37" viewBox="0 0 59 37" fill="none" xmlns="http://www.w3.org/2000/svg">
<g clip-path="url(#clip0_253_2782)">
<path d="M25.9421 25.5469L22.0176 35.934L23.0342 36.4814L25.9421 25.5469Z" fill="#AEB5B4"/>
<path d="M21.6903 24.416L16.0098 33.0328L16.4434 33.1466L21.6903 24.416Z" fill="#AEB5B4"/>
<path d="M30.5273 27.1387L30.57 36.5304L31.2383 36.5233L30.5273 27.1387Z" fill="#AEB5B4"/>
<path d="M34.3241 28.6182C34.1108 29.4216 30.2361 29.0946 25.6718 27.8788C21.1074 26.6631 17.5811 25.0279 17.7943 24.2174L23.3754 3.19434L39.9123 7.58806L34.3241 28.6182Z" fill="#AEB5B4"/>
<path d="M34.3241 28.6182C34.1108 29.4216 30.2361 29.0946 25.6718 27.8788C21.1074 26.6631 17.5811 25.0279 17.7943 24.2174L23.3754 3.19434L39.9123 7.58806L34.3241 28.6182Z" fill="#AEB5B4"/>
<path d="M39.912 7.58764C39.6987 8.39102 35.824 8.06398 31.2597 6.84824C26.6953 5.6325 23.1689 3.9973 23.3822 3.1868C23.5955 2.38342 27.4702 2.71046 32.0346 3.9262C36.599 5.14194 40.1253 6.77715 39.912 7.58764Z" fill="#D4DDDB"/>
<path d="M28.9784 15.4156C26.0137 14.6264 23.6817 13.7235 23.767 13.3965L21.5062 21.9138C21.4209 22.2408 23.7528 23.1437 26.7175 23.9329C29.6822 24.7221 32.1563 25.0918 32.2417 24.7647L34.5025 16.2474C34.4172 16.5745 31.943 16.1977 28.9784 15.4156Z" fill="#899391"/>
<path d="M28.9774 15.4228C28.0674 15.1882 27.1574 14.9181 26.2616 14.6337C25.8137 14.4915 25.3658 14.3351 24.925 14.1644C24.7046 14.0791 24.4842 13.9867 24.2709 13.8801C24.1642 13.8303 24.0576 13.7734 23.951 13.7094C23.9012 13.6739 23.8514 13.6383 23.8017 13.5957C23.759 13.5459 23.6879 13.5032 23.695 13.3682L23.8443 13.4108C23.2613 15.7499 22.6144 18.0747 21.9674 20.3995L21.7257 21.274L21.6048 21.7077L21.5479 21.921C21.5479 21.921 21.5977 22.0134 21.6475 22.0561C21.875 22.2338 22.1593 22.3618 22.4295 22.4827C22.7068 22.6035 22.9841 22.7173 23.2684 22.8168C24.3989 23.2221 25.5577 23.5562 26.7237 23.8619C27.8897 24.1605 29.0699 24.4236 30.2572 24.6155C30.8473 24.7008 31.4587 24.8075 32.0203 24.7577C32.0843 24.7577 32.1554 24.708 32.127 24.7293L32.1839 24.516L32.2976 24.0752L32.5251 23.2007C33.1437 20.8688 33.7551 18.5368 34.4163 16.2191L34.5656 16.2618C34.5158 16.3826 34.4234 16.3826 34.3665 16.404C34.3025 16.4182 34.2385 16.4253 34.1817 16.4253C34.0608 16.4253 33.9399 16.4253 33.8191 16.4253C33.5773 16.4111 33.3427 16.3826 33.1081 16.3471C32.6389 16.276 32.1768 16.1907 31.7146 16.0911C30.7904 15.8921 29.8732 15.6717 28.9632 15.4228H28.9774ZM28.9774 15.4015C29.8875 15.6361 30.8046 15.8565 31.736 16.02C32.1981 16.1054 32.6673 16.1765 33.1294 16.2333C33.3641 16.2618 33.5987 16.2831 33.8262 16.2902C33.9399 16.2902 34.0608 16.2902 34.1745 16.2902C34.2314 16.2902 34.2883 16.276 34.3381 16.2689C34.3878 16.2618 34.4305 16.2262 34.4234 16.2333L34.5727 16.276C33.9968 18.615 33.3712 20.947 32.7455 23.2789L32.5109 24.1534L32.39 24.5871L32.3261 24.8075C32.2336 24.9781 32.127 24.9497 32.0488 24.9781C31.4089 25.0279 30.8188 24.9141 30.2216 24.8217C29.0272 24.6084 27.8541 24.3169 26.6882 24.0041C25.5222 23.6842 24.3704 23.3287 23.24 22.9092C22.6783 22.6817 22.1025 22.504 21.5906 22.1485C21.5337 22.0987 21.4484 22.0561 21.4555 21.921L21.5124 21.7006L21.6261 21.2598L21.8536 20.3853C22.4437 18.0463 23.0409 15.7072 23.695 13.3895L23.8443 13.4322C23.8443 13.4322 23.8585 13.4748 23.9012 13.5032C23.9367 13.5388 23.9865 13.5743 24.0292 13.6028C24.1216 13.6668 24.2211 13.7236 24.3278 13.7805C24.5339 13.8872 24.7472 13.9867 24.9605 14.0791C25.3942 14.264 25.835 14.4275 26.2758 14.5839C27.1645 14.9038 28.0674 15.1598 28.9774 15.4157V15.4015Z" fill="#65706D"/>
<g style="mix-blend-mode:multiply" opacity="0.5">
<path d="M33.0307 26.897C26.817 25.2476 23.5465 17.2706 25.7221 9.08037C26.1771 7.35274 26.8454 5.76019 27.663 4.33117L23.3688 3.18652L17.7807 24.2167C17.5674 25.0201 21.0937 26.6624 25.6581 27.8781C30.2224 29.0939 34.0972 29.4209 34.3105 28.6175L34.6944 27.1814C34.1327 27.1387 33.5782 27.0534 33.0236 26.9041L33.0307 26.897Z" fill="#D4DDDB"/>
</g>
<path d="M39.912 7.58764C39.6987 8.39102 35.824 8.06398 31.2597 6.84824C26.6953 5.6325 23.1689 3.9973 23.3822 3.1868C23.5955 2.38342 27.4702 2.71046 32.0346 3.9262C36.599 5.14194 40.1253 6.77715 39.912 7.58764Z" fill="#D4DDDB"/>
<g style="mix-blend-mode:soft-light">
<path d="M33.2794 8.83887C33.2794 8.83887 31.9357 16.9509 35.4052 20.8541L38.4766 9.28677C38.4766 9.28677 36.948 9.6067 33.2723 8.83887H33.2794Z" fill="#D4DDDB"/>
</g>
<path d="M20.4175 6.94784L17.6092 17.5269L0.994141 13.1047L3.27632 0.691406L20.4175 6.94784Z" fill="#E4F4F0"/>
<path d="M12.0702 16.0476L13.1721 4.30259L8.11011 2.4541L6.87305 14.6684L12.0702 16.0476Z" fill="white"/>
<path d="M16.0096 5.34021L14.801 4.89941L13.4004 16.4027L13.6066 16.4596L16.0096 5.34021Z" fill="white"/>
<path d="M40.5524 12.543L37.7441 23.1149L54.3592 27.53L58.5468 15.6214L40.5524 12.543Z" fill="#E4F4F0"/>
<path d="M43.2812 24.5863L48.1513 13.8438L53.4693 14.7538L48.4784 25.9656L43.2812 24.5863Z" fill="white"/>
<path d="M45.1793 13.332L46.4519 13.5524L41.9445 24.231L41.7383 24.1813L45.1793 13.332Z" fill="white"/>
</g>
<defs>
<clipPath id="clip0_253_2782">
<rect width="57.5521" height="35.8394" fill="white" transform="translate(0.994141 0.691406)"/>
</clipPath>
</defs>
</svg>
