<svg width="95" height="66" viewBox="0 0 95 66" fill="none" xmlns="http://www.w3.org/2000/svg">
<path d="M74.0219 40.0938C77.6949 26.2242 69.2902 12.0393 55.2495 8.41099C41.2088 4.7827 26.849 13.085 23.176 26.9546C19.503 40.8243 27.9076 55.0092 41.9483 58.6375C55.989 62.2658 70.3488 53.9635 74.0219 40.0938Z" fill="url(#paint0_radial_168_625)"/>
<path style="mix-blend-mode:screen" opacity="0.7" d="M44.9038 15.1218C52.5527 15.9804 57.7775 25.1484 56.5799 35.5947C55.3824 46.041 48.2067 53.8256 40.5579 52.967C32.909 52.1084 27.6843 42.9405 28.8818 32.4942C30.0794 22.0479 37.255 14.2633 44.9038 15.1218Z" fill="url(#paint1_radial_168_625)"/>
<path style="mix-blend-mode:multiply" opacity="0.33" d="M67.3007 15.2841C77.4992 25.4823 77.393 41.9197 67.0689 51.994C60.2313 58.6624 50.622 60.8757 41.9688 58.6433C47.6088 57.9946 53.0847 55.5619 57.4403 51.3166C67.7643 41.2424 67.8609 24.805 57.6624 14.6067C54.2243 11.1628 50.0522 8.87319 45.629 7.73793C53.3648 6.87934 61.4096 9.39789 67.3104 15.2936L67.3007 15.2841Z" fill="url(#paint2_radial_168_625)"/>
<path style="mix-blend-mode:multiply" opacity="0.33" d="M67.3007 15.2843C77.4992 25.4826 77.3929 41.92 67.0689 51.9942C61.3709 57.556 53.7317 60.0174 46.334 59.3877C52.428 59.0061 58.435 56.5353 63.1286 51.9465C73.4526 41.8723 73.5589 25.4253 63.3604 15.2366C58.7923 10.667 52.9302 8.1198 46.9134 7.61418C54.2532 7.15626 61.7379 9.71298 67.3007 15.2748V15.2843Z" fill="url(#paint3_radial_168_625)"/>
<mask id="mask0_168_625" style="mask-type:luminance" maskUnits="userSpaceOnUse" x="22" y="7" width="53" height="53">
<path d="M74.0219 40.0938C77.6949 26.2242 69.2902 12.0393 55.2495 8.41099C41.2088 4.7827 26.849 13.085 23.176 26.9546C19.503 40.8243 27.9076 55.0092 41.9483 58.6375C55.989 62.2658 70.3488 53.9635 74.0219 40.0938Z" fill="white"/>
</mask>
<g mask="url(#mask0_168_625)">
<g style="mix-blend-mode:screen" opacity="0.35">
<path d="M15.207 36.1577C19.7847 35.7188 24.3334 34.6408 28.718 33.3052C33.1026 31.9696 37.4485 30.3574 41.6399 28.4684C50.0517 24.6811 57.9227 19.8443 65.0886 14.063C67.0685 12.4699 68.9903 10.8004 70.8446 9.07363C71.8007 8.18641 72.7472 7.28965 73.6453 6.34519C74.5435 5.40073 75.5189 4.49443 76.079 3.32101C76.3301 2.79631 75.8086 2.17622 75.2388 2.49103C74.2344 3.05389 73.4715 3.88387 72.6409 4.67569C71.8104 5.46751 70.9991 6.24979 70.1589 7.03207C68.5171 8.56801 66.8174 10.0467 65.079 11.4682C61.6119 14.3111 57.9613 16.8964 54.1755 19.31C46.575 24.1564 38.3466 28.0773 29.7803 30.9393C24.9322 32.5611 19.9875 33.7631 15.0428 35.051C14.444 35.2037 14.5406 36.2149 15.1973 36.1481L15.207 36.1577Z" fill="url(#paint4_radial_168_625)"/>
</g>
<g style="mix-blend-mode:screen" opacity="0.35">
<path d="M22.9237 53.9209C27.5015 53.482 32.0502 52.404 36.4348 51.0684C40.8193 49.7328 45.1653 48.1205 49.3567 46.2316C57.7685 42.4442 65.6395 37.6075 72.8054 31.8262C74.7853 30.2331 76.7071 28.5636 78.5614 26.8368C79.5175 25.9496 80.4639 25.0528 81.3621 24.1084C82.2603 23.1639 83.2357 22.2576 83.7958 21.0842C84.0469 20.5595 83.5254 19.9394 82.9556 20.2542C81.9512 20.8171 81.1883 21.6471 80.3577 22.4389C79.5272 23.2307 78.7159 24.013 77.8757 24.7953C76.2339 26.3312 74.5342 27.8099 72.7958 29.2314C69.3287 32.0743 65.6781 34.6596 61.8923 37.0732C54.2918 41.9195 46.0634 45.8405 37.4971 48.7025C32.649 50.3243 27.7043 51.5263 22.7596 52.8142C22.1608 52.9669 22.2574 53.9781 22.9141 53.9113L22.9237 53.9209Z" fill="url(#paint5_radial_168_625)"/>
</g>
<g opacity="0.35">
<path d="M17.2642 52.5565C19.7172 52.7187 22.1799 52.4134 24.5847 51.9651C26.9894 51.5167 29.1527 51.0588 31.3836 50.41C36.029 49.0554 40.6067 47.3954 45.0106 45.4111C49.4144 43.4268 53.3548 41.3375 57.3144 38.9143C61.274 36.4912 65.2723 33.5242 68.9518 30.4619C70.7288 28.9832 72.4576 27.4473 74.138 25.8636C74.9879 25.0623 75.8474 24.2514 76.649 23.4023C77.0063 23.0207 77.3347 22.6105 77.6727 22.2194C78.1652 21.6374 78.7447 21.0459 79.0924 20.3686C79.5076 19.5386 79.7394 18.7086 79.3724 17.8214C78.9185 16.7052 77.75 16.1901 76.5717 16.4763C75.152 16.8197 74.08 18.0599 72.9984 18.9662C71.26 20.4354 69.6472 22.0572 67.8992 23.5359C67.001 24.2991 66.0932 25.0432 65.1757 25.7682C64.7411 26.1117 64.3065 26.4551 63.8623 26.789C63.5436 27.0371 64.3355 26.4265 64.0168 26.6745C63.9106 26.7509 63.814 26.8272 63.7077 26.913C63.447 27.1134 63.1862 27.3042 62.9255 27.495C61.0712 28.8687 59.159 30.1852 57.2178 31.4445C53.3161 33.9631 49.3565 36.3576 45.2037 38.4469C43.166 39.4772 41.0799 40.4312 38.9939 41.3566C38.453 41.5951 37.9219 41.824 37.381 42.053C37.2651 42.1007 37.1396 42.1484 37.0237 42.2056C37.0816 42.177 37.6997 41.929 37.2072 42.1293C36.9078 42.2533 36.5988 42.3774 36.2994 42.5014C35.2081 42.9402 34.1071 43.36 32.9965 43.7702C28.6602 45.3538 24.208 46.594 19.8428 48.1014C18.6742 48.502 17.5442 48.9313 16.4046 49.4274C15.7286 49.7232 15.4389 50.6676 15.6224 51.3259C15.8252 52.07 16.5109 52.5088 17.2642 52.5565Z" fill="url(#paint6_radial_168_625)"/>
</g>
<g style="mix-blend-mode:screen" opacity="0.35">
<path d="M17.129 43.0834C19.5434 43.1502 21.9675 42.8163 24.3336 42.3584C26.6997 41.9004 28.892 41.4044 31.1229 40.7461C35.662 39.401 40.1239 37.7792 44.4408 35.8425C48.7578 33.9059 52.7947 31.7785 56.7543 29.3649C60.7139 26.9513 64.6542 24.0511 68.3145 21.0365C70.304 19.4051 72.2258 17.6975 74.0898 15.923C75.0362 15.0263 75.9827 14.12 76.8325 13.1469C77.8466 11.983 79.1697 10.781 79.0055 9.11148C78.9186 8.2815 78.3778 7.63278 77.4796 7.60416C75.9151 7.55646 74.9589 8.5677 73.8773 9.53124C73.0178 10.2849 72.1872 11.0672 71.3566 11.8399C69.6859 13.3854 67.9572 14.8832 66.1802 16.3237C65.7745 16.6576 65.3689 16.982 64.9536 17.3063C64.7508 17.4685 64.5384 17.6307 64.3355 17.7929C64.21 17.8883 64.0748 17.9932 63.9492 18.0886C63.7271 18.2603 63.6788 18.3271 63.9203 18.1077C63.0704 18.8423 62.0853 19.4815 61.1678 20.1302C59.3039 21.4562 57.3917 22.6964 55.4698 23.9366C51.6551 26.3884 47.6858 28.6112 43.5909 30.5765C42.5576 31.0725 41.5145 31.54 40.4715 32.017C39.9693 32.246 39.4575 32.4749 38.9553 32.6943C38.7138 32.7993 38.4724 32.9042 38.2406 33.0092C38.1247 33.0569 37.9992 33.1141 37.8833 33.1618C37.7964 33.2 37.1686 33.4671 37.7674 33.2095C35.691 34.0872 33.5663 34.879 31.432 35.6136C29.0176 36.4436 26.5838 37.2449 24.1405 37.9795C21.6971 38.7141 19.0509 39.4487 16.762 40.355C16.1053 40.6125 15.6321 41.1468 15.748 41.8909C15.8542 42.5873 16.4144 43.0834 17.1387 43.1025L17.129 43.0834Z" fill="url(#paint7_radial_168_625)"/>
</g>
<g opacity="0.35">
<path d="M24.7475 59.2059C29.3639 58.9483 33.9802 57.8608 38.3938 56.5347C42.8073 55.2086 47.2788 53.5582 51.5378 51.6407C60.0269 47.8152 67.9461 42.9307 75.1411 37.0636C77.1112 35.4609 79.0234 33.7818 80.8777 32.0455C81.8242 31.1583 82.7706 30.2616 83.6591 29.298C84.5862 28.2963 85.6003 27.3614 85.9866 26.0163C86.1701 25.3962 85.523 24.6616 84.8567 24.9001C84.2579 25.1195 83.7847 25.3675 83.2921 25.7778C82.8382 26.1498 82.4326 26.5791 82.0076 26.9798C81.1771 27.7525 80.3465 28.5444 79.516 29.3266C77.8742 30.8626 76.1744 32.3413 74.4361 33.7627C70.9786 36.5961 67.328 39.1624 63.5519 41.5665C55.961 46.4223 47.7617 50.3528 39.2147 53.2434C34.3762 54.8747 29.4122 56.0672 24.5351 57.5555C23.6562 57.8226 23.7721 59.2536 24.7572 59.2059H24.7475Z" fill="url(#paint8_radial_168_625)"/>
</g>
<g opacity="0.5">
<path d="M9.43111 30.6624C14.0475 30.4049 18.6638 29.3173 23.0774 27.9913C27.4909 26.6652 31.9624 25.0148 36.2214 23.0972C44.7105 19.2717 52.6297 14.3872 59.8247 8.52012C61.7948 6.9174 63.707 5.23836 65.5613 3.50209C66.5077 2.61487 67.4542 1.71811 68.3427 0.754567C69.2698 -0.247133 70.2839 -1.18205 70.6702 -2.52719C70.8537 -3.14729 70.2066 -3.88187 69.5402 -3.64337C68.9415 -3.42395 68.4682 -3.17591 67.9757 -2.76569C67.5218 -2.39363 67.1162 -1.96433 66.6912 -1.56365C65.8607 -0.790912 65.0301 0.000907437 64.1996 0.783187C62.5578 2.31913 60.858 3.79782 59.1197 5.21928C55.6622 8.05266 52.0116 10.6189 48.2355 13.023C40.6446 17.8789 32.4453 21.8093 23.8983 24.7C19.0598 26.3313 14.0958 27.5238 9.21864 29.012C8.3398 29.2791 8.45569 30.7101 9.44077 30.6624H9.43111Z" fill="url(#paint9_radial_168_625)"/>
</g>
</g>
<path d="M59.8737 8.7682C66.4699 5.93482 73.4137 3.27316 80.57 2.21422C83.4577 1.78492 89.0591 0.926325 90.8361 4.11268C92.2461 6.65986 90.1891 10.0466 88.8177 12.1358C85.9204 16.5242 81.9704 20.2639 78.0011 23.7078C66.3926 33.7916 52.843 42.0055 38.878 48.4927C32.6585 51.3833 26.2458 53.9687 19.5917 55.6954C15.6418 56.7162 10.9095 57.9087 6.834 56.8593C5.6944 56.5636 4.5548 56.0007 3.95602 54.9418C3.17376 53.5489 3.56006 51.7936 4.09123 50.3912C4.99905 48.0157 6.59256 45.8597 8.20538 43.904C10.4363 41.2233 12.9376 38.7619 15.5355 36.4342C17.1001 35.0318 18.7129 33.6676 20.3547 32.3511C21.8227 31.1681 19.5241 30.5766 18.568 31.3398C12.8121 35.9476 6.85331 41.042 2.93231 47.3479C1.13599 50.2385 -0.834163 54.8368 2.5943 57.3649C5.70406 59.645 10.6101 59.0821 14.1641 58.5193C20.7796 57.4794 27.1923 55.2566 33.3635 52.7476C48.893 46.413 63.7658 37.703 76.7939 27.2185C81.6131 23.3453 86.2874 19.1382 90.0635 14.2346C92.0723 11.6207 94.6799 7.91914 93.9942 4.41796C93.2409 0.582885 88.3541 0.0295657 85.1478 0.0963457C78.2136 0.229906 71.3084 2.5195 64.8957 4.92358C62.8097 5.70586 60.7526 6.54538 58.7148 7.42306C58.2706 7.61386 57.6138 8.1481 58.0002 8.66326C58.3865 9.17842 59.4005 8.96854 59.8737 8.7682Z" fill="url(#paint10_radial_168_625)"/>
<path d="M64.2284 11.0004C66.3531 10.1323 85.5814 2.12822 85.4172 8.42461C85.3593 10.8859 83.1091 13.3282 81.5735 15.0549C78.5024 18.4988 74.9484 21.523 71.2978 24.3564C61.3214 32.1124 50.3214 38.7332 38.935 44.2473C34 46.6418 28.9297 48.8646 23.7146 50.5914C20.2861 51.7266 16.5486 52.9287 12.8884 52.9001C11.9033 52.9001 10.7347 52.7856 10.049 52.2227C9.0543 51.4118 9.32472 50.0381 9.74965 48.9887C10.5802 46.9185 12.1544 45.1059 13.6513 43.4745C16.0078 40.9083 18.6443 38.5805 21.3388 36.3672C21.841 35.957 21.5609 35.4037 21.0298 35.232C20.3537 35.0126 19.5618 35.3369 19.05 35.7567C16.6838 37.7028 0.0340701 51.4595 9.19917 54.2834C12.4345 55.2755 16.3072 54.3501 19.4749 53.5583C24.8735 52.2036 30.0983 50.1335 35.1685 47.882C47.907 42.2248 60.1722 35.0794 71.2881 26.7319C75.4023 23.6409 79.4488 20.3591 82.9835 16.6099C85.0309 14.4443 87.5999 11.7064 88.1697 8.67265C88.8457 5.08561 84.944 4.29379 82.1433 4.37011C75.6147 4.54183 69.0186 7.20349 63.0695 9.64573C62.6155 9.82699 61.9781 10.3708 62.3548 10.8859C62.7314 11.4011 63.7455 11.1817 64.2284 10.9909V11.0004Z" fill="url(#paint11_radial_168_625)"/>
<defs>
<radialGradient id="paint0_radial_168_625" cx="0" cy="0" r="1" gradientUnits="userSpaceOnUse" gradientTransform="translate(35.9737 31.6132) rotate(-44.299) scale(34.175 34.1673)">
<stop stop-color="#F9CD78"/>
<stop offset="1" stop-color="#FFC82A"/>
</radialGradient>
<radialGradient id="paint1_radial_168_625" cx="0" cy="0" r="1" gradientUnits="userSpaceOnUse" gradientTransform="translate(36.3795 37.6443) rotate(-83.4509) scale(24.7964 18.2192)">
<stop stop-color="#FDC079"/>
<stop offset="0.95" stop-color="#FFB06B" stop-opacity="0"/>
</radialGradient>
<radialGradient id="paint2_radial_168_625" cx="0" cy="0" r="1" gradientUnits="userSpaceOnUse" gradientTransform="translate(51.874 34.2264) rotate(-44.2889) scale(23.8169 23.8115)">
<stop stop-color="#FDC079"/>
<stop offset="0.95" stop-color="#FFB06B"/>
</radialGradient>
<radialGradient id="paint3_radial_168_625" cx="0" cy="0" r="1" gradientUnits="userSpaceOnUse" gradientTransform="translate(53.0866 33.6203) rotate(-44.289) scale(22.9626 22.9573)">
<stop stop-color="#FDC079"/>
<stop offset="0.95" stop-color="#FFB06B"/>
</radialGradient>
<radialGradient id="paint4_radial_168_625" cx="0" cy="0" r="1" gradientUnits="userSpaceOnUse" gradientTransform="translate(45.6478 19.4531) scale(24.8588 24.5559)">
<stop stop-color="#FDC079"/>
<stop offset="0.95" stop-color="#FFB06B"/>
</radialGradient>
<radialGradient id="paint5_radial_168_625" cx="0" cy="0" r="1" gradientUnits="userSpaceOnUse" gradientTransform="translate(53.3646 37.2163) scale(24.8588 24.5559)">
<stop stop-color="#FDC079"/>
<stop offset="0.95" stop-color="#FFB06B"/>
</radialGradient>
<radialGradient id="paint6_radial_168_625" cx="0" cy="0" r="1" gradientUnits="userSpaceOnUse" gradientTransform="translate(48.2459 35.0316) scale(25.9694 25.653)">
<stop stop-color="#FDC079"/>
<stop offset="0.95" stop-color="#633E24"/>
</radialGradient>
<radialGradient id="paint7_radial_168_625" cx="0" cy="0" r="1" gradientUnits="userSpaceOnUse" gradientTransform="translate(47.9658 25.7683) scale(25.6893 25.3764)">
<stop stop-color="#FDC079"/>
<stop offset="0.95" stop-color="#FFB06B"/>
</radialGradient>
<radialGradient id="paint8_radial_168_625" cx="0" cy="0" r="1" gradientUnits="userSpaceOnUse" gradientTransform="translate(55.3236 42.2915) scale(25.1388 24.8326)">
<stop stop-color="#FDC079"/>
<stop offset="0.95" stop-color="#633E24"/>
</radialGradient>
<radialGradient id="paint9_radial_168_625" cx="0" cy="0" r="1" gradientUnits="userSpaceOnUse" gradientTransform="translate(40.0072 13.748) scale(25.1388 24.8326)">
<stop stop-color="#FDC079"/>
<stop offset="0.95" stop-color="#633E24"/>
</radialGradient>
<radialGradient id="paint10_radial_168_625" cx="0" cy="0" r="1" gradientUnits="userSpaceOnUse" gradientTransform="translate(47.4154 29.5558) scale(38.4374 37.9692)">
<stop stop-color="#F9CD78"/>
<stop offset="1" stop-color="#FFC82A"/>
</radialGradient>
<radialGradient id="paint11_radial_168_625" cx="0" cy="0" r="1" gradientUnits="userSpaceOnUse" gradientTransform="translate(47.3565 29.5557) scale(33.3382 32.9321)">
<stop stop-color="#F9CD78"/>
<stop offset="1" stop-color="#FFC82A"/>
</radialGradient>
</defs>
</svg>
