<svg width="80" height="88" viewBox="0 0 80 88" fill="none" xmlns="http://www.w3.org/2000/svg">
<path opacity="0.2" d="M78.8672 79.6989L53.3882 34.249L25.594 34.5384L1.0728 80.5089C1.11336 80.4703 0.480982 80.9981 0.487205 81.5957C0.522902 85.024 18.2348 87.6179 40.0488 87.3908C61.8628 87.1636 79.2652 84.1993 79.4811 80.7732C79.5158 80.1703 78.8317 79.661 78.873 79.6988L78.8672 79.6989Z" fill="#F4D650"/>
<path d="M40.1817 41.72C49.8028 41.6726 58.1629 40.6632 62.3806 32.7208C47.5698 32.797 32.7144 32.8669 17.8869 32.9428C22.1866 40.8425 30.5549 41.7673 40.176 41.7255L40.1817 41.72Z" fill="#C39C2A"/>
<path d="M40.0529 15.5154C26.7694 15.5825 15.2572 23.0743 9.42507 34.0398L70.8645 33.7366C64.9294 22.8288 53.3419 15.454 40.0529 15.5154Z" fill="#E27878"/>
<path d="M40.0526 15.5321C29.8517 15.5814 21.0208 23.0546 16.5546 34.0029L63.7351 33.7679C59.1655 22.8652 50.2592 15.4774 40.0527 15.5266L40.0526 15.5321Z" fill="#E68E8E"/>
<path d="M40.0526 15.5321C33.2353 15.5629 27.342 23.0271 24.3752 33.9658L55.9088 33.8105C52.8387 22.8982 46.87 15.4958 40.0526 15.5321Z" fill="#E9A4A4"/>
<path d="M39.9832 0.994513C38.9743 1.00074 37.997 1.11894 37.0515 1.33798C43.017 2.64253 47.492 7.94206 47.5244 14.3023L47.5435 18.0036L53.4076 17.9744L53.3885 14.2731C53.3499 6.90389 47.3468 0.961324 39.9832 0.994513Z" fill="#B4CDFD"/>
<path d="M37.0515 1.33797C31.0992 2.70349 26.6778 8.03966 26.7046 14.4054L26.7236 18.1067L47.5435 18.0036L47.5244 14.3023C47.492 7.94205 43.0113 2.64801 37.0515 1.33797Z" fill="#C6D9FE"/>
<path opacity="0.7" d="M39.2792 3.90398C39.6258 4.88492 38.3279 6.2354 36.383 6.91229C34.438 7.59476 32.5859 7.34787 32.2448 6.36702C31.8981 5.38608 33.196 4.0356 35.1409 3.3587C37.0859 2.67624 38.9381 2.92312 39.2792 3.90398Z" fill="white"/>
<path d="M73.4958 33.7116C73.4978 34.2857 73.0332 34.7577 72.4535 34.7596L7.84226 35.0792C7.26812 35.0812 6.79618 34.6166 6.79418 34.0424C6.79226 33.4627 7.25675 32.9964 7.83088 32.9944L72.4421 32.6748C73.0163 32.6728 73.4882 33.1374 73.4902 33.7115L73.4958 33.7116Z" fill="#F6DD7E"/>
<path d="M54.6977 17.8166C54.6993 18.413 54.2234 18.8959 53.627 18.8976L26.5139 19.0286C25.9174 19.0303 25.4346 18.5488 25.4329 17.958C25.4312 17.3615 25.9127 16.8787 26.5035 16.877L53.6167 16.7459C54.2131 16.7443 54.696 17.2202 54.6977 17.8166Z" fill="#F6DD7E"/>
</svg>
