<svg width="321" height="472" viewBox="0 0 321 472" fill="none" xmlns="http://www.w3.org/2000/svg">
<path d="M320.396 157.383C320.396 158.119 319.8 158.718 319.061 158.718C318.322 158.718 317.727 158.122 317.727 157.383C317.727 156.644 318.325 156.048 319.061 156.048C319.798 156.048 320.396 156.644 320.396 157.383Z" fill="#656D9B"/>
<path d="M307.938 167.171C307.938 168.893 306.546 170.286 304.824 170.286C303.102 170.286 301.709 168.893 301.709 167.171C301.709 165.45 303.102 164.057 304.824 164.057C306.546 164.057 307.938 165.45 307.938 167.171Z" fill="#656D9B"/>
<path d="M26.7137 29.3093C25.6805 28.4824 24.1727 28.6496 23.3458 29.6827C22.5189 30.7159 22.6861 32.2237 23.7192 33.0506C24.7523 33.8775 26.2602 33.7103 27.0871 32.6772C27.914 31.6441 27.7468 30.1362 26.7137 29.3093Z" fill="#656D9B"/>
<path d="M37.3609 2.58477C36.5533 1.93839 35.3746 2.06907 34.7283 2.87666C34.0819 3.68425 34.2126 4.86293 35.0202 5.50931C35.8277 6.15569 37.0064 6.02501 37.6528 5.21742C38.2992 4.40983 38.1685 3.23115 37.3609 2.58477Z" fill="#656D9B"/>
<path d="M2.65013 16.1968C3.25573 16.4835 3.51471 17.2081 3.22802 17.8137C2.94133 18.4193 2.21668 18.6783 1.61108 18.3916C1.00549 18.1049 0.746502 17.3803 1.0332 16.7747C1.31989 16.1691 2.04454 15.9101 2.65013 16.1968Z" fill="#656D9B"/>
<path d="M137.501 86.3741C135.302 85.9367 133.866 83.8004 134.305 81.5921C134.744 79.3838 136.879 77.9573 139.087 78.3964C141.296 78.8354 142.722 80.97 142.283 83.1783C141.844 85.3866 139.709 86.8131 137.501 86.3741Z" fill="#656D9B"/>
<path d="M167.1 64.8757C166.883 65.9651 167.591 67.0239 168.68 67.2405C169.77 67.4571 170.829 66.7495 171.045 65.6601C171.262 64.5707 170.554 63.5119 169.465 63.2953C168.375 63.0787 167.317 63.7862 167.1 64.8757Z" fill="#656D9B"/>
<path d="M140.234 316.514C140.911 318.652 139.731 320.939 137.585 321.619C135.438 322.299 133.159 321.116 132.48 318.969C131.8 316.823 132.983 314.544 135.129 313.865C137.276 313.185 139.554 314.368 140.234 316.514Z" fill="#656D9B"/>
<path d="M107.132 300.943C108.191 300.608 108.777 299.477 108.442 298.418C108.107 297.359 106.976 296.773 105.917 297.108C104.858 297.443 104.272 298.574 104.607 299.633C104.942 300.692 106.073 301.278 107.132 300.943Z" fill="#656D9B"/>
<path d="M11.618 466.123C10.4348 466.56 9.82621 467.873 10.2652 469.061C10.7042 470.249 12.016 470.853 13.2039 470.414C14.3918 469.975 14.9957 468.663 14.5567 467.475C14.1177 466.287 12.8059 465.684 11.618 466.123Z" fill="#656D9B"/>
<path d="M28.5907 437.447C28.8778 438.224 29.7406 438.621 30.5176 438.334C31.2947 438.047 31.6919 437.184 31.4047 436.407C31.1175 435.63 30.2548 435.233 29.4778 435.52C28.7007 435.807 28.3035 436.67 28.5907 437.447Z" fill="#656D9B"/>
<path d="M35.6444 459.091C35.8359 459.609 36.411 459.874 36.9291 459.683C37.4471 459.491 37.7119 458.916 37.5205 458.398C37.329 457.88 36.7539 457.615 36.2358 457.807C35.7178 457.998 35.453 458.573 35.6444 459.091Z" fill="#656D9B"/>
<path d="M234.95 467.769C234.988 468.319 235.465 468.736 236.017 468.697C236.569 468.659 236.983 468.182 236.945 467.63C236.906 467.078 236.43 466.663 235.877 466.702C235.325 466.741 234.911 467.217 234.95 467.769Z" fill="#656D9B"/>
<path d="M209.705 444.9C210.532 444.843 211.155 444.126 211.097 443.299C211.04 442.473 210.323 441.85 209.496 441.908C208.67 441.965 208.047 442.682 208.105 443.509C208.162 444.335 208.879 444.958 209.705 444.9Z" fill="#656D9B"/>
<path d="M232.459 444.199C233.01 444.16 233.426 443.683 233.387 443.132C233.349 442.581 232.871 442.165 232.32 442.204C231.769 442.242 231.353 442.72 231.392 443.271C231.43 443.822 231.908 444.237 232.459 444.199Z" fill="#656D9B"/>
<path d="M228.495 458.574C229.597 458.497 230.427 457.541 230.35 456.439C230.273 455.337 229.318 454.506 228.216 454.583C227.114 454.66 226.283 455.616 226.36 456.718C226.437 457.82 227.393 458.651 228.495 458.574Z" fill="#656D9B"/>
<path d="M240.345 6.38515C239.951 4.17742 241.417 2.06254 243.634 1.66702C245.85 1.2715 247.956 2.73978 248.352 4.95627C248.747 7.17276 247.279 9.27888 245.063 9.6744C242.846 10.0699 240.74 8.60164 240.345 6.38515Z" fill="#656D9B"/>
<path d="M271.147 26.118C270.054 26.3132 269.326 27.3578 269.521 28.4513C269.716 29.5448 270.761 30.273 271.854 30.0779C272.948 29.8828 273.676 28.8382 273.481 27.7447C273.286 26.6512 272.241 25.9229 271.147 26.118Z" fill="#656D9B"/>
</svg>
