<svg width="471" height="321" viewBox="0 0 471 321" fill="none" xmlns="http://www.w3.org/2000/svg">
<path d="M314.151 320.021C313.415 320.021 312.817 319.425 312.817 318.686C312.817 317.947 313.412 317.352 314.151 317.352C314.89 317.352 315.486 317.95 315.486 318.686C315.486 319.423 314.89 320.021 314.151 320.021Z" fill="#656D9B"/>
<path d="M304.362 307.562C302.64 307.562 301.247 306.17 301.247 304.448C301.247 302.726 302.64 301.333 304.362 301.333C306.084 301.333 307.477 302.726 307.477 304.448C307.477 306.17 306.084 307.562 304.362 307.562Z" fill="#656D9B"/>
<path d="M442.225 26.3377C443.052 25.3046 442.885 23.7967 441.851 22.9698C440.818 22.1429 439.31 22.3101 438.484 23.3432C437.657 24.3764 437.824 25.8842 438.857 26.7111C439.89 27.538 441.398 27.3708 442.225 26.3377Z" fill="#656D9B"/>
<path d="M468.95 36.9859C469.597 36.1783 469.466 34.9996 468.658 34.3533C467.851 33.7069 466.672 33.8376 466.026 34.6452C465.379 35.4527 465.51 36.6314 466.318 37.2778C467.125 37.9242 468.304 37.7935 468.95 36.9859Z" fill="#656D9B"/>
<path d="M455.337 2.27416C455.051 2.87975 454.326 3.13874 453.72 2.85204C453.115 2.56535 452.856 1.8407 453.143 1.23511C453.429 0.629512 454.154 0.370526 454.76 0.657219C455.365 0.943913 455.624 1.66856 455.337 2.27416Z" fill="#656D9B"/>
<path d="M385.159 137.126C385.596 134.927 387.733 133.491 389.941 133.93C392.149 134.369 393.576 136.504 393.137 138.712C392.698 140.921 390.563 142.347 388.355 141.908C386.147 141.469 384.72 139.334 385.159 137.126Z" fill="#656D9B"/>
<path d="M406.658 166.724C405.568 166.507 404.509 167.215 404.293 168.304C404.076 169.394 404.784 170.453 405.873 170.669C406.963 170.886 408.021 170.178 408.238 169.089C408.455 167.999 407.747 166.941 406.658 166.724Z" fill="#656D9B"/>
<path d="M155.021 139.859C152.883 140.536 150.595 139.356 149.916 137.21C149.236 135.063 150.419 132.784 152.565 132.105C154.712 131.425 156.99 132.608 157.67 134.754C158.35 136.901 157.167 139.179 155.021 139.859Z" fill="#656D9B"/>
<path d="M170.591 106.756C170.926 107.815 172.056 108.401 173.115 108.066C174.174 107.731 174.761 106.6 174.426 105.541C174.09 104.482 172.96 103.896 171.901 104.231C170.842 104.567 170.255 105.697 170.591 106.756Z" fill="#656D9B"/>
<path d="M5.41165 11.242C4.97441 10.0588 3.66089 9.45023 2.47298 9.88921C1.28507 10.3282 0.681183 11.64 1.12016 12.8279C1.55913 14.0158 2.87093 14.6197 4.05883 14.1807C5.24674 13.7417 5.85063 12.4299 5.41165 11.242Z" fill="#656D9B"/>
<path d="M34.0873 28.2147C33.3102 28.5019 32.9131 29.3646 33.2002 30.1417C33.4874 30.9187 34.3501 31.3159 35.1272 31.0287C35.9042 30.7416 36.3014 29.8789 36.0142 29.1018C35.7271 28.3247 34.8644 27.9276 34.0873 28.2147Z" fill="#656D9B"/>
<path d="M12.443 35.2685C11.9249 35.4599 11.6602 36.0351 11.8516 36.5531C12.043 37.0711 12.6182 37.3359 13.1362 37.1445C13.6543 36.953 13.919 36.3779 13.7276 35.8598C13.5362 35.3418 12.961 35.077 12.443 35.2685Z" fill="#656D9B"/>
<path d="M3.76539 234.575C3.2153 234.613 2.79893 235.09 2.83751 235.642C2.8761 236.194 3.35251 236.608 3.90478 236.57C4.45704 236.531 4.87123 236.055 4.83265 235.502C4.79407 234.95 4.31765 234.536 3.76539 234.575Z" fill="#656D9B"/>
<path d="M26.6333 209.329C26.6911 210.156 27.4078 210.779 28.2342 210.721C29.0606 210.664 29.6838 209.947 29.626 209.12C29.5683 208.294 28.8515 207.671 28.0251 207.729C27.1987 207.786 26.5756 208.503 26.6333 209.329Z" fill="#656D9B"/>
<path d="M27.3353 232.083C27.3738 232.634 27.8516 233.05 28.4026 233.011C28.9535 232.973 29.3689 232.495 29.3304 231.944C29.2919 231.393 28.8141 230.977 28.2632 231.016C27.7122 231.054 27.2968 231.532 27.3353 232.083Z" fill="#656D9B"/>
<path d="M12.9606 228.12C13.0376 229.222 13.9933 230.052 15.0952 229.975C16.197 229.898 17.0279 228.943 16.9509 227.841C16.8739 226.739 15.9183 225.908 14.8164 225.985C13.7145 226.062 12.8837 227.018 12.9606 228.12Z" fill="#656D9B"/>
<path d="M465.149 239.969C467.357 239.575 469.472 241.041 469.867 243.258C470.263 245.474 468.794 247.58 466.578 247.976C464.361 248.372 462.255 246.903 461.86 244.687C461.464 242.47 462.933 240.364 465.149 239.969Z" fill="#656D9B"/>
<path d="M445.415 270.771C445.22 269.678 444.175 268.95 443.082 269.145C441.988 269.34 441.26 270.385 441.455 271.478C441.65 272.572 442.695 273.3 443.789 273.105C444.882 272.91 445.61 271.865 445.415 270.771Z" fill="#656D9B"/>
</svg>
