<svg width="828" height="850" viewBox="0 0 828 850" fill="none" xmlns="http://www.w3.org/2000/svg">
<path d="M258.149 335.138L259.955 337.577C260.471 338.271 261.37 338.556 262.189 338.28L265.063 337.31C266.888 336.696 268.436 338.778 267.315 340.353L265.553 342.827C265.054 343.53 265.063 344.474 265.58 345.168L267.386 347.606C268.534 349.155 267.03 351.273 265.188 350.694L262.287 349.786C261.468 349.528 260.569 349.831 260.071 350.534L258.309 353.008C257.188 354.583 254.714 353.8 254.696 351.878L254.669 348.843C254.669 347.98 254.1 347.223 253.272 346.965L250.371 346.058C248.529 345.479 248.502 342.89 250.335 342.275L253.21 341.305C254.028 341.03 254.571 340.264 254.562 339.401L254.536 336.366C254.518 334.435 256.974 333.617 258.122 335.165L258.149 335.138Z" fill="#FFE76E"/>
<path d="M278.715 323.587L279.115 324.824C279.231 325.171 279.56 325.412 279.925 325.412H281.224C282.052 325.412 282.39 326.471 281.723 326.951L280.673 327.717C280.37 327.93 280.245 328.322 280.361 328.669L280.762 329.906C281.02 330.689 280.121 331.347 279.453 330.858L278.403 330.093C278.101 329.879 277.7 329.879 277.398 330.093L276.348 330.858C275.68 331.347 274.781 330.689 275.039 329.906L275.44 328.669C275.556 328.322 275.431 327.93 275.128 327.717L274.078 326.951C273.411 326.462 273.758 325.412 274.577 325.412H275.876C276.241 325.412 276.57 325.171 276.686 324.824L277.086 323.587C277.344 322.804 278.448 322.804 278.706 323.587H278.715Z" fill="#FFE76E"/>
<path d="M132.939 446.469L131.015 448.816C130.467 449.486 130.41 450.427 130.878 451.154L132.52 453.705C133.56 455.324 131.918 457.334 130.117 456.631L127.288 455.525C126.485 455.213 125.572 455.452 125.025 456.122L123.101 458.469C121.879 459.96 119.458 459.018 119.57 457.09L119.742 454.056C119.793 453.199 119.28 452.401 118.477 452.089L115.648 450.984C113.847 450.28 114.003 447.69 115.863 447.204L118.799 446.438C119.636 446.227 120.231 445.49 120.279 444.625L120.452 441.59C120.563 439.662 123.068 439.005 124.111 440.633L125.753 443.184C126.22 443.91 127.095 444.25 127.93 444.031L130.866 443.265C132.735 442.777 134.128 444.959 132.906 446.45L132.939 446.469Z" fill="#FFE76E"/>
<path d="M149.157 463.597L148.055 464.287C147.747 464.484 147.594 464.861 147.683 465.215L148 466.475C148.202 467.278 147.257 467.864 146.628 467.334L145.63 466.503C145.349 466.261 144.939 466.236 144.631 466.433L143.529 467.123C142.832 467.564 141.974 466.853 142.286 466.086L142.772 464.881C142.905 464.536 142.808 464.147 142.527 463.906L141.529 463.074C140.891 462.547 141.31 461.514 142.133 461.573L143.43 461.66C143.795 461.688 144.144 461.471 144.278 461.126L144.764 459.921C145.076 459.154 146.179 459.234 146.378 460.028L146.695 461.288C146.784 461.642 147.098 461.903 147.462 461.931L148.76 462.017C149.582 462.076 149.851 463.147 149.155 463.588L149.157 463.597Z" fill="#FFE76E"/>
<path d="M547.338 210.834L547.738 212.071C547.854 212.418 548.183 212.659 548.548 212.659H549.847C550.675 212.659 551.013 213.718 550.346 214.198L549.296 214.964C548.993 215.177 548.869 215.569 548.984 215.916L549.385 217.153C549.643 217.936 548.744 218.595 548.077 218.105L547.026 217.34C546.724 217.126 546.323 217.126 546.021 217.34L544.971 218.105C544.303 218.595 543.404 217.936 543.662 217.153L544.063 215.916C544.179 215.569 544.054 215.177 543.751 214.964L542.701 214.198C542.034 213.709 542.381 212.659 543.2 212.659H544.499C544.864 212.659 545.193 212.418 545.309 212.071L545.709 210.834C545.967 210.051 547.071 210.051 547.329 210.834H547.338Z" fill="#FFE76E"/>
<path d="M376.988 0.587348L377.389 1.82434C377.504 2.17141 377.834 2.41168 378.199 2.41168H379.498C380.325 2.41168 380.664 3.47069 379.996 3.95125L378.946 4.71658C378.644 4.93016 378.519 5.32173 378.635 5.66879L379.035 6.90578C379.293 7.68891 378.394 8.34746 377.727 7.858L376.677 7.09267C376.374 6.87909 375.974 6.87909 375.671 7.09267L374.621 7.858C373.954 8.34746 373.055 7.68891 373.313 6.90578L373.713 5.66879C373.829 5.32173 373.704 4.93016 373.402 4.71658L372.352 3.95125C371.684 3.46179 372.031 2.41168 372.85 2.41168H374.149C374.514 2.41168 374.844 2.17141 374.959 1.82434L375.36 0.587348C375.618 -0.195783 376.721 -0.195783 376.979 0.587348H376.988Z" fill="#FFE76E"/>
<path d="M41.9883 369.587L42.3887 370.824C42.5044 371.171 42.8337 371.412 43.1985 371.412H44.4978C45.3255 371.412 45.6636 372.471 44.9962 372.951L43.9461 373.717C43.6435 373.93 43.5189 374.322 43.6346 374.669L44.0351 375.906C44.2931 376.689 43.3943 377.347 42.7269 376.858L41.6768 376.093C41.3742 375.879 40.9737 375.879 40.6712 376.093L39.6211 376.858C38.9536 377.347 38.0548 376.689 38.3129 375.906L38.7133 374.669C38.829 374.322 38.7045 373.93 38.4019 373.717L37.3518 372.951C36.6843 372.462 37.0314 371.412 37.8501 371.412H39.1494C39.5143 371.412 39.8435 371.171 39.9592 370.824L40.3597 369.587C40.6178 368.804 41.7213 368.804 41.9794 369.587H41.9883Z" fill="#FFE76E"/>
<path d="M728.988 135.587L729.389 136.824C729.504 137.171 729.834 137.412 730.199 137.412H731.498C732.325 137.412 732.664 138.471 731.996 138.951L730.946 139.717C730.644 139.93 730.519 140.322 730.635 140.669L731.035 141.906C731.293 142.689 730.394 143.347 729.727 142.858L728.677 142.093C728.374 141.879 727.974 141.879 727.671 142.093L726.621 142.858C725.954 143.347 725.055 142.689 725.313 141.906L725.713 140.669C725.829 140.322 725.704 139.93 725.402 139.717L724.352 138.951C723.684 138.462 724.031 137.412 724.85 137.412H726.149C726.514 137.412 726.844 137.171 726.959 136.824L727.36 135.587C727.618 134.804 728.721 134.804 728.979 135.587H728.988Z" fill="#FFE76E"/>
<path d="M4.98826 722.587L5.38872 723.824C5.50441 724.171 5.83368 724.412 6.19855 724.412H7.49783C8.32546 724.412 8.66363 725.471 7.99618 725.951L6.94608 726.717C6.64351 726.93 6.51892 727.322 6.63461 727.669L7.03507 728.906C7.29315 729.689 6.39433 730.347 5.72689 729.858L4.67679 729.093C4.37421 728.879 3.97374 728.879 3.67117 729.093L2.62106 729.858C1.95362 730.347 1.05481 729.689 1.31289 728.906L1.71335 727.669C1.82904 727.322 1.70445 726.93 1.40188 726.717L0.351772 725.951C-0.315669 725.462 0.0313982 724.412 0.850125 724.412H2.14941C2.51428 724.412 2.84355 724.171 2.95924 723.824L3.3597 722.587C3.61778 721.804 4.72128 721.804 4.97936 722.587H4.98826Z" fill="#FFE76E"/>
<path d="M551.235 235.423L550.167 238.271C549.864 239.081 550.113 239.988 550.79 240.522L553.166 242.418C554.67 243.619 553.762 246.049 551.84 245.96L548.805 245.826C547.942 245.791 547.159 246.307 546.856 247.117L545.788 249.965C545.112 251.771 542.522 251.655 542.006 249.795L541.196 246.868C540.965 246.04 540.226 245.453 539.363 245.408L536.328 245.275C534.406 245.186 533.712 242.685 535.323 241.626L537.859 239.953C538.58 239.481 538.909 238.591 538.678 237.764L537.868 234.836C537.352 232.976 539.514 231.543 541.027 232.745L543.403 234.64C544.08 235.174 545.023 235.219 545.744 234.747L548.28 233.074C549.891 232.015 551.92 233.626 551.243 235.432L551.235 235.423Z" fill="#FFE76E"/>
<path d="M548.032 546.673L548.428 547.642C548.541 547.914 548.819 548.087 549.112 548.065L550.153 547.987C550.816 547.937 551.151 548.767 550.645 549.193L549.849 549.87C549.62 550.06 549.543 550.382 549.657 550.653L550.052 551.622C550.306 552.236 549.625 552.818 549.061 552.465L548.174 551.914C547.918 551.761 547.598 551.785 547.368 551.974L546.572 552.652C546.067 553.084 545.307 552.61 545.467 551.966L545.714 550.949C545.785 550.663 545.662 550.356 545.407 550.203L544.519 549.652C543.955 549.299 544.17 548.435 544.826 548.386L545.867 548.308C546.16 548.286 546.409 548.073 546.481 547.788L546.727 546.771C546.887 546.127 547.771 546.061 548.025 546.674L548.032 546.673Z" fill="#FFE76E"/>
<path d="M268.174 669.784L269.981 672.222C270.497 672.916 271.396 673.201 272.214 672.925L275.089 671.955C276.913 671.341 278.462 673.424 277.34 674.999L275.578 677.473C275.08 678.176 275.089 679.119 275.605 679.813L277.411 682.252C278.559 683.8 277.055 685.918 275.213 685.34L272.312 684.432C271.493 684.174 270.595 684.476 270.096 685.179L268.334 687.653C267.213 689.229 264.739 688.445 264.721 686.523L264.694 683.489C264.694 682.625 264.125 681.869 263.297 681.611L260.396 680.703C258.554 680.125 258.527 677.535 260.361 676.921L263.235 675.951C264.054 675.675 264.597 674.91 264.588 674.047L264.561 671.012C264.543 669.081 266.999 668.262 268.147 669.811L268.174 669.784Z" fill="#FFE76E"/>
<path d="M571.174 554.784L572.981 557.222C573.497 557.916 574.396 558.201 575.214 557.925L578.089 556.955C579.913 556.341 581.462 558.424 580.34 559.999L578.578 562.473C578.08 563.176 578.089 564.119 578.605 564.813L580.411 567.252C581.559 568.8 580.055 570.918 578.213 570.34L575.312 569.432C574.493 569.174 573.595 569.476 573.096 570.179L571.334 572.653C570.213 574.229 567.739 573.445 567.721 571.523L567.694 568.489C567.694 567.625 567.125 566.869 566.297 566.611L563.396 565.703C561.554 565.125 561.527 562.535 563.361 561.921L566.235 560.951C567.054 560.675 567.597 559.91 567.588 559.047L567.561 556.012C567.543 554.081 569.999 553.262 571.147 554.811L571.174 554.784Z" fill="#FFE76E"/>
<path d="M297.032 541.673L297.428 542.642C297.541 542.914 297.819 543.087 298.112 543.065L299.153 542.987C299.816 542.937 300.151 543.767 299.645 544.193L298.849 544.87C298.62 545.06 298.543 545.382 298.657 545.653L299.052 546.622C299.306 547.236 298.625 547.818 298.061 547.465L297.174 546.914C296.918 546.761 296.598 546.785 296.368 546.974L295.572 547.652C295.067 548.084 294.307 547.61 294.467 546.966L294.714 545.949C294.785 545.663 294.662 545.356 294.407 545.203L293.519 544.652C292.955 544.299 293.17 543.435 293.826 543.386L294.867 543.308C295.16 543.286 295.409 543.073 295.481 542.788L295.727 541.771C295.887 541.127 296.771 541.061 297.025 541.674L297.032 541.673Z" fill="#FFE76E"/>
<path d="M518.276 414.932L517.418 417.224C517.175 417.876 517.375 418.607 517.919 419.037L519.828 420.562C521.036 421.529 520.307 423.485 518.762 423.413L516.324 423.306C515.63 423.277 515.001 423.693 514.758 424.345L513.9 426.637C513.356 428.091 511.275 427.998 510.861 426.501L510.21 424.144C510.024 423.478 509.43 423.005 508.737 422.969L506.298 422.862C504.754 422.79 504.196 420.777 505.49 419.925L507.528 418.578C508.108 418.198 508.372 417.482 508.186 416.816L507.535 414.459C507.121 412.962 508.858 411.808 510.074 412.776L511.983 414.301C512.527 414.731 513.285 414.767 513.864 414.387L515.902 413.041C517.196 412.181 518.827 413.485 518.283 414.939L518.276 414.932Z" fill="#FFE76E"/>
<path d="M576.881 374.667L576.206 376.47C576.015 376.983 576.172 377.557 576.6 377.895L578.101 379.095C579.057 379.856 578.478 381.394 577.263 381.338L575.345 381.253C574.8 381.231 574.305 381.558 574.114 382.07L573.439 383.873C573.011 385.017 571.375 384.944 571.048 383.766L570.537 381.912C570.39 381.388 569.924 381.017 569.378 380.988L567.46 380.904C566.245 380.848 565.807 379.264 566.825 378.594L568.428 377.535C568.883 377.236 569.091 376.673 568.945 376.149L568.433 374.295C568.107 373.118 569.474 372.211 570.43 372.971L571.931 374.171C572.359 374.509 572.955 374.537 573.411 374.239L575.014 373.18C576.032 372.509 577.314 373.529 576.886 374.673L576.881 374.667Z" fill="#FFE76E"/>
<path d="M567.618 410.211L567.939 411.207C568.032 411.486 568.297 411.68 568.59 411.68H569.634C570.299 411.68 570.571 412.532 570.035 412.919L569.191 413.535C568.948 413.707 568.848 414.022 568.941 414.301L569.262 415.297C569.47 415.928 568.748 416.458 568.211 416.064L567.367 415.448C567.124 415.276 566.802 415.276 566.559 415.448L565.716 416.064C565.179 416.458 564.457 415.928 564.664 415.297L564.986 414.301C565.079 414.022 564.979 413.707 564.736 413.535L563.892 412.919C563.356 412.525 563.635 411.68 564.292 411.68H565.337C565.63 411.68 565.894 411.486 565.987 411.207L566.309 410.211C566.516 409.581 567.403 409.581 567.611 410.211H567.618Z" fill="#FFE76E"/>
<path d="M168.623 124.976L167.948 126.778C167.757 127.291 167.914 127.866 168.342 128.204L169.843 129.404C170.8 130.165 170.22 131.703 169.005 131.646L167.088 131.562C166.542 131.539 166.047 131.866 165.856 132.379L165.181 134.182C164.753 135.325 163.117 135.252 162.791 134.075L162.279 132.221C162.133 131.697 161.666 131.325 161.12 131.297L159.202 131.213C157.988 131.156 157.549 129.573 158.567 128.903L160.17 127.843C160.625 127.545 160.833 126.981 160.687 126.457L160.175 124.604C159.849 123.426 161.216 122.519 162.172 123.28L163.674 124.48C164.101 124.818 164.697 124.846 165.153 124.547L166.756 123.488C167.774 122.818 169.056 123.837 168.629 124.981L168.623 124.976Z" fill="#FFE76E"/>
<path d="M346.623 32.9756L345.948 34.7785C345.757 35.2912 345.914 35.8659 346.342 36.2039L347.843 37.404C348.8 38.1646 348.22 39.7027 347.005 39.6464L345.088 39.5619C344.542 39.5393 344.047 39.8661 343.856 40.3788L343.181 42.1817C342.753 43.3255 341.117 43.2522 340.791 42.0747L340.279 40.2211C340.133 39.6971 339.666 39.3252 339.12 39.2971L337.202 39.2126C335.988 39.1562 335.549 37.573 336.567 36.9026L338.17 35.8433C338.625 35.5447 338.833 34.9813 338.687 34.4574L338.175 32.6037C337.849 31.4262 339.216 30.5191 340.172 31.2797L341.674 32.4798C342.101 32.8178 342.697 32.846 343.153 32.5474L344.756 31.4882C345.774 30.8177 347.056 31.8375 346.629 32.9812L346.623 32.9756Z" fill="#FFE76E"/>
<path d="M532.623 839.976L531.948 841.778C531.757 842.291 531.914 842.866 532.342 843.204L533.843 844.404C534.8 845.165 534.22 846.703 533.005 846.646L531.088 846.562C530.542 846.539 530.047 846.866 529.856 847.379L529.181 849.182C528.753 850.325 527.117 850.252 526.791 849.075L526.279 847.221C526.133 846.697 525.666 846.325 525.12 846.297L523.202 846.213C521.988 846.156 521.549 844.573 522.567 843.903L524.17 842.843C524.625 842.545 524.833 841.981 524.687 841.457L524.175 839.604C523.849 838.426 525.216 837.519 526.172 838.28L527.674 839.48C528.101 839.818 528.697 839.846 529.153 839.547L530.756 838.488C531.774 837.818 533.056 838.837 532.629 839.981L532.623 839.976Z" fill="#FFE76E"/>
<path d="M557.912 763.587L558.313 764.824C558.428 765.171 558.758 765.412 559.122 765.412H560.422C561.249 765.412 561.587 766.471 560.92 766.951L559.87 767.717C559.567 767.93 559.443 768.322 559.558 768.669L559.959 769.906C560.217 770.689 559.318 771.347 558.651 770.858L557.601 770.093C557.298 769.879 556.898 769.879 556.595 770.093L555.545 770.858C554.877 771.347 553.979 770.689 554.237 769.906L554.637 768.669C554.753 768.322 554.628 767.93 554.326 767.717L553.276 766.951C552.608 766.462 552.955 765.412 553.774 765.412H555.073C555.438 765.412 555.767 765.171 555.883 764.824L556.284 763.587C556.542 762.804 557.645 762.804 557.903 763.587H557.912Z" fill="#FFE76E"/>
<path d="M733.008 492.473L733.33 493.469C733.423 493.748 733.688 493.941 733.981 493.941H735.025C735.69 493.941 735.962 494.794 735.425 495.181L734.582 495.797C734.338 495.969 734.238 496.284 734.331 496.563L734.653 497.559C734.86 498.189 734.138 498.719 733.602 498.325L732.758 497.709C732.515 497.537 732.193 497.537 731.95 497.709L731.106 498.325C730.57 498.719 729.848 498.189 730.055 497.559L730.377 496.563C730.47 496.284 730.37 495.969 730.126 495.797L729.283 495.181C728.746 494.787 729.025 493.941 729.683 493.941H730.727C731.02 493.941 731.285 493.748 731.378 493.469L731.7 492.473C731.907 491.842 732.794 491.842 733.001 492.473H733.008Z" fill="#FFE76E"/>
<path d="M713.507 471.512L712.649 473.804C712.405 474.456 712.606 475.187 713.149 475.617L715.058 477.142C716.267 478.11 715.538 480.065 713.993 479.994L711.554 479.886C710.861 479.857 710.232 480.273 709.988 480.925L709.13 483.217C708.587 484.671 706.506 484.578 706.091 483.081L705.44 480.724C705.254 480.058 704.661 479.585 703.967 479.549L701.529 479.442C699.984 479.37 699.426 477.357 700.721 476.505L702.759 475.158C703.338 474.778 703.603 474.062 703.417 473.396L702.766 471.039C702.351 469.542 704.089 468.389 705.305 469.356L707.214 470.881C707.757 471.311 708.515 471.347 709.095 470.967L711.133 469.621C712.427 468.761 714.057 470.065 713.514 471.519L713.507 471.512Z" fill="#FFE76E"/>
<path d="M825.507 494.512L824.649 496.804C824.405 497.456 824.606 498.187 825.149 498.617L827.058 500.142C828.267 501.11 827.538 503.065 825.993 502.994L823.554 502.886C822.861 502.857 822.232 503.273 821.988 503.925L821.13 506.217C820.587 507.671 818.506 507.578 818.091 506.081L817.44 503.724C817.254 503.058 816.661 502.585 815.967 502.549L813.529 502.442C811.984 502.37 811.426 500.357 812.721 499.505L814.759 498.158C815.338 497.778 815.603 497.062 815.417 496.396L814.766 494.039C814.351 492.542 816.089 491.389 817.305 492.356L819.214 493.881C819.757 494.311 820.515 494.347 821.095 493.967L823.133 492.621C824.427 491.761 826.057 493.065 825.514 494.519L825.507 494.512Z" fill="#FFE76E"/>
</svg>
