<svg width="100%" height="100%" viewBox="0 0 140 140" fill="none" xmlns="http://www.w3.org/2000/svg">
<path d="M80.5217 11.0025C84.0022 15.9072 90.4841 17.9367 96.3012 15.926C105.296 12.8253 114.72 19.4025 114.427 28.5823C114.241 34.5111 118.25 39.8198 124.174 41.4829C133.345 44.0573 136.943 54.6935 131.096 61.9565C127.313 66.6545 127.313 73.2035 131.096 77.9014C136.943 85.1644 133.345 95.81 124.174 98.3751C118.25 100.038 114.232 105.337 114.427 111.276C114.72 120.455 105.296 127.033 96.3012 123.932C90.4841 121.931 84.0022 123.951 80.5217 128.855C75.1445 136.447 63.5006 136.447 58.1136 128.855C54.6331 123.951 48.1512 121.921 42.3341 123.932C33.3396 127.033 23.9149 120.455 24.2082 111.276C24.394 105.347 20.3856 100.038 14.4609 98.3751C5.29042 95.8006 1.69261 85.1644 7.53905 77.9014C11.3226 73.2035 11.3226 66.6545 7.53905 61.9565C1.69261 54.6935 5.29042 44.0479 14.4609 41.4829C20.3856 39.8198 24.4038 34.5205 24.2082 28.5823C23.9149 19.4025 33.3396 12.8253 42.3341 15.926C48.1512 17.9273 54.6331 15.9072 58.1136 11.0025C63.4908 3.41062 75.1348 3.41062 80.5217 11.0025Z" fill="#FFF6D2"/>
<path d="M136.477 78.4941C139.136 81.2471 140.414 85.4565 139.634 89.3088C139.249 91.235 138.413 93.0202 137.37 94.6363C136.346 96.2618 134.993 97.6806 133.442 98.8457C133.057 99.1463 132.672 99.4376 132.23 99.6631C131.798 99.898 131.394 100.18 130.934 100.349L129.571 100.894C129.13 101.073 128.697 101.204 128.275 101.373C126.583 102.097 125.052 103.14 123.746 104.417C122.459 105.705 121.359 107.217 120.617 108.918C119.847 110.609 119.489 112.451 119.264 114.349C118.71 110.534 120.222 106.466 122.975 103.647C124.366 102.238 126.085 101.176 127.918 100.471L130.624 99.588C131.065 99.447 131.469 99.2121 131.892 99.0336C132.324 98.8645 132.719 98.6202 133.114 98.3665C134.692 97.3987 136.12 96.0739 137.069 94.4484C138.028 92.8229 138.554 90.9907 138.779 89.1679C139.024 87.3451 138.995 85.4753 138.563 83.6807C138.178 81.8579 137.36 80.1854 136.458 78.4941H136.477Z" fill="#FFF6D2"/>
<path d="M100.557 11.9248C100.876 11.6993 101.261 11.643 101.618 11.4926C101.985 11.3611 102.342 11.2389 102.727 11.1826L103.864 10.9477C104.24 10.8725 104.634 10.8819 105.02 10.8537C105.79 10.7691 106.57 10.8725 107.34 10.9101C107.726 10.9477 108.102 11.0416 108.487 11.1074C108.872 11.1732 109.257 11.2577 109.624 11.3893C111.136 11.8027 112.508 12.5825 113.814 13.447C114.416 13.945 115.064 14.396 115.571 14.9973C115.834 15.2886 116.126 15.5517 116.361 15.8617L117.065 16.8013C118.85 19.3946 119.536 22.5798 119.442 25.6241C119.301 28.6308 120.335 31.6468 122.158 33.9958C123.981 36.3542 126.546 38.0737 129.374 38.8723C132.371 39.7273 135.181 41.522 137.041 44.0776C137.99 45.3461 138.666 46.7837 139.174 48.2682C139.578 49.781 139.879 51.3407 139.794 52.9004C139.813 53.295 139.766 53.6803 139.709 54.0655C139.653 54.4507 139.625 54.8454 139.54 55.2212C139.334 55.9729 139.193 56.7339 138.873 57.448C138.723 57.8051 138.61 58.1715 138.422 58.5192L137.849 59.5245C137.68 59.8722 137.445 60.1728 137.21 60.4735C136.966 60.7648 136.787 61.1124 136.487 61.3567C138.084 58.7822 139.127 55.8695 139.005 52.9004C139.024 51.4158 138.676 49.9689 138.244 48.5783C137.708 47.2159 137.079 45.8817 136.177 44.7354C134.429 42.3864 131.92 40.6763 129.101 39.7931C126.095 38.8817 123.445 36.8898 121.716 34.3247C119.959 31.769 119.067 28.6871 119.104 25.6147C119.048 24.863 119.085 24.1113 118.954 23.3691C118.813 22.6362 118.691 21.8939 118.418 21.1986C117.986 19.7704 117.234 18.4738 116.379 17.2805C115.534 16.0684 114.425 15.0819 113.288 14.1611C112.085 13.3248 110.808 12.5544 109.389 12.1315C106.589 11.1074 103.516 11.2201 100.566 11.9154L100.557 11.9248Z" fill="#FFF6D2"/>
<path d="M41.0879 11.9242C42.9671 12.2812 44.8275 12.5161 46.6785 12.3188C48.5201 12.1403 50.3053 11.6047 51.9778 10.8343C53.6502 10.0638 55.2287 8.98328 56.4596 7.5645C57.0422 6.84101 57.5965 6.06115 58.1885 5.29069C58.4703 4.90545 58.8462 4.58599 59.1562 4.21955C59.4663 3.84372 59.8421 3.53365 60.218 3.23298C63.1401 0.63971 67.3213 -0.450215 71.2112 0.169915C75.1199 0.761857 78.6809 3.25177 80.5037 6.62491C79.1883 5.22492 77.8353 3.94707 76.2192 3.02627C74.6407 2.06789 72.8555 1.49474 71.0515 1.24105C69.2474 0.977963 67.387 1.01555 65.5924 1.41957C63.7978 1.8142 62.0972 2.61285 60.5656 3.67459C60.1804 3.93768 59.7952 4.21016 59.4663 4.53901C59.128 4.85847 58.7522 5.14975 58.4703 5.52558C57.8784 6.24907 57.2958 7.00074 56.7227 7.7806C55.52 9.27455 54.0824 10.637 52.363 11.5953C48.9147 13.4557 44.5456 13.653 41.0973 11.9242H41.0879Z" fill="#FFF6D2"/>
<path d="M20.5021 25.5199C20.2015 25.0313 20.1921 24.5146 20.1451 23.9978C20.1263 23.481 20.1639 22.9642 20.3142 22.4757C20.4646 21.9777 20.7464 21.5267 20.9156 21.0569C21.0941 20.5871 21.2068 20.0985 21.3196 19.5911C21.5263 18.5764 21.9773 17.6274 22.5692 16.7817C23.1988 15.9643 23.9786 15.2502 24.937 14.8086L25.0028 14.8838C24.4954 15.7952 23.9692 16.5938 23.4524 17.4019C22.8981 18.1817 22.3907 18.9898 21.827 19.8072C21.5545 20.2206 21.329 20.6716 21.2256 21.1508C21.1129 21.63 21.1598 22.1468 21.1411 22.626C21.1129 23.1146 21.0283 23.5844 20.925 24.0542C20.8874 24.2891 20.831 24.5334 20.7652 24.7777C20.6901 25.022 20.6994 25.2662 20.4927 25.5199H20.5021Z" fill="#FFF6D2"/>
<path d="M3.28931 61.3654C2.98864 61.1869 2.82891 60.8956 2.59401 60.6513C2.3873 60.3977 2.14301 60.1534 1.97388 59.8715C1.64502 59.2983 1.2504 58.744 0.996706 58.1238C0.761808 57.5037 0.451743 56.893 0.329597 56.2259C0.16047 55.5776 0.0289274 54.9104 0.0195315 54.2433C-0.0744276 52.8997 0.188658 51.5749 0.423556 50.2877C0.545703 49.6393 0.752413 49.0098 0.893351 48.3709C1.13764 47.7602 1.26919 47.1024 1.55107 46.5011C2.54703 44.0394 4.37923 41.8689 6.68123 40.4501C7.26378 40.1119 7.88391 39.8394 8.49464 39.5481L10.4114 38.9562C11.6423 38.6743 12.8543 38.2327 14.0382 37.6689L14.0946 37.7535C13.0892 38.5991 11.9054 39.2569 10.6463 39.7173L8.88927 40.4501C8.35371 40.779 7.77116 41.0327 7.25438 41.3803C5.13091 42.7052 3.36448 44.5561 2.05844 46.7548C1.72019 47.2998 1.48529 47.9011 1.22221 48.4836C1.04369 49.0944 0.846372 49.7145 0.752413 50.3534C0.696037 50.9923 0.592682 51.6313 0.667849 52.2702L0.714829 53.2286C0.733621 53.548 0.818184 53.8581 0.855768 54.1682C1.0061 55.4178 1.32556 56.6393 1.72019 57.842C1.90811 58.4527 2.20878 59.0071 2.43428 59.6084C2.69737 60.2003 3.0826 60.7077 3.27991 61.3654H3.28931Z" fill="#FFF6D2"/>
<path d="M3.28889 78.494C3.18553 78.2967 3.24191 78.2309 3.24191 78.1088C3.24191 78.0054 3.2701 77.9021 3.29828 77.8175C3.35466 77.639 3.42983 77.4699 3.58016 77.3571C3.7305 77.2444 3.96539 77.1786 4.08754 77.0377C4.21908 76.8967 4.24727 76.7088 4.25667 76.5021C4.25667 76.0887 4.36002 75.7504 4.50096 75.4216C4.68888 75.1115 4.93317 74.8296 5.36538 74.5947L5.45934 74.6323C5.64726 75.0927 5.60968 75.4967 5.49693 75.8726C5.3372 76.2202 5.11169 76.5491 4.75465 76.784C4.58552 76.9061 4.43519 77.0377 4.37881 77.2162C4.31304 77.3947 4.35063 77.639 4.29425 77.8363C4.23788 78.0242 4.10633 78.1652 3.9466 78.2873C3.76808 78.3907 3.64593 78.541 3.29828 78.5034L3.28889 78.494Z" fill="#FFF6D2"/>
<path d="M39.2095 127.945C34.4364 130.209 28.1881 128.95 24.4391 125.098C22.5694 123.162 21.3291 120.71 20.7372 118.154C20.5774 117.515 20.5304 116.858 20.4083 116.209L20.3237 114.236C20.3519 112.949 20.117 111.671 19.7694 110.45C19.0459 107.997 17.6177 105.808 15.7761 104.098C14.8553 103.243 13.8124 102.519 12.6849 101.974C11.548 101.401 10.411 101.072 9.09562 100.612C6.57752 99.6255 4.37887 97.8685 2.83794 95.6886C1.29701 93.4994 0.423193 90.8685 0.357422 88.2471H0.460777C0.855405 90.8028 1.89835 93.2269 3.47686 95.2094C5.03659 97.2014 7.15067 98.7141 9.49025 99.5973C10.6272 100.001 12.0084 100.377 13.1828 101.026C14.3855 101.646 15.4848 102.454 16.4432 103.393C18.3788 105.263 19.76 107.697 20.3237 110.299C20.6244 111.596 20.7278 112.921 20.6996 114.236L20.7372 116.172C20.8405 116.801 20.9251 117.45 21.0754 118.07C21.7331 120.569 23.1989 122.777 25.0499 124.487C26.8821 126.216 29.1653 127.475 31.627 128.058C34.0887 128.687 36.6914 128.546 39.2283 127.945H39.2095Z" fill="#FFF6D2"/>
<path d="M107.827 127.748C105.732 128.828 103.299 129.279 100.912 129.073C99.7187 128.96 98.5254 128.687 97.4167 128.302C96.3456 127.945 95.2369 127.72 94.1093 127.588C91.8731 127.334 89.5147 127.569 87.3913 128.481C85.2678 129.383 83.4168 130.914 82.1202 132.793C81.4812 133.714 80.8329 134.785 79.9779 135.621C79.1511 136.486 78.2021 137.256 77.1685 137.867C75.1014 139.107 72.7055 139.821 70.2813 139.878C67.8572 139.934 65.4424 139.323 63.3283 138.177C61.2424 137.003 59.4196 135.321 58.3203 133.235C59.8518 135.001 61.6089 136.523 63.6854 137.472C65.7337 138.44 68.0075 138.872 70.2437 138.797C72.48 138.722 74.7162 138.149 76.6799 137.05C77.6571 136.495 78.5779 135.828 79.4047 135.058C79.8088 134.663 80.2034 134.25 80.5792 133.827L81.6692 132.464C83.1725 130.623 85.1081 129.176 87.2503 128.189C89.3832 127.193 91.7698 126.639 94.1751 126.752C95.3684 126.836 96.5711 127.052 97.6986 127.466C98.7791 127.87 99.8596 128.152 100.997 128.302C103.242 128.612 105.572 128.377 107.79 127.654L107.827 127.748Z" fill="#FFF6D2"/>
<path d="M123.052 78.6069C127.842 49.098 107.803 21.2933 78.2941 16.5034C48.7852 11.7134 20.9805 31.752 16.1906 61.2609C11.4006 90.7698 31.4392 118.574 60.9481 123.364C90.4569 128.154 118.262 108.116 123.052 78.6069Z" fill="#FFE266"/>
<g style="mix-blend-mode:soft-light" opacity="0.82">
<path d="M99.1926 45.3919C95.8946 50.2684 87.5511 50.3811 80.5511 45.6456C73.5512 40.9101 70.5445 33.1209 73.8424 28.2444C77.1404 23.3679 85.484 23.2552 92.4839 27.9907C99.4839 32.7262 102.491 40.5154 99.1926 45.3919Z" fill="#FFF7EE"/>
</g>
<g style="mix-blend-mode:soft-light" opacity="0.82">
<path d="M107.894 52.2888C105.836 52.5801 103.825 50.419 103.402 47.4687C102.98 44.509 104.314 41.8781 106.362 41.5869C108.42 41.2956 110.431 43.4566 110.844 46.407C111.267 49.3667 109.942 51.9975 107.884 52.2888H107.894Z" fill="#FFF7EE"/>
</g>
<path d="M99.2304 45.42C98.2532 46.8482 96.8063 47.9099 95.1996 48.5583C93.5929 49.216 91.8264 49.4603 90.0788 49.4039C86.5647 49.3193 83.1728 47.9569 80.3071 45.9932C77.4695 43.9637 75.1205 41.2576 73.6266 38.1382C72.9125 36.5691 72.3957 34.8778 72.3299 33.1302C72.2735 31.4013 72.6306 29.5973 73.5984 28.094C74.5661 26.6 76.0601 25.4631 77.7232 24.8336C79.3863 24.1853 81.1903 23.9785 82.9473 24.0819C86.4802 24.2886 89.8721 25.604 92.766 27.5678C95.6412 29.5503 98.1311 32.2188 99.5311 35.4416C100.226 37.0483 100.659 38.7771 100.649 40.5154C100.649 42.2442 100.198 43.9918 99.2304 45.42ZM99.1458 45.3636C100.085 43.9355 100.48 42.1972 100.367 40.5247C100.255 38.8335 99.719 37.208 98.9297 35.7328C97.3418 32.7731 94.9271 30.3302 92.1835 28.4416C89.3929 26.6282 86.2077 25.3128 82.8909 25.0497C81.2372 24.9275 79.5554 25.0685 78.005 25.604C76.4641 26.1396 75.0359 27.0792 74.0682 28.4228C73.1286 29.7758 72.6494 31.4577 72.6964 33.1396C72.7246 34.8214 73.1943 36.4939 73.9554 38.0066C75.4494 41.0697 77.9957 43.4751 80.7862 45.3167C83.605 47.1301 86.7902 48.4079 90.1258 48.7838C91.7889 48.9529 93.5083 48.8495 95.115 48.3234C96.7217 47.8066 98.1875 46.7824 99.1552 45.3824L99.1458 45.3636Z" fill="white"/>
<path d="M107.903 52.345C106.672 52.5047 105.403 51.9222 104.52 50.992C103.609 50.0712 103.111 48.8027 102.989 47.5343C102.895 46.2565 103.139 44.988 103.637 43.8417C104.125 42.7236 104.98 41.6149 106.333 41.3142C107.687 41.0229 109.068 41.7934 109.866 42.7988C110.712 43.8135 111.21 45.0632 111.398 46.341C111.548 47.6189 111.417 48.9719 110.787 50.1088C110.195 51.2457 109.133 52.1665 107.903 52.345ZM107.884 52.2417C109.105 52.0537 109.885 50.9262 110.158 49.8551C110.44 48.7464 110.486 47.6095 110.317 46.4914C110.139 45.3826 109.772 44.2927 109.115 43.3907C108.466 42.5169 107.508 41.8216 106.409 41.8686C105.3 41.9249 104.332 42.8739 103.947 43.9733C103.534 45.082 103.609 46.3034 103.825 47.4216C104.06 48.5397 104.426 49.6202 105.018 50.5974C105.319 51.086 105.713 51.5182 106.202 51.847C106.691 52.1759 107.292 52.3262 107.884 52.251V52.2417Z" fill="white"/>
<g style="mix-blend-mode:multiply">
<path d="M81.002 92.0527C52.1753 92.0527 28.7983 68.685 28.7983 39.849C28.7983 38.0732 28.8923 36.3255 29.0614 34.5967C20.342 43.9268 14.9863 56.4516 14.9863 70.2354C14.9863 99.062 38.354 122.439 67.19 122.439C94.2502 122.439 116.49 101.853 119.131 75.4971C109.603 85.6823 96.0543 92.0621 81.002 92.0621V92.0527Z" fill="#FFEFBB"/>
</g>
</svg>
