<svg width="71" height="71" viewBox="0 0 71 71" fill="none" xmlns="http://www.w3.org/2000/svg">
<path d="M61.612 44.6188C66.6749 30.2947 59.1049 14.6003 44.7041 9.56445C30.3033 4.52857 14.5249 12.0582 9.46203 26.3823C4.39918 40.7064 11.9691 56.4008 26.3699 61.4366C40.7707 66.4725 56.5492 58.9429 61.612 44.6188Z" fill="url(#paint0_radial_168_596)"/>
<mask id="mask0_168_596" style="mask-type:luminance" maskUnits="userSpaceOnUse" x="7" y="8" width="57" height="56">
<path d="M61.612 44.6188C66.6749 30.2947 59.1049 14.6003 44.7041 9.56445C30.3033 4.52857 14.5249 12.0582 9.46203 26.3823C4.39918 40.7064 11.9691 56.4008 26.3699 61.4366C40.7707 66.4725 56.5492 58.9429 61.612 44.6188Z" fill="white"/>
</mask>
<g mask="url(#mask0_168_596)">
<g style="mix-blend-mode:screen" opacity="0.35">
<path d="M3.11541 22.0559C7.6337 23.7219 12.3857 24.8299 17.1299 25.6358C21.9053 26.4417 26.7274 26.9686 31.5651 27.17C41.1781 27.5575 50.8301 26.7439 60.2328 24.7137C62.8893 24.1403 65.5302 23.4739 68.1399 22.7068C69.433 22.3271 70.7262 21.9397 71.9882 21.498C73.2502 21.0563 74.6135 20.6457 75.7664 19.8863C76.1326 19.6461 76.0469 18.91 75.5171 18.972C74.2941 19.1192 73.1723 19.5299 72.0038 19.894C70.8353 20.2582 69.768 20.5914 68.6462 20.9169C66.3481 21.591 64.0189 22.1954 61.6818 22.7223C57.07 23.7606 52.4037 24.4967 47.6985 24.9772C38.2334 25.938 28.6048 25.7598 19.1865 24.3883C13.8425 23.6134 8.59968 22.4124 3.34911 21.1803C2.77264 21.0408 2.56231 21.8545 3.10762 22.0559H3.11541Z" fill="url(#paint1_radial_168_596)"/>
</g>
<g style="mix-blend-mode:screen" opacity="0.35">
<path d="M1.78338 42.489C6.30167 44.155 11.0537 45.263 15.7979 46.0689C20.5421 46.8748 25.3953 47.4017 30.233 47.6031C39.8461 47.9906 49.4981 47.177 58.9008 45.1468C61.5573 44.5734 64.1981 43.907 66.8078 43.1399C68.101 42.7602 69.3942 42.3728 70.6562 41.9311C71.9182 41.4894 73.2815 41.0788 74.4344 40.3194C74.8005 40.0792 74.7148 39.3431 74.1851 39.4051C72.9621 39.5523 71.8403 39.963 70.6717 40.3272C69.5032 40.6913 68.436 41.0245 67.3142 41.35C65.0161 42.0241 62.6868 42.6285 60.3498 43.1554C55.738 44.1937 51.0717 44.9299 46.3665 45.4103C36.9014 46.3711 27.2728 46.1929 17.8545 44.8214C12.5104 44.0465 7.26765 42.8455 2.01708 41.6134C1.44061 41.474 1.23028 42.2876 1.77559 42.489H1.78338Z" fill="url(#paint2_radial_168_596)"/>
</g>
<path d="M-2.61043 37.7163C1.84554 39.5992 6.63648 40.7538 11.3963 41.5984C16.2262 42.4585 21.1262 43.0474 26.0262 43.2488C30.8483 43.4503 35.686 43.3573 40.5003 42.9544C45.4003 42.5514 50.277 41.7766 55.0757 40.7228C59.7732 39.6844 64.4862 38.4292 68.95 36.616C69.2849 36.4842 69.6355 36.337 69.9393 36.1433C70.2275 35.9651 70.4613 35.7171 70.695 35.4847C71.2636 34.9345 70.804 34.0589 70.0795 34.0124C69.4096 33.9659 68.7942 34.0357 68.1476 34.2294C67.5867 34.3999 67.0258 34.5703 66.4649 34.733C65.3197 35.0662 64.1746 35.4227 63.0294 35.7559C60.7313 36.4223 58.4177 37.0112 56.0806 37.5226C53.7436 38.0417 51.3909 38.4834 49.0305 38.8476C48.4463 38.9406 47.8698 39.0258 47.2855 39.1033C47.1375 39.1265 46.9817 39.142 46.8337 39.1653C46.5299 39.2118 47.0362 39.142 46.7246 39.1808C46.4052 39.2195 46.0781 39.266 45.7587 39.3048C44.5746 39.452 43.3827 39.5837 42.1986 39.6999C37.4621 40.1804 32.6946 40.3741 27.927 40.2733C25.5354 40.2191 23.1438 40.1106 20.76 39.9324C19.5681 39.8394 18.3763 39.7387 17.1921 39.607C16.5845 39.545 15.9847 39.4752 15.377 39.3977C15.0966 39.3667 14.8162 39.328 14.5357 39.2893C14.4734 39.2815 14.4033 39.2738 14.341 39.266C14.3254 39.266 14.1072 39.235 14.2708 39.2583C14.4266 39.2815 14.2163 39.2505 14.2007 39.2505C14.0917 39.235 13.9826 39.2195 13.8735 39.204C9.12934 38.5454 4.42408 37.6156 -0.250015 36.5772C-0.826487 36.4533 -1.41075 36.3603 -1.98722 36.2518C-2.37673 36.182 -2.78182 36.3293 -2.93762 36.7167C-3.07005 37.0499 -2.98436 37.5536 -2.61043 37.7163Z" fill="#36C5D9"/>
<g style="mix-blend-mode:screen" opacity="0.35">
<path d="M1.51795 29.2621C3.78488 30.3469 6.16088 31.1527 8.58362 31.8114C11.0064 32.47 13.2266 32.9969 15.587 33.4153C20.487 34.2832 25.4493 34.8798 30.4194 35.0891C40.274 35.5075 50.1363 34.6474 59.7572 32.4855C62.3825 31.8966 64.9844 31.2147 67.5629 30.4399C68.8483 30.0524 70.1492 29.665 71.4035 29.1768C72.0578 28.9211 72.72 28.6654 73.3666 28.3942C73.7795 28.2237 74.1768 28.0455 74.5429 27.7821C74.9324 27.5031 75.1739 27.1389 75.4388 26.7515C75.8906 26.0929 75.4232 25.1475 74.6987 24.9538C74.3793 24.8686 74.0521 24.7523 73.7093 24.7446C73.351 24.7368 72.9381 24.8298 72.572 24.8996C71.9488 25.0313 71.3333 25.2483 70.7179 25.4187C69.5884 25.7287 68.4744 26.0774 67.3526 26.4028C65.0467 27.0692 62.7252 27.6581 60.3804 28.1773C58.0355 28.6964 55.6751 29.1381 53.2991 29.51C52.7227 29.603 52.1384 29.6882 51.5619 29.7657C51.4451 29.7812 51.3282 29.7967 51.2114 29.8122C50.6427 29.8897 51.523 29.7735 51.1646 29.8122C50.8452 29.851 50.5258 29.8975 50.2064 29.9362C48.9912 30.0834 47.7681 30.2229 46.5451 30.3469C41.8242 30.835 37.08 31.0365 32.3358 30.9435C29.9364 30.897 27.5371 30.7886 25.1455 30.6103C23.9224 30.5173 22.6994 30.4089 21.4763 30.2849C20.9544 30.2306 20.4325 30.1687 19.9105 30.1067C19.6223 30.0757 19.334 30.0369 19.038 29.9982C18.8666 29.9749 18.6875 29.9517 18.5161 29.9284C18.8744 29.9749 18.4849 29.9284 18.3447 29.9052C15.6727 29.5333 13.0006 29.1071 10.352 28.6112C7.70333 28.1153 5.05468 27.5496 2.37486 27.1777C1.81397 27.1002 1.26087 27.2629 1.02717 27.8363C0.832413 28.3245 0.972635 29.0064 1.49458 29.2543L1.51795 29.2621Z" fill="url(#paint3_radial_168_596)"/>
</g>
<g style="mix-blend-mode:multiply" opacity="0.74">
<path d="M1.08905 48.0218C5.59955 49.6491 10.3204 50.7494 15.0412 51.5552C19.8166 52.3766 24.6465 52.9112 29.492 53.105C34.2907 53.2987 39.105 53.1979 43.896 52.795C48.7103 52.3921 53.4934 51.6637 58.2143 50.6409C62.904 49.6258 67.5625 48.355 72.0574 46.6658C72.6417 46.4489 73.1714 46.1854 73.7011 45.8522C74.1452 45.581 73.8335 44.9921 73.3661 45.0618C72.1742 45.2401 71.0603 45.6585 69.9151 46.0149C68.7699 46.3714 67.6326 46.7278 66.4874 47.061C64.2127 47.7274 61.9146 48.3163 59.6087 48.8354C54.9658 49.8815 50.2605 50.6176 45.5241 51.0903C40.7877 51.563 36.0201 51.7489 31.2525 51.6405C26.5161 51.532 21.7797 51.16 17.0822 50.4859C12.3458 49.7963 7.64837 48.8354 3.01322 47.6576C2.44454 47.5104 1.86807 47.3864 1.29939 47.247C0.793027 47.123 0.606063 47.8436 1.08905 48.0141V48.0218Z" fill="#68DFD8"/>
</g>
<path d="M0.505069 13.8192C5.01557 15.4464 9.73641 16.5467 14.4572 17.3526C19.2326 18.1739 24.0625 18.7086 28.908 18.9023C33.7067 19.096 38.521 18.9953 43.312 18.5924C48.1263 18.1894 52.9095 17.4611 57.6303 16.4382C62.32 15.4232 66.9785 14.1524 71.4734 12.4632C72.0577 12.2462 72.5874 11.9828 73.1171 11.6496C73.5612 11.3784 73.2496 10.7895 72.7822 10.8592C71.5903 11.0374 70.4763 11.4559 69.3311 11.8123C68.186 12.1687 67.0486 12.5252 65.9034 12.8584C63.6287 13.5247 61.3306 14.1136 59.0247 14.6328C54.3818 15.6789 49.6765 16.415 44.9401 16.8877C40.2037 17.3603 35.4361 17.5463 30.6686 17.4378C25.9321 17.3293 21.1957 16.9574 16.4983 16.2833C11.7618 15.5936 7.06438 14.6328 2.42924 13.455C1.86056 13.3078 1.28408 13.1838 0.715403 13.0443C0.209043 12.9204 0.022079 13.641 0.505069 13.8192Z" fill="#36C5D9"/>
</g>
<path style="mix-blend-mode:multiply" opacity="0.43" d="M61.8525 27.0928C66.5188 41.544 58.5261 57.0258 43.9897 61.675C34.3688 64.7513 24.2884 62.3027 17.2383 56.1038C22.8472 58.1572 29.1494 58.4439 35.2725 56.4834C49.8089 51.8343 57.7938 36.3524 53.1275 21.9012C51.5539 17.0195 48.7339 12.8895 45.1348 9.72803C52.8081 12.564 59.1493 18.7475 61.8525 27.1005V27.0928Z" fill="url(#paint4_radial_168_596)"/>
<path style="mix-blend-mode:multiply" opacity="0.43" d="M61.8767 27.1391C66.5197 41.5981 58.488 57.0644 43.9438 61.6826C35.9121 64.2319 27.5689 62.9379 20.9395 58.8311C26.8444 61.3572 33.6608 61.8686 40.2746 59.7687C54.8189 55.1505 62.8427 39.6842 58.2076 25.2252C56.1276 18.7473 51.8586 13.5634 46.4678 10.2393C53.5646 13.2845 59.3527 19.2432 61.8845 27.1391H61.8767Z" fill="url(#paint5_radial_168_596)"/>
<path style="mix-blend-mode:screen" d="M40.9514 12.0602C47.7133 16.4925 48.1885 27.6273 42.0187 36.9257C35.8489 46.2241 25.3711 50.1604 18.617 45.7282C11.8552 41.2959 11.38 30.1611 17.5498 20.8627C23.7118 11.5721 34.1896 7.62801 40.9514 12.0602Z" fill="url(#paint6_radial_168_596)"/>
<path d="M31.5656 47.5646C29.8595 46.7898 28.0132 46.4333 26.167 46.9602C24.8349 47.3399 23.6585 48.4557 22.4589 49.1376C22.0616 49.3701 21.6565 49.5948 21.2202 49.7498C20.7217 49.928 20.1919 50.0055 19.6622 50.083C19.0779 50.1682 18.4937 50.2534 17.9094 50.3309C17.738 50.3542 17.5589 50.3851 17.4186 50.4859C17.1382 50.6951 17.1538 51.1523 17.3641 51.439C17.5744 51.7179 17.9172 51.8729 18.2522 51.9814C19.9349 52.5625 21.859 52.609 23.4638 53.4071C24.5778 53.9573 25.4113 54.9646 26.5409 55.4838C27.7873 56.0572 29.2597 55.9564 30.584 55.5922C31.9083 55.2281 33.1548 54.6082 34.4479 54.151C35.2659 53.8643 36.1072 53.6396 36.9641 53.4924C37.7509 53.3529 38.5144 53.5466 39.2934 53.2986C39.3947 53.2676 39.4959 53.2212 39.5583 53.1359C39.6673 52.9809 39.5583 52.7485 39.3869 52.6555C39.2233 52.5625 39.0207 52.5625 38.826 52.5393C37.8133 52.4308 37.1199 51.5629 36.4188 50.9276C34.9621 49.6025 33.3651 48.3782 31.5578 47.5569L31.5656 47.5646Z" fill="#36C5D9"/>
<g style="mix-blend-mode:multiply">
<path d="M30.0384 49.362C29.1503 48.9591 28.1921 48.7731 27.2417 49.0443C26.5484 49.238 25.9408 49.8192 25.3176 50.1756C25.1072 50.2918 24.9047 50.4158 24.6788 50.4933C24.4217 50.5863 24.1413 50.625 23.8686 50.6638C23.5648 50.7103 23.261 50.749 22.9571 50.7955C22.8637 50.811 22.7702 50.8265 22.7001 50.8807C22.5521 50.9892 22.5599 51.2294 22.6689 51.3767C22.778 51.5239 22.9571 51.6014 23.1285 51.6634C24.001 51.9656 24.9982 51.9888 25.8317 52.3995C26.4082 52.6862 26.8444 53.2053 27.4287 53.4765C28.0753 53.771 28.8387 53.7245 29.5243 53.5308C30.2098 53.3371 30.8564 53.0194 31.5263 52.7869C31.947 52.6397 32.391 52.5235 32.8273 52.446C33.2324 52.3762 33.6297 52.477 34.0348 52.3452C34.0893 52.3297 34.1438 52.3065 34.175 52.26C34.2295 52.1748 34.175 52.0585 34.0893 52.012C34.0036 51.9656 33.8945 51.9656 33.801 51.9501C33.2791 51.8958 32.913 51.4464 32.5546 51.1132C31.799 50.4236 30.9732 49.7882 30.0306 49.3697L30.0384 49.362Z" fill="#36C5D9"/>
</g>
<defs>
<radialGradient id="paint0_radial_168_596" cx="0" cy="0" r="1" gradientUnits="userSpaceOnUse" gradientTransform="translate(35.5293 35.5008) scale(27.6473 27.5)">
<stop offset="0.04" stop-color="#10BDF0"/>
<stop offset="0.91" stop-color="#00ADF1"/>
</radialGradient>
<radialGradient id="paint1_radial_168_596" cx="0" cy="0" r="1" gradientUnits="userSpaceOnUse" gradientTransform="translate(39.402 22.9703) scale(25.9101 25.772)">
<stop stop-color="#FDC079"/>
<stop offset="0.95" stop-color="#FFB06B"/>
</radialGradient>
<radialGradient id="paint2_radial_168_596" cx="0" cy="0" r="1" gradientUnits="userSpaceOnUse" gradientTransform="translate(38.0621 43.4034) scale(25.9101 25.7721)">
<stop stop-color="#FDC079"/>
<stop offset="0.95" stop-color="#FFB06B"/>
</radialGradient>
<radialGradient id="paint3_radial_168_596" cx="0" cy="0" r="1" gradientUnits="userSpaceOnUse" gradientTransform="translate(38.2953 29.665) scale(26.2684 26.1285)">
<stop stop-color="#FDC079"/>
<stop offset="0.95" stop-color="#FFB06B"/>
</radialGradient>
<radialGradient id="paint4_radial_168_596" cx="0" cy="0" r="1" gradientUnits="userSpaceOnUse" gradientTransform="translate(38.286 37.7098) rotate(-17.7211) scale(25.1886 25.0794)">
<stop offset="0.04" stop-color="#3FFBFB"/>
<stop offset="1" stop-color="#20D3DE"/>
</radialGradient>
<radialGradient id="paint5_radial_168_596" cx="0" cy="0" r="1" gradientUnits="userSpaceOnUse" gradientTransform="translate(39.7156 37.7063) rotate(-17.6116) scale(24.2856 24.18)">
<stop offset="0.04" stop-color="#2BD7CC"/>
<stop offset="1" stop-color="#3DD7D7"/>
</radialGradient>
<radialGradient id="paint6_radial_168_596" cx="0" cy="0" r="1" gradientUnits="userSpaceOnUse" gradientTransform="translate(24.857 17.2596) scale(26.8683 26.7251)">
<stop offset="0.04" stop-color="#10F0F0"/>
<stop offset="0.9" stop-color="#20E9C5" stop-opacity="0"/>
</radialGradient>
</defs>
</svg>
