<svg width="64" height="64" viewBox="0 0 64 64" fill="none" xmlns="http://www.w3.org/2000/svg">
<mask id="mask0_250_2144" style="mask-type:luminance" maskUnits="userSpaceOnUse" x="0" y="0" width="64" height="64">
<path d="M33.218 16.809C33.218 7.74666 25.8715 0.400203 16.8092 0.400203C7.74685 0.400203 0.40039 7.74666 0.40039 16.809C0.40039 25.8713 7.74685 33.2178 16.8092 33.2178C25.8715 33.2178 33.218 25.8713 33.218 16.809Z" fill="white"/>
</mask>
<g mask="url(#mask0_250_2144)">
<path d="M33.0093 19.4186C34.4504 10.4715 28.3656 2.05033 19.4186 0.609242C10.4716 -0.831845 2.05041 5.2529 0.60932 14.1999C-0.831768 23.1469 5.25298 31.5681 14.2 33.0092C23.147 34.4503 31.5682 28.3656 33.0093 19.4186Z" fill="url(#paint0_radial_250_2144)"/>
<path style="mix-blend-mode:screen" opacity="0.7" d="M23.3405 6.90293C26.3557 10.6478 24.6069 17.0642 19.4327 21.2372C14.2586 25.4103 7.61312 25.7601 4.5979 22.0152C1.58269 18.2703 3.33151 11.8539 8.50562 7.68086C13.6797 3.5078 20.3253 3.15804 23.3405 6.90293Z" fill="url(#paint1_radial_250_2144)"/>
<path style="mix-blend-mode:multiply" opacity="0.33" d="M33.2192 16.8057C33.2192 25.8634 25.8681 33.2145 16.8044 33.2145C10.8041 33.2145 5.55161 29.9942 2.69922 25.188C5.49131 27.371 9.00704 28.6796 12.8243 28.6796C21.888 28.6796 29.2331 21.3285 29.2331 12.2648C29.2331 9.20733 28.3949 6.34891 26.9415 3.89453C30.7588 6.90371 33.2192 11.5652 33.2192 16.8057Z" fill="url(#paint2_radial_250_2144)"/>
<path style="mix-blend-mode:multiply" opacity="0.33" d="M33.2185 16.8048C33.2185 25.8625 25.8674 33.2136 16.8036 33.2136C11.7984 33.2136 7.31778 30.9703 4.30859 27.4364C7.19114 29.9391 10.9541 31.4587 15.0729 31.4587C24.1366 31.4587 31.4877 24.1076 31.4877 15.05C31.4877 10.9915 30.0103 7.2707 27.5679 4.40625C31.0294 7.42146 33.2185 11.8538 33.2185 16.7988V16.8048Z" fill="url(#paint3_radial_250_2144)"/>
<g style="mix-blend-mode:screen" opacity="0.35">
<path d="M0.804913 3.33401C3.02411 5.1371 5.50261 6.63868 8.03539 7.95934C10.5682 9.28001 13.2336 10.474 15.9413 11.469C21.3626 13.4591 27.0071 14.7436 32.7541 15.2863C34.3461 15.4371 35.9442 15.5336 37.5423 15.5697C38.3624 15.5878 39.1825 15.6059 40.0027 15.5697C40.8228 15.5336 41.661 15.5637 42.439 15.2803C42.7767 15.1597 42.8249 14.6471 42.439 14.5446C41.7455 14.3576 41.0459 14.3938 40.3283 14.3878C39.6107 14.3817 38.9051 14.3757 38.1875 14.3576C36.7824 14.3275 35.3773 14.2491 33.9783 14.1285C31.1681 13.8872 28.3881 13.4531 25.6322 12.8741C20.1083 11.7163 14.7111 9.87702 9.63345 7.41057C6.75091 6.01152 4.0131 4.37727 1.23307 2.78524C0.89537 2.59226 0.485301 3.08073 0.804913 3.34004V3.33401Z" fill="url(#paint4_radial_250_2144)"/>
</g>
<g style="mix-blend-mode:screen" opacity="0.35">
<path d="M-3.65602 14.7129C-1.43683 16.516 1.04168 18.0176 3.57446 19.3382C6.10723 20.6589 8.77268 21.8529 11.4803 22.848C16.9017 24.838 22.5462 26.1225 28.2932 26.6652C29.8852 26.816 31.4833 26.9125 33.0813 26.9486C33.9015 26.9667 34.7216 26.9848 35.5417 26.9486C36.3619 26.9125 37.2001 26.9426 37.978 26.6592C38.3157 26.5386 38.364 26.026 37.978 25.9235C37.2845 25.7365 36.585 25.7727 35.8674 25.7667C35.1498 25.7607 34.4442 25.7546 33.7266 25.7365C32.3215 25.7064 30.9164 25.628 29.5173 25.5074C26.7072 25.2662 23.9271 24.832 21.1712 24.253C15.6474 23.0952 10.2501 21.2559 5.17252 18.7895C2.28997 17.3904 -0.447838 15.7562 -3.22786 14.1641C-3.56557 13.9712 -3.97564 14.4596 -3.65602 14.7189V14.7129Z" fill="url(#paint5_radial_250_2144)"/>
</g>
<g opacity="0.35">
<path d="M-5.56832 11.6076C-4.54918 12.7594 -3.31294 13.7122 -2.03449 14.5685C-0.852527 15.3646 0.347527 16.1364 1.60789 16.8058C4.27936 18.235 7.05939 19.5135 9.90575 20.5628C12.7521 21.6121 15.4055 22.39 18.2277 23.0353C21.05 23.6805 24.1918 24.1147 27.201 24.3559C28.6423 24.4705 30.0896 24.5429 31.5369 24.561C32.2726 24.573 33.0083 24.5851 33.738 24.561C34.0817 24.5489 34.4315 24.5067 34.7752 24.4705C35.2577 24.4223 35.7763 24.4102 36.2406 24.2534C36.7713 24.0785 37.2236 23.7891 37.4527 23.2584C37.7301 22.6131 37.5372 21.9498 36.9824 21.5216C36.2165 20.9306 35.1129 21.0271 34.1963 20.9608C32.755 20.8583 31.3017 20.8764 29.8544 20.7799C29.1187 20.7316 28.389 20.6653 27.6593 20.5929C27.3156 20.5567 26.9719 20.5206 26.6281 20.4784C26.4532 20.4603 26.2844 20.4361 26.1155 20.4181C26.0311 20.406 25.9467 20.3939 25.8562 20.3879C25.4944 20.3397 26.1698 20.4301 25.9165 20.3939C24.4873 20.1949 23.0581 19.9537 21.641 19.6703C18.8006 19.0914 15.9844 18.4401 13.2165 17.5596C11.8174 17.1134 10.4304 16.6189 9.05546 16.1063C8.39211 15.859 7.72877 15.5937 7.07145 15.3223C6.99306 15.2922 6.91466 15.256 6.83023 15.2259C6.7639 15.2017 6.50459 15.0932 6.75787 15.1957C7.01115 15.2982 6.74581 15.1957 6.6855 15.1656C6.60711 15.1294 6.52871 15.0992 6.44429 15.063C6.10658 14.9183 5.76888 14.7675 5.43721 14.6168C2.77176 13.4167 0.208827 11.9996 -2.42647 10.7513C-3.11997 10.4196 -3.81347 10.1121 -4.53109 9.84069C-4.96528 9.67786 -5.50802 9.94923 -5.73114 10.3291C-5.97839 10.7513 -5.8819 11.2578 -5.56832 11.6136V11.6076Z" fill="url(#paint6_radial_250_2144)"/>
</g>
<g style="mix-blend-mode:screen" opacity="0.35">
<path d="M-1.42627 7.28991C-0.389037 8.36935 0.817048 9.27995 2.05932 10.1061C3.30158 10.9323 4.49561 11.674 5.77406 12.3555C8.40935 13.7545 11.1411 15.0088 13.9453 16.034C19.4752 18.0663 25.2161 19.3387 31.0898 19.8332C32.7059 19.9719 34.3221 20.0503 35.9382 20.0684C36.7584 20.0804 37.5845 20.0865 38.3987 20.0201C39.3635 19.9417 40.4852 19.9839 41.1485 19.1638C41.4802 18.7537 41.5345 18.2231 41.1485 17.813C40.841 17.4934 40.5033 17.2823 40.057 17.1979C39.6108 17.1135 39.1706 17.1135 38.7243 17.0893C38.0127 17.0532 37.3011 17.0411 36.5835 17.017C35.1543 16.9808 33.7311 16.8964 32.314 16.7697C31.6024 16.7034 30.8908 16.631 30.1852 16.5406C30.0164 16.5225 29.8415 16.4984 29.6726 16.4742C29.6184 16.4682 29.341 16.426 29.5641 16.4622C29.7872 16.4984 29.5098 16.4562 29.4555 16.4441C29.0937 16.3958 28.7319 16.3416 28.3701 16.2813C26.9589 16.0581 25.5659 15.7807 24.1669 15.4973C21.3748 14.9244 18.6128 14.1767 15.9112 13.26C14.5604 12.8017 13.2216 12.3072 11.901 11.7826C11.5994 11.662 11.2979 11.5414 11.0024 11.4147C10.924 11.3846 10.8456 11.3484 10.7612 11.3122C10.5441 11.2217 10.9964 11.4147 10.7793 11.3182C10.5984 11.2398 10.4235 11.1675 10.2426 11.0891C9.56719 10.7936 8.89782 10.4921 8.23447 10.1724C6.81129 9.49704 5.38811 8.79148 3.99508 8.0618C2.60205 7.33212 1.14269 6.51801 -0.358885 5.88482C-0.762924 5.71596 -1.21521 5.72803 -1.49864 6.11397C-1.76397 6.46977 -1.73985 6.9522 -1.4323 7.27181L-1.42627 7.28991Z" fill="url(#paint7_radial_250_2144)"/>
</g>
<g opacity="0.35">
<path d="M-5.19441 17.8788C-3.02949 19.7905 -0.490678 21.3343 2.06622 22.673C4.62312 24.0118 7.31269 25.2239 10.0445 26.225C15.5141 28.2331 21.2068 29.5115 27.0141 30.0362C28.6061 30.1809 30.2042 30.2653 31.8022 30.2955C32.6224 30.3136 33.4486 30.3256 34.2627 30.2834C35.0768 30.2412 35.9874 30.2593 36.7532 29.8251C37.097 29.6321 37.1512 29.017 36.7532 28.8361C36.3974 28.6733 36.0838 28.5708 35.6858 28.5406C35.318 28.5105 34.9501 28.5225 34.5823 28.5105C33.8707 28.4924 33.1591 28.4864 32.4415 28.4683C31.0183 28.4321 29.5891 28.3537 28.1719 28.2331C25.3919 27.9919 22.642 27.5456 19.9102 26.9788C14.3924 25.833 8.98915 24.0118 3.91153 21.5574C1.02899 20.1644 -1.71485 18.5241 -4.54915 17.0406C-5.05571 16.7753 -5.66478 17.4567 -5.19441 17.8728V17.8788Z" fill="url(#paint8_radial_250_2144)"/>
</g>
<g opacity="0.5">
<path d="M0.678637 -1.67162C2.84356 0.240025 5.38237 1.78381 7.93927 3.12257C10.4962 4.46132 13.1857 5.67344 15.9175 6.67449C21.3871 8.68262 27.0798 9.96107 32.8871 10.4857C34.4792 10.6304 36.0772 10.7149 37.6753 10.745C38.4954 10.7631 39.3216 10.7752 40.1357 10.733C40.9498 10.6908 41.8604 10.7088 42.6263 10.2747C42.97 10.0817 43.0243 9.46658 42.6263 9.28566C42.2705 9.12284 41.9569 9.02033 41.5589 8.99017C41.191 8.96002 40.8232 8.97208 40.4553 8.96002C39.7437 8.94193 39.0321 8.9359 38.3145 8.91781C36.8913 8.88163 35.4621 8.80323 34.045 8.68262C31.265 8.4414 28.5151 7.99515 25.7833 7.42829C20.2655 6.28251 14.8622 4.46132 9.78458 2.00694C6.90203 0.619942 4.15819 -1.02636 1.32389 -2.50382C0.817337 -2.76916 0.208264 -2.08772 0.678637 -1.67162Z" fill="url(#paint9_radial_250_2144)"/>
</g>
</g>
<defs>
<radialGradient id="paint0_radial_250_2144" cx="0" cy="0" r="1" gradientUnits="userSpaceOnUse" gradientTransform="translate(12.0334 10.4134) scale(21.4683)">
<stop stop-color="#F9CD78"/>
<stop offset="1" stop-color="#FFC82A"/>
</radialGradient>
<radialGradient id="paint1_radial_250_2144" cx="0" cy="0" r="1" gradientUnits="userSpaceOnUse" gradientTransform="translate(9.0341 14.0617) rotate(-38.88) scale(15.6719 11.3782)">
<stop stop-color="#FDC079"/>
<stop offset="0.95" stop-color="#FFB06B" stop-opacity="0"/>
</radialGradient>
<radialGradient id="paint2_radial_250_2144" cx="0" cy="0" r="1" gradientUnits="userSpaceOnUse" gradientTransform="translate(17.9622 18.5545) scale(14.9615 14.9615)">
<stop stop-color="#FDC079"/>
<stop offset="0.95" stop-color="#FFB06B"/>
</radialGradient>
<radialGradient id="paint3_radial_250_2144" cx="0" cy="0" r="1" gradientUnits="userSpaceOnUse" gradientTransform="translate(18.7635 18.8129) scale(14.4248)">
<stop stop-color="#FDC079"/>
<stop offset="0.95" stop-color="#FFB06B"/>
</radialGradient>
<radialGradient id="paint4_radial_250_2144" cx="0" cy="0" r="1" gradientUnits="userSpaceOnUse" gradientTransform="translate(21.5375 9.081) scale(15.4258)">
<stop stop-color="#FDC079"/>
<stop offset="0.95" stop-color="#FFB06B"/>
</radialGradient>
<radialGradient id="paint5_radial_250_2144" cx="0" cy="0" r="1" gradientUnits="userSpaceOnUse" gradientTransform="translate(17.0766 20.4599) scale(15.4258)">
<stop stop-color="#FDC079"/>
<stop offset="0.95" stop-color="#FFB06B"/>
</radialGradient>
<radialGradient id="paint6_radial_250_2144" cx="0" cy="0" r="1" gradientUnits="userSpaceOnUse" gradientTransform="translate(15.3452 16.9626) scale(15.9203 15.9203)">
<stop stop-color="#FDC079"/>
<stop offset="0.95" stop-color="#633E24"/>
</radialGradient>
<radialGradient id="paint7_radial_250_2144" cx="0" cy="0" r="1" gradientUnits="userSpaceOnUse" gradientTransform="translate(19.445 12.7414) scale(15.7937)">
<stop stop-color="#FDC079"/>
<stop offset="0.95" stop-color="#FFB06B"/>
</radialGradient>
<radialGradient id="paint8_radial_250_2144" cx="0" cy="0" r="1" gradientUnits="userSpaceOnUse" gradientTransform="translate(15.5804 23.5294) scale(15.5464)">
<stop stop-color="#FDC079"/>
<stop offset="0.95" stop-color="#633E24"/>
</radialGradient>
<radialGradient id="paint9_radial_250_2144" cx="0" cy="0" r="1" gradientUnits="userSpaceOnUse" gradientTransform="translate(21.4595 3.97889) scale(15.5464 15.5464)">
<stop stop-color="#FDC079"/>
<stop offset="0.95" stop-color="#633E24"/>
</radialGradient>
</defs>
</svg>
